# Blender 4.2.2 LTS
# www.blender.org
mtllib cube.mtl
o Cube.001_Cube.003
v -0.986933 0.745450 1.139984
v -1.045607 0.789768 1.207757
v -1.359900 -0.951739 0.272322
v -1.440748 -1.008321 0.288511
v 0.849611 0.188797 1.439379
v 0.900121 0.200022 1.524952
v 0.476643 -1.508392 0.571717
v 0.504980 -1.598068 0.605706
v -0.476643 1.508392 -0.571717
v -0.504980 1.598068 -0.605706
v -0.849611 -0.188797 -1.439379
v -0.900121 -0.200022 -1.524952
v 1.359900 0.951739 -0.272322
v 1.440748 1.008321 -0.288511
v 0.986933 -0.745450 -1.139984
v 1.045607 -0.789768 -1.207757
v -0.978593 0.709588 1.159241
v -1.343445 -0.950669 0.310460
v 0.453135 -1.495209 0.603341
v 0.817986 0.165049 1.452121
v 0.878401 0.170359 1.415764
v 0.513550 -1.489898 0.566983
v 1.012735 -0.743559 -1.107469
v 1.377586 0.916698 -0.258688
v 1.343445 0.950669 -0.310460
v 0.978593 -0.709588 -1.159241
v -0.817986 -0.165049 -1.452121
v -0.453135 1.495209 -0.603341
v -0.513550 1.489898 -0.566983
v -0.878401 -0.170359 -1.415764
v -1.377586 -0.916698 0.258688
v -1.012735 0.743559 1.107469
v 0.840724 0.228380 1.430393
v 1.339909 0.974719 -0.244059
v -0.456670 1.519259 -0.536940
v -0.955855 0.772920 1.137513
v 0.955855 -0.772920 -1.137513
v 0.456670 -1.519259 0.536940
v -1.339909 -0.974719 0.244059
v -0.840724 -0.228380 -1.430393
vn 0.9182 0.0008 -0.3962
vn 0.0783 -0.4674 0.8806
vn 0.3101 0.9371 -0.1601
vn -0.1807 -0.0685 0.9811
vn -0.6078 0.4633 -0.6449
vn -0.5717 -0.2704 0.7746
vn 0.0002 -0.4731 -0.8810
vn -0.3127 -0.6692 0.6740
vn -0.3466 0.4863 -0.8022
vn 0.9783 -0.1341 -0.1582
vn -0.4036 0.8744 0.2694
vn 0.9540 0.0312 0.2983
vn -0.7705 -0.1477 0.6200
vn 0.7976 -0.4042 0.4477
vn -0.7135 -0.5358 -0.4515
vn 0.8220 -0.5695 -0.0088
vn -0.9182 -0.0008 0.3962
vn -0.0783 0.4674 -0.8806
vn -0.0003 0.4730 0.8810
vn 0.3127 0.6692 -0.6740
vn 0.6078 -0.4633 0.6450
vn 0.5717 0.2704 -0.7746
vn -0.3101 -0.9371 0.1601
vn 0.1807 0.0685 -0.9811
vn 0.3466 -0.4862 0.8022
vn -0.9783 0.1341 0.1582
vn 0.7135 0.5358 0.4515
vn -0.8220 0.5695 0.0088
vn 0.7705 0.1477 -0.6200
vn -0.7977 0.4042 -0.4477
vn 0.4036 -0.8744 -0.2694
vn -0.9540 -0.0312 -0.2983
vn -0.8764 -0.2849 -0.3883
vn -0.1447 0.9191 0.3665
vn -0.3254 -0.8331 0.4472
vn 0.0900 0.6856 0.7224
vn 0.6495 -0.7474 -0.1395
vn 0.5053 0.7221 0.4725
vn 0.0986 -0.1992 -0.9750
vn 0.2706 0.9556 0.1166
vn -0.6495 0.7474 0.1395
vn -0.5054 -0.7221 -0.4725
vn 0.3254 0.8331 -0.4472
vn -0.0900 -0.6856 -0.7224
vn 0.8764 0.2849 0.3883
vn 0.1447 -0.9191 -0.3665
vn -0.0986 0.1992 0.9750
vn -0.2706 -0.9556 -0.1166
vn -0.6078 0.4633 -0.6450
vn 0.0002 -0.4730 -0.8810
vn -0.3466 0.4862 -0.8022
vn 0.7977 -0.4042 0.4477
vn -0.0002 0.4731 0.8810
vn 0.6078 -0.4633 0.6449
vn 0.6496 -0.7474 -0.1395
vn -0.5053 -0.7221 -0.4725
vt 0.625000 0.000000
vt 0.375000 0.000000
vt 0.625000 0.250000
vt 0.375000 0.250000
vt 0.625000 0.500000
vt 0.375000 0.500000
vt 0.625000 0.750000
vt 0.375000 0.750000
vt 0.625000 1.000000
vt 0.375000 1.000000
vt 0.125000 0.500000
vt 0.125000 0.750000
vt 0.875000 0.500000
vt 0.875000 0.750000
s 0
usemtl cube
f 18/1/1 1/2/1 17/2/1
f 17/2/2 4/1/2 18/1/2
f 19/3/3 3/1/3 18/1/3
f 18/1/4 8/3/4 19/3/4
f 20/4/5 7/3/5 19/3/5
f 19/3/6 6/4/6 20/4/6
f 17/2/7 5/4/7 20/4/7
f 20/4/8 2/2/8 17/2/8
f 22/3/9 5/4/9 21/4/9
f 21/4/10 8/3/10 22/3/10
f 23/5/11 7/3/11 22/3/11
f 22/3/12 16/5/12 23/5/12
f 24/6/13 15/5/13 23/5/13
f 23/5/14 14/6/14 24/6/14
f 21/4/15 13/6/15 24/6/15
f 24/6/16 6/4/16 21/4/16
f 26/5/17 13/6/17 25/6/17
f 25/6/18 16/5/18 26/5/18
f 27/7/19 15/5/19 26/5/19
f 26/5/20 12/7/20 27/7/20
f 28/8/21 11/7/21 27/7/21
f 27/7/22 10/8/22 28/8/22
f 25/6/23 9/8/23 28/8/23
f 28/8/24 14/6/24 25/6/24
f 30/7/25 9/8/25 29/8/25
f 29/8/26 12/7/26 30/7/26
f 31/9/27 11/7/27 30/7/27
f 30/7/28 4/9/28 31/9/28
f 32/10/29 3/9/29 31/9/29
f 31/9/30 2/10/30 32/10/30
f 29/8/31 1/10/31 32/10/31
f 32/10/32 10/8/32 29/8/32
f 34/6/33 5/11/33 33/11/33
f 33/11/34 14/6/34 34/6/34
f 35/8/35 13/6/35 34/6/35
f 34/6/36 10/8/36 35/8/36
f 36/12/37 9/8/37 35/8/37
f 35/8/38 2/12/38 36/12/38
f 33/11/39 1/12/39 36/12/39
f 36/12/40 6/11/40 33/11/40
f 38/13/41 15/5/41 37/5/41
f 37/5/42 8/13/42 38/13/42
f 39/14/43 7/13/43 38/13/43
f 38/13/44 4/14/44 39/14/44
f 40/7/45 3/14/45 39/14/45
f 39/14/46 12/7/46 40/7/46
f 37/5/47 11/7/47 40/7/47
f 40/7/48 16/5/48 37/5/48
f 18/1/1 3/1/1 1/2/1
f 17/2/2 2/2/2 4/1/2
f 19/3/3 7/3/3 3/1/3
f 18/1/4 4/1/4 8/3/4
f 20/4/49 5/4/49 7/3/49
f 19/3/6 8/3/6 6/4/6
f 17/2/50 1/2/50 5/4/50
f 20/4/8 6/4/8 2/2/8
f 22/3/51 7/3/51 5/4/51
f 21/4/10 6/4/10 8/3/10
f 23/5/11 15/5/11 7/3/11
f 22/3/12 8/3/12 16/5/12
f 24/6/13 13/6/13 15/5/13
f 23/5/52 16/5/52 14/6/52
f 21/4/15 5/4/15 13/6/15
f 24/6/16 14/6/16 6/4/16
f 26/5/17 15/5/17 13/6/17
f 25/6/18 14/6/18 16/5/18
f 27/7/53 11/7/53 15/5/53
f 26/5/20 16/5/20 12/7/20
f 28/8/54 9/8/54 11/7/54
f 27/7/22 12/7/22 10/8/22
f 25/6/23 13/6/23 9/8/23
f 28/8/24 10/8/24 14/6/24
f 30/7/25 11/7/25 9/8/25
f 29/8/26 10/8/26 12/7/26
f 31/9/27 3/9/27 11/7/27
f 30/7/28 12/7/28 4/9/28
f 32/10/29 1/10/29 3/9/29
f 31/9/30 4/9/30 2/10/30
f 29/8/31 9/8/31 1/10/31
f 32/10/32 2/10/32 10/8/32
f 34/6/33 13/6/33 5/11/33
f 33/11/34 6/11/34 14/6/34
f 35/8/35 9/8/35 13/6/35
f 34/6/36 14/6/36 10/8/36
f 36/12/55 1/12/55 9/8/55
f 35/8/38 10/8/38 2/12/38
f 33/11/39 5/11/39 1/12/39
f 36/12/40 2/12/40 6/11/40
f 38/13/41 7/13/41 15/5/41
f 37/5/56 16/5/56 8/13/56
f 39/14/43 3/14/43 7/13/43
f 38/13/44 8/13/44 4/14/44
f 40/7/45 11/7/45 3/14/45
f 39/14/46 4/14/46 12/7/46
f 37/5/47 15/5/47 11/7/47
f 40/7/48 12/7/48 16/5/48
