# Blender 4.2.2 LTS
# www.blender.org
mtllib lobbyglass.mtl
o walls.001
v -10.123240 10.123238 19.973856
v -7.953785 11.903666 19.973856
v 11.903670 7.953781 19.973856
v 13.226648 5.478660 19.973856
v -5.478664 13.226647 19.973856
v 14.041338 2.792998 19.973856
v -2.793002 14.041337 19.973856
v 14.316422 0.000002 19.973856
v -0.000007 14.316422 19.973856
v 2.792988 14.041338 19.973856
v 14.041336 -2.792993 19.973856
v 13.226649 -5.478654 19.973856
v 5.478650 13.226652 19.973856
v 7.953772 11.903673 19.973856
v 11.903671 -7.953776 19.973856
v 10.123238 -10.123236 19.973856
v 10.123233 10.123243 19.973856
v -11.903667 7.953782 19.973856
v -7.953778 -11.903671 19.973856
v -5.478657 -13.226648 19.973856
v -13.226648 5.478660 19.973856
v -2.792994 -14.041336 19.973856
v -14.041335 2.792999 19.973856
v 0.000001 -14.316422 19.973856
v -14.316422 0.000003 19.973856
v -14.041337 -2.792992 19.973856
v 2.792996 -14.041336 19.973856
v 5.478657 -13.226646 19.973856
v -13.226648 -5.478654 19.973856
v -11.903670 -7.953773 19.973856
v 7.953777 -11.903668 19.973856
v -10.123240 -10.123235 19.973856
v -10.566840 10.361976 -0.551578
v -8.587688 11.986227 -0.551578
v 9.527879 8.382823 -0.551578
v 10.734807 6.124819 -0.551578
v -6.329685 13.193156 -0.551578
v 11.478029 3.674742 -0.551578
v -3.879608 13.936380 -0.551578
v 11.728986 1.126746 -0.551578
v -1.331613 14.187336 -0.551578
v 1.216382 13.936382 -0.551578
v 11.478030 -1.421249 -0.551578
v 10.734807 -3.871325 -0.551578
v 3.666459 13.193161 -0.551578
v 5.924464 11.986233 -0.551578
v 9.527880 -6.129330 -0.551578
v 7.903624 -8.108485 -0.551578
v 7.903620 10.361980 -0.551578
v -12.191092 8.382824 -0.551578
v -8.587682 -9.732742 -0.551578
v -6.329679 -10.939670 -0.551578
v -13.398020 6.124819 -0.551578
v -3.879601 -11.682892 -0.551578
v -14.141244 3.674742 -0.551578
v -1.331606 -11.933848 -0.551578
v -14.392199 1.126747 -0.551578
v -14.141243 -1.421247 -0.551578
v 1.216389 -11.682890 -0.551578
v 3.666465 -10.939668 -0.551578
v -13.398021 -3.871324 -0.551578
v -12.191092 -6.129327 -0.551578
v 5.924469 -9.732738 -0.551578
v -10.566841 -8.108485 -0.551578
vn -0.8815 -0.4712 -0.0295
vn -0.9515 -0.2886 0.1064
vn -0.7722 -0.6337 -0.0455
vn -0.9881 -0.0973 0.1192
vn -0.4699 -0.8792 -0.0785
vn -0.9868 0.0972 0.1297
vn -0.2890 -0.9527 -0.0942
vn -0.9478 0.2875 0.1376
vn -0.0974 -0.9893 -0.1085
vn -0.8729 0.4666 0.1425
vn 0.6342 -0.7728 -0.0227
vn 0.0973 -0.9879 -0.1210
vn -0.7649 0.6278 0.1443
vn 0.4713 -0.8818 -0.0181
vn 0.2878 -0.9487 -0.1311
vn -0.7708 -0.6326 0.0760
vn 0.2903 -0.9569 -0.0105
vn 0.4669 -0.8734 -0.1385
vn -0.7728 0.6342 0.0241
vn 0.0980 -0.9952 -0.0001
vn 0.6279 -0.7651 -0.1430
vn -0.8817 0.4713 0.0222
vn -0.0980 -0.9951 0.0126
vn -0.6332 -0.7715 -0.0620
vn -0.9568 0.2902 0.0171
vn -0.2902 -0.9566 0.0272
vn -0.9951 0.0980 0.0091
vn -0.4710 -0.8811 0.0430
vn -0.9952 -0.0980 -0.0017
vn -0.6333 -0.7716 0.0595
vn -0.9568 -0.2903 -0.0147
vn -0.8782 -0.4694 0.0918
vt 0.000000 0.000000
s 0
usemtl glass
f 29/1/1 62/1/1 30/1/1
f 4/1/2 38/1/2 6/1/2
f 30/1/3 64/1/3 32/1/3
f 6/1/4 40/1/4 8/1/4
f 19/1/5 52/1/5 20/1/5
f 8/1/6 43/1/6 11/1/6
f 20/1/7 54/1/7 22/1/7
f 11/1/8 44/1/8 12/1/8
f 22/1/9 56/1/9 24/1/9
f 12/1/10 47/1/10 15/1/10
f 1/1/11 34/1/11 2/1/11
f 24/1/12 59/1/12 27/1/12
f 15/1/13 48/1/13 16/1/13
f 2/1/14 37/1/14 5/1/14
f 27/1/15 60/1/15 28/1/15
f 17/1/16 35/1/16 3/1/16
f 5/1/17 39/1/17 7/1/17
f 28/1/18 63/1/18 31/1/18
f 1/1/19 50/1/19 18/1/19
f 7/1/20 41/1/20 9/1/20
f 31/1/21 48/1/21 16/1/21
f 18/1/22 53/1/22 21/1/22
f 9/1/23 42/1/23 10/1/23
f 32/1/24 51/1/24 19/1/24
f 21/1/25 55/1/25 23/1/25
f 10/1/26 45/1/26 13/1/26
f 23/1/27 57/1/27 25/1/27
f 13/1/28 46/1/28 14/1/28
f 25/1/29 58/1/29 26/1/29
f 14/1/30 49/1/30 17/1/30
f 26/1/31 61/1/31 29/1/31
f 3/1/32 36/1/32 4/1/32
f 29/1/1 61/1/1 62/1/1
f 4/1/2 36/1/2 38/1/2
f 30/1/3 62/1/3 64/1/3
f 6/1/4 38/1/4 40/1/4
f 19/1/5 51/1/5 52/1/5
f 8/1/6 40/1/6 43/1/6
f 20/1/7 52/1/7 54/1/7
f 11/1/8 43/1/8 44/1/8
f 22/1/9 54/1/9 56/1/9
f 12/1/10 44/1/10 47/1/10
f 1/1/11 33/1/11 34/1/11
f 24/1/12 56/1/12 59/1/12
f 15/1/13 47/1/13 48/1/13
f 2/1/14 34/1/14 37/1/14
f 27/1/15 59/1/15 60/1/15
f 17/1/16 49/1/16 35/1/16
f 5/1/17 37/1/17 39/1/17
f 28/1/18 60/1/18 63/1/18
f 1/1/19 33/1/19 50/1/19
f 7/1/20 39/1/20 41/1/20
f 31/1/21 63/1/21 48/1/21
f 18/1/22 50/1/22 53/1/22
f 9/1/23 41/1/23 42/1/23
f 32/1/24 64/1/24 51/1/24
f 21/1/25 53/1/25 55/1/25
f 10/1/26 42/1/26 45/1/26
f 23/1/27 55/1/27 57/1/27
f 13/1/28 45/1/28 46/1/28
f 25/1/29 57/1/29 58/1/29
f 14/1/30 46/1/30 49/1/30
f 26/1/31 58/1/31 61/1/31
f 3/1/32 35/1/32 36/1/32
