# Blender 4.2.2 LTS
# www.blender.org
o collision
v 0.000000 10.644306 -0.097449
v 0.000000 10.644306 9.603584
v 7.526661 7.526661 -0.097449
v 7.526661 7.526661 9.603584
v 10.644306 0.000000 -0.097449
v 10.644306 0.000000 9.603584
v 7.526661 -7.526661 -0.097449
v 7.526661 -7.526661 9.603584
v 0.000000 -10.644306 -0.097449
v 0.000000 -10.644306 9.603584
v -7.526661 -7.526661 -0.097449
v -7.526661 -7.526661 9.603584
v -10.644306 0.000000 -0.097449
v -10.644306 0.000000 9.603584
v -7.526661 7.526661 -0.097449
v -7.526661 7.526661 9.603584
v 0.000000 29.902153 -0.097449
v 21.144016 21.144016 -0.097449
v 21.144016 21.144016 9.603584
v 0.000000 29.902153 9.603584
v 29.902153 0.000000 -0.097449
v 29.902153 0.000000 9.603584
v 21.144016 -21.144016 -0.097449
v 21.144016 -21.144016 9.603584
v 0.000000 -29.902153 -0.097449
v 0.000000 -29.902153 9.603584
v -21.144016 -21.144016 -0.097449
v -21.144016 -21.144016 9.603584
v -29.902153 0.000000 -0.097449
v -29.902153 0.000000 9.603584
v -21.144016 21.144016 -0.097449
v -21.144016 21.144016 9.603584
vn -0.3827 -0.9239 -0.0000
vn -0.9239 -0.3827 -0.0000
vn -0.9239 0.3827 -0.0000
vn -0.3827 0.9239 -0.0000
vn 0.3827 0.9239 -0.0000
vn 0.9239 0.3827 -0.0000
vn 0.9239 -0.3827 -0.0000
vn 0.3827 -0.9239 -0.0000
vn -0.0000 -0.0000 1.0000
vn -0.0000 -0.0000 -1.0000
vt 0.875000 0.500000
vt 1.000000 1.000000
vt 1.000000 0.500000
vt 0.750000 0.500000
vt 0.875000 1.000000
vt 0.625000 0.500000
vt 0.750000 1.000000
vt 0.500000 0.500000
vt 0.625000 1.000000
vt 0.375000 0.500000
vt 0.500000 1.000000
vt 0.250000 0.500000
vt 0.375000 1.000000
vt 0.125000 0.500000
vt 0.250000 1.000000
vt 0.000000 0.500000
vt 0.125000 1.000000
vt 0.000000 1.000000
s 0
f 3/1/1 2/2/1 1/3/1
f 5/4/2 4/5/2 3/1/2
f 7/6/3 6/7/3 5/4/3
f 9/8/4 8/9/4 7/6/4
f 11/10/5 10/11/5 9/8/5
f 13/12/6 12/13/6 11/10/6
f 19/5/6 21/4/6 18/1/6
f 15/14/7 14/15/7 13/12/7
f 1/16/8 16/17/8 15/14/8
f 20/2/5 18/1/5 17/3/5
f 22/7/7 23/6/7 21/4/7
f 24/9/8 25/8/8 23/6/8
f 26/11/1 27/10/1 25/8/1
f 28/13/2 29/12/2 27/10/2
f 30/15/3 31/14/3 29/12/3
f 32/17/4 17/16/4 31/14/4
f 14/15/9 28/13/9 12/13/9
f 7/6/10 25/8/10 9/8/10
f 10/11/9 24/9/9 8/9/9
f 3/1/10 21/4/10 5/4/10
f 13/12/10 31/14/10 15/14/10
f 6/7/9 19/5/9 4/5/9
f 16/17/9 30/15/9 14/15/9
f 9/8/10 27/10/10 11/10/10
f 12/13/9 26/11/9 10/11/9
f 5/4/10 23/6/10 7/6/10
f 15/14/10 17/16/10 1/16/10
f 1/3/10 18/1/10 3/1/10
f 8/9/9 22/7/9 6/7/9
f 2/18/9 32/17/9 16/17/9
f 4/5/9 20/2/9 2/2/9
f 11/10/10 29/12/10 13/12/10
f 3/1/1 4/5/1 2/2/1
f 5/4/2 6/7/2 4/5/2
f 7/6/3 8/9/3 6/7/3
f 9/8/4 10/11/4 8/9/4
f 11/10/5 12/13/5 10/11/5
f 13/12/6 14/15/6 12/13/6
f 19/5/6 22/7/6 21/4/6
f 15/14/7 16/17/7 14/15/7
f 1/16/8 2/18/8 16/17/8
f 20/2/5 19/5/5 18/1/5
f 22/7/7 24/9/7 23/6/7
f 24/9/8 26/11/8 25/8/8
f 26/11/1 28/13/1 27/10/1
f 28/13/2 30/15/2 29/12/2
f 30/15/3 32/17/3 31/14/3
f 32/17/4 20/18/4 17/16/4
f 14/15/9 30/15/9 28/13/9
f 7/6/10 23/6/10 25/8/10
f 10/11/9 26/11/9 24/9/9
f 3/1/10 18/1/10 21/4/10
f 13/12/10 29/12/10 31/14/10
f 6/7/9 22/7/9 19/5/9
f 16/17/9 32/17/9 30/15/9
f 9/8/10 25/8/10 27/10/10
f 12/13/9 28/13/9 26/11/9
f 5/4/10 21/4/10 23/6/10
f 15/14/10 31/14/10 17/16/10
f 1/3/10 17/3/10 18/1/10
f 8/9/9 24/9/9 22/7/9
f 2/18/9 20/18/9 32/17/9
f 4/5/9 19/5/9 20/2/9
f 11/10/10 27/10/10 29/12/10
o podium_collision
v 7.263566 5.347770 -2.396147
v 7.263566 5.347770 2.396147
v 5.347770 7.263566 -2.396147
v 5.347770 7.263566 2.396147
v 10.652231 8.736435 -2.396147
v 10.652231 8.736435 2.396147
v 8.736435 10.652231 -2.396147
v 8.736435 10.652231 2.396147
v -7.263566 5.347770 -2.396147
v -7.263566 5.347770 2.396147
v -5.347770 7.263566 -2.396147
v -5.347770 7.263566 2.396147
v -10.652230 8.736434 -2.396147
v -10.652230 8.736434 2.396147
v -8.736434 10.652230 -2.396147
v -8.736434 10.652230 2.396147
v 7.263566 -5.347770 -2.396147
v 7.263566 -5.347770 2.396147
v 5.347770 -7.263566 -2.396147
v 5.347770 -7.263566 2.396147
v 10.652230 -8.736434 -2.396147
v 10.652230 -8.736434 2.396147
v 8.736434 -10.652230 -2.396147
v 8.736434 -10.652230 2.396147
v -7.263567 -5.347769 -2.396147
v -7.263567 -5.347769 2.396147
v -5.347771 -7.263566 -2.396147
v -5.347771 -7.263566 2.396147
v -10.652232 -8.736434 -2.396147
v -10.652232 -8.736434 2.396147
v -8.736435 -10.652231 -2.396147
v -8.736435 -10.652231 2.396147
vn -0.7071 -0.7071 -0.0000
vn -0.7071 0.7071 -0.0000
vn 0.7071 0.7071 -0.0000
vn 0.7071 -0.7071 -0.0000
vn -0.0000 -0.0000 -1.0000
vn -0.0000 -0.0000 1.0000
vt 0.625000 0.000000
vt 0.375000 0.250000
vt 0.375000 0.000000
vt 0.625000 0.250000
vt 0.375000 0.500000
vt 0.625000 0.500000
vt 0.375000 0.750000
vt 0.625000 0.750000
vt 0.375000 1.000000
vt 0.125000 0.750000
vt 0.125000 0.500000
vt 0.875000 0.500000
vt 0.625000 1.000000
vt 0.875000 0.750000
s 0
f 34/19/11 35/20/11 33/21/11
f 36/22/12 39/23/12 35/20/12
f 40/24/13 37/25/13 39/23/13
f 38/26/14 33/27/14 37/25/14
f 39/23/15 33/28/15 35/29/15
f 36/30/16 38/26/16 40/24/16
f 43/20/14 42/19/14 41/21/14
f 47/23/13 44/22/13 43/20/13
f 45/25/12 48/24/12 47/23/12
f 41/27/11 46/26/11 45/25/11
f 41/28/15 47/23/15 43/29/15
f 46/26/16 44/30/16 48/24/16
f 51/20/12 50/19/12 49/21/12
f 55/23/11 52/22/11 51/20/11
f 53/25/14 56/24/14 55/23/14
f 49/27/13 54/26/13 53/25/13
f 49/28/15 55/23/15 51/29/15
f 54/26/16 52/30/16 56/24/16
f 58/19/13 59/20/13 57/21/13
f 60/22/14 63/23/14 59/20/14
f 64/24/11 61/25/11 63/23/11
f 62/26/12 57/27/12 61/25/12
f 63/23/15 57/28/15 59/29/15
f 60/30/16 62/26/16 64/24/16
f 34/19/11 36/22/11 35/20/11
f 36/22/12 40/24/12 39/23/12
f 40/24/13 38/26/13 37/25/13
f 38/26/14 34/31/14 33/27/14
f 39/23/15 37/25/15 33/28/15
f 36/30/16 34/32/16 38/26/16
f 43/20/14 44/22/14 42/19/14
f 47/23/13 48/24/13 44/22/13
f 45/25/12 46/26/12 48/24/12
f 41/27/11 42/31/11 46/26/11
f 41/28/15 45/25/15 47/23/15
f 46/26/16 42/32/16 44/30/16
f 51/20/12 52/22/12 50/19/12
f 55/23/11 56/24/11 52/22/11
f 53/25/14 54/26/14 56/24/14
f 49/27/13 50/31/13 54/26/13
f 49/28/15 53/25/15 55/23/15
f 54/26/16 50/32/16 52/30/16
f 58/19/13 60/22/13 59/20/13
f 60/22/14 64/24/14 63/23/14
f 64/24/11 62/26/11 61/25/11
f 62/26/12 58/31/12 57/27/12
f 63/23/15 61/25/15 57/28/15
f 60/30/16 58/32/16 62/26/16
