solid 
facet normal 0.10237991 -0.31509057 -0.94352335
 outer loop
  vertex -0.38042063 -0.28623062 0.080630064
  vertex -0.37834388 -0.2873753 0.081237674
  vertex -0.38108158 -0.28826484 0.081237674
 endloop
endfacet
facet normal 0.7002212 -0.26803133 -0.66170186
 outer loop
  vertex -0.22852384 -0.2926949 0.150699
  vertex -0.2313179 -0.2906649 0.14692003
  vertex -0.22770914 -0.2893235 0.1501955
 endloop
endfacet
facet normal -0.26803404 -0.1947359 -0.943523
 outer loop
  vertex -0.38108158 -0.28826484 0.081237674
  vertex -0.38526762 -0.28250334 0.0812377
  vertex -0.38042063 -0.28623062 0.080630064
 endloop
endfacet
facet normal 0.90498906 -0.26803213 -0.33038408
 outer loop
  vertex -0.22602518 -0.28788155 0.1536384
  vertex -0.19136207 -0.24922897 0.21722984
  vertex -0.18936259 -0.25538242 0.22769897
 endloop
endfacet
facet normal 0.904989 -0.26803163 -0.33038455
 outer loop
  vertex -0.22852384 -0.2926949 0.150699
  vertex -0.22770914 -0.2893235 0.1501955
  vertex -0.22602518 -0.28788155 0.1536384
 endloop
endfacet
facet normal 0.904989 -0.26803237 -0.330384
 outer loop
  vertex -0.22602518 -0.28788155 0.1536384
  vertex -0.18936259 -0.25538242 0.22769897
  vertex -0.22852384 -0.2926949 0.150699
 endloop
endfacet
facet normal 0.02474633 -0.94352144 -0.33038628
 outer loop
  vertex -0.35311082 -0.37435308 0.22769897
  vertex -0.40069786 -0.34863862 0.15069896
  vertex -0.3078514 -0.3414697 0.13718018
 endloop
endfacet
facet normal -0.88969725 -0.31509468 -0.33038482
 outer loop
  vertex -0.51685905 -0.25538242 0.22769897
  vertex -0.5071085 -0.20217822 0.15069969
  vertex -0.4715997 -0.28826514 0.13718042
 endloop
endfacet
facet normal 0.80260915 -0.5831263 -0.12562719
 outer loop
  vertex -0.25190893 -0.34147057 0.22769897
  vertex -0.22852384 -0.2926949 0.150699
  vertex -0.18936259 -0.25538242 0.22769897
 endloop
endfacet
facet normal -0.30656895 -0.94352156 -0.12562902
 outer loop
  vertex -0.4543127 -0.34147057 0.22769897
  vertex -0.40069786 -0.34863862 0.15069896
  vertex -0.35311082 -0.37435308 0.22769897
 endloop
endfacet
facet normal -0.9920774 -0 -0.1256284
 outer loop
  vertex -0.51685905 -0.25538242 0.22769897
  vertex -0.51685905 -0.14897405 0.22769897
  vertex -0.5071085 -0.20217822 0.15069969
 endloop
endfacet
facet normal 0.408946 -0.62842524 0.66169834
 outer loop
  vertex -0.32514006 -0.28826484 0.37416026
  vertex -0.30552375 -0.34863862 0.30469897
  vertex -0.23462191 -0.28826514 0.31821752
 endloop
endfacet
facet normal -0.47130004 -0.5831221 0.6616985
 outer loop
  vertex -0.42634067 -0.2553822 0.37416023
  vertex -0.47769776 -0.2926949 0.3046989
  vertex -0.39837024 -0.3414697 0.31821775
 endloop
endfacet
facet normal -0.70022416 0.26803187 0.6616986
 outer loop
  vertex -0.42634067 -0.14897424 0.37416023
  vertex -0.47769776 -0.11166157 0.3046989
  vertex -0.49957097 -0.20217822 0.31821746
 endloop
endfacet
facet normal 0.03853025 0.74877924 0.6616987
 outer loop
  vertex -0.32231888 -0.10740878 0.36417046
  vertex -0.34225363 -0.10365788 0.36108673
  vertex -0.32514006 -0.116091624 0.37416026
 endloop
endfacet
facet normal 0.7240422 0.19473557 0.66169554
 outer loop
  vertex -0.20541519 -0.19400512 0.30918878
  vertex -0.24631073 -0.15206565 0.3415949
  vertex -0.2625934 -0.20217822 0.37415978
 endloop
endfacet
facet normal 0.72404164 0.19473882 0.6616953
 outer loop
  vertex -0.2625934 -0.20217822 0.37415978
  vertex -0.19911312 -0.20217822 0.30469826
  vertex -0.20162272 -0.19609399 0.30565372
 endloop
endfacet
facet normal 0.7240429 0.19473264 0.6616956
 outer loop
  vertex -0.20541519 -0.19400512 0.30918878
  vertex -0.2625934 -0.20217822 0.37415978
  vertex -0.20162272 -0.19609399 0.30565372
 endloop
endfacet
facet normal 0.2680341 0.19473635 0.9435229
 outer loop
  vertex -0.32514006 -0.116091624 0.37416026
  vertex -0.35311082 -0.20217822 0.3998738
  vertex -0.2625934 -0.20217822 0.37415978
 endloop
endfacet
facet normal 0.49111944 0.356821 0.79465747
 outer loop
  vertex -0.30398682 -0.11609156 0.36108696
  vertex -0.32514006 -0.116091624 0.37416026
  vertex -0.2625934 -0.20217822 0.37415978
 endloop
endfacet
facet normal 0.49111897 0.35682082 0.7946579
 outer loop
  vertex -0.30398682 -0.11609156 0.36108696
  vertex -0.2625934 -0.20217822 0.37415978
  vertex -0.24631073 -0.15206565 0.3415949
 endloop
endfacet
facet normal 0.408946 0.6284255 0.66169816
 outer loop
  vertex -0.32231888 -0.10740878 0.36417046
  vertex -0.32514006 -0.116091624 0.37416026
  vertex -0.30398682 -0.11609156 0.36108696
 endloop
endfacet
facet normal -0.1023808 0.31508958 0.9435235
 outer loop
  vertex -0.42634067 -0.14897424 0.37416023
  vertex -0.35311082 -0.20217822 0.3998738
  vertex -0.32514006 -0.116091624 0.37416026
 endloop
endfacet
facet normal -0.18759444 0.5773457 0.79465723
 outer loop
  vertex -0.38251075 -0.10080941 0.34951374
  vertex -0.40769565 -0.09158861 0.33686912
  vertex -0.42634067 -0.14897424 0.37416023
 endloop
endfacet
facet normal -0.18759434 0.5773458 0.79465723
 outer loop
  vertex -0.42634067 -0.14897424 0.37416023
  vertex -0.32514006 -0.116091624 0.37416026
  vertex -0.34225363 -0.10365788 0.36108673
 endloop
endfacet
facet normal -0.18759432 0.57734567 0.7946574
 outer loop
  vertex -0.38251075 -0.10080941 0.34951374
  vertex -0.42634067 -0.14897424 0.37416023
  vertex -0.34225363 -0.10365788 0.36108673
 endloop
endfacet
facet normal -0.47129995 0.58312225 0.6616984
 outer loop
  vertex -0.43871763 -0.0876945 0.31134182
  vertex -0.47769776 -0.11166157 0.3046989
  vertex -0.42634067 -0.14897424 0.37416023
 endloop
endfacet
facet normal -0.47129923 0.5831226 0.66169864
 outer loop
  vertex -0.43871763 -0.0876945 0.31134182
  vertex -0.42634067 -0.14897424 0.37416023
  vertex -0.40769565 -0.09158861 0.33686912
 endloop
endfacet
facet normal -0.33130428 0 0.94352394
 outer loop
  vertex -0.42634067 -0.14897424 0.37416023
  vertex -0.42634067 -0.2553822 0.37416023
  vertex -0.35311082 -0.20217822 0.3998738
 endloop
endfacet
facet normal -0.6070607 0 0.7946555
 outer loop
  vertex -0.49957097 -0.20217822 0.31821746
  vertex -0.42634067 -0.2553822 0.37416023
  vertex -0.42634067 -0.14897424 0.37416023
 endloop
endfacet
facet normal -0.7002241 -0.2680318 0.6616987
 outer loop
  vertex -0.42634067 -0.2553822 0.37416023
  vertex -0.49957097 -0.20217822 0.31821746
  vertex -0.47769776 -0.2926949 0.3046989
 endloop
endfacet
facet normal -0.10238082 -0.31508955 0.9435236
 outer loop
  vertex -0.35311082 -0.20217822 0.3998738
  vertex -0.42634067 -0.2553822 0.37416023
  vertex -0.32514006 -0.28826484 0.37416026
 endloop
endfacet
facet normal -0.18759428 -0.5773453 0.7946577
 outer loop
  vertex -0.42634067 -0.2553822 0.37416023
  vertex -0.39837024 -0.3414697 0.31821775
  vertex -0.32514006 -0.28826484 0.37416026
 endloop
endfacet
facet normal 0.038530536 -0.748779 0.6616988
 outer loop
  vertex -0.32514006 -0.28826484 0.37416026
  vertex -0.39837024 -0.3414697 0.31821775
  vertex -0.30552375 -0.34863862 0.30469897
 endloop
endfacet
facet normal 0.26803407 -0.19473629 0.9435229
 outer loop
  vertex -0.35311082 -0.20217822 0.3998738
  vertex -0.32514006 -0.28826484 0.37416026
  vertex -0.2625934 -0.20217822 0.37415978
 endloop
endfacet
facet normal 0.49111938 -0.3568209 0.7946575
 outer loop
  vertex -0.2625934 -0.20217822 0.37415978
  vertex -0.32514006 -0.28826484 0.37416026
  vertex -0.23462191 -0.28826514 0.31821752
 endloop
endfacet
facet normal 0.724042 -0.19473608 0.6616956
 outer loop
  vertex -0.23462191 -0.28826514 0.31821752
  vertex -0.19911312 -0.20217822 0.30469826
  vertex -0.2625934 -0.20217822 0.37415978
 endloop
endfacet
facet normal 0.8896974 0.31509706 0.3303825
 outer loop
  vertex -0.19911312 -0.20217822 0.30469826
  vertex -0.19857052 -0.19921747 0.3004133
  vertex -0.20162272 -0.19609399 0.30565372
 endloop
endfacet
facet normal -0.5345763 0.7778643 0.3303867
 outer loop
  vertex -0.47769776 -0.11166157 0.3046989
  vertex -0.43871763 -0.0876945 0.31134182
  vertex -0.46864992 -0.09278992 0.27490708
 endloop
endfacet
facet normal -0.90498894 0.26803166 0.3303848
 outer loop
  vertex -0.49957097 -0.20217822 0.31821746
  vertex -0.47769776 -0.11166157 0.3046989
  vertex -0.51685905 -0.14897405 0.22769897
 endloop
endfacet
facet normal -0.98224574 0 0.1875987
 outer loop
  vertex -0.49957097 -0.20217822 0.31821746
  vertex -0.51685905 -0.14897405 0.22769897
  vertex -0.51685905 -0.25538242 0.22769897
 endloop
endfacet
facet normal -0.90498894 -0.26803163 0.33038482
 outer loop
  vertex -0.47769776 -0.2926949 0.3046989
  vertex -0.49957097 -0.20217822 0.31821746
  vertex -0.51685905 -0.25538242 0.22769897
 endloop
endfacet
facet normal -0.5345764 -0.7778642 0.33038664
 outer loop
  vertex -0.4543127 -0.34147057 0.22769897
  vertex -0.39837024 -0.3414697 0.31821775
  vertex -0.47769776 -0.2926949 0.3046989
 endloop
endfacet
facet normal -0.30353093 -0.9341715 0.18759729
 outer loop
  vertex -0.4543127 -0.34147057 0.22769897
  vertex -0.35311082 -0.37435308 0.22769897
  vertex -0.39837024 -0.3414697 0.31821775
 endloop
endfacet
facet normal -0.02474632 -0.9435213 0.33038625
 outer loop
  vertex -0.35311082 -0.37435308 0.22769897
  vertex -0.30552375 -0.34863862 0.30469897
  vertex -0.39837024 -0.3414697 0.31821775
 endloop
endfacet
facet normal 0.57460165 -0.7487836 0.33038756
 outer loop
  vertex -0.30552375 -0.34863862 0.30469897
  vertex -0.25190893 -0.34147057 0.22769897
  vertex -0.23462191 -0.28826514 0.31821752
 endloop
endfacet
facet normal 0.7946556 -0.5773478 0.18759485
 outer loop
  vertex -0.23462191 -0.28826514 0.31821752
  vertex -0.25190893 -0.34147057 0.22769897
  vertex -0.18936259 -0.25538242 0.22769897
 endloop
endfacet
facet normal 0.8896973 -0.31509465 0.33038455
 outer loop
  vertex -0.23462191 -0.28826514 0.31821752
  vertex -0.18936259 -0.25538242 0.22769897
  vertex -0.19911312 -0.20217822 0.30469826
 endloop
endfacet
facet normal -0.8026091 0.5831263 0.12562768
 outer loop
  vertex -0.51685905 -0.14897405 0.22769897
  vertex -0.47769776 -0.11166157 0.3046989
  vertex -0.46864992 -0.09278992 0.27490708
 endloop
endfacet
facet normal -0.8026091 0.5831263 0.12562758
 outer loop
  vertex -0.51685905 -0.14897405 0.22769897
  vertex -0.46864992 -0.09278992 0.27490708
  vertex -0.49015728 -0.11222199 0.22769897
 endloop
endfacet
facet normal -0.79465574 0.57734793 -0.18759434
 outer loop
  vertex -0.51685905 -0.14897405 0.22769897
  vertex -0.49015728 -0.11222199 0.22769897
  vertex -0.49780226 -0.1351285 0.18958537
 endloop
endfacet
facet normal -0.8896976 0.31509408 -0.33038437
 outer loop
  vertex -0.5071085 -0.20217822 0.15069969
  vertex -0.51685905 -0.14897405 0.22769897
  vertex -0.49780226 -0.1351285 0.18958537
 endloop
endfacet
facet normal -0.8896974 0.31509432 -0.33038482
 outer loop
  vertex -0.5071085 -0.20217822 0.15069969
  vertex -0.49780226 -0.1351285 0.18958537
  vertex -0.49413332 -0.17072138 0.14575964
 endloop
endfacet
facet normal -0.80260915 -0.58312637 0.12562768
 outer loop
  vertex -0.47769776 -0.2926949 0.3046989
  vertex -0.51685905 -0.25538242 0.22769897
  vertex -0.4543127 -0.34147057 0.22769897
 endloop
endfacet
facet normal -0.7946556 -0.5773478 -0.18759511
 outer loop
  vertex -0.4543127 -0.34147057 0.22769897
  vertex -0.51685905 -0.25538242 0.22769897
  vertex -0.4715997 -0.28826514 0.13718042
 endloop
endfacet
facet normal -0.57460165 -0.74878365 -0.33038783
 outer loop
  vertex -0.4543127 -0.34147057 0.22769897
  vertex -0.4715997 -0.28826514 0.13718042
  vertex -0.40069786 -0.34863862 0.15069896
 endloop
endfacet
facet normal 0.30656895 -0.94352156 0.12562892
 outer loop
  vertex -0.35311082 -0.37435308 0.22769897
  vertex -0.25190893 -0.34147057 0.22769897
  vertex -0.30552375 -0.34863862 0.30469897
 endloop
endfacet
facet normal 0.3035309 -0.9341715 -0.18759727
 outer loop
  vertex -0.35311082 -0.37435308 0.22769897
  vertex -0.3078514 -0.3414697 0.13718018
  vertex -0.25190893 -0.34147057 0.22769897
 endloop
endfacet
facet normal 0.5345762 -0.77786446 -0.3303865
 outer loop
  vertex -0.25190893 -0.34147057 0.22769897
  vertex -0.3078514 -0.3414697 0.13718018
  vertex -0.22852384 -0.2926949 0.150699
 endloop
endfacet
facet normal 0.9920776 2.2005447e-06 0.12562668
 outer loop
  vertex -0.19857052 -0.19921747 0.3004133
  vertex -0.19911312 -0.20217822 0.30469826
  vertex -0.18936259 -0.25538242 0.22769897
 endloop
endfacet
facet normal 0.9920774 0 0.12562835
 outer loop
  vertex -0.19857052 -0.19921747 0.3004133
  vertex -0.18936259 -0.25538242 0.22769897
  vertex -0.18936259 -0.24290432 0.22769897
 endloop
endfacet
facet normal 0.98224604 0 -0.18759772
 outer loop
  vertex -0.18936259 -0.25538242 0.22769897
  vertex -0.19136207 -0.24922897 0.21722984
  vertex -0.18936259 -0.24290432 0.22769897
 endloop
endfacet
facet normal -0.7240406 0.19473489 -0.66169745
 outer loop
  vertex -0.5071085 -0.20217822 0.15069969
  vertex -0.49413332 -0.17072138 0.14575964
  vertex -0.49047342 -0.17806336 0.1395942
 endloop
endfacet
facet normal -0.72404206 0.19473681 -0.66169536
 outer loop
  vertex -0.5071085 -0.20217822 0.15069969
  vertex -0.49047342 -0.17806336 0.1395942
  vertex -0.47444642 -0.20217822 0.11496009
 endloop
endfacet
facet normal -0.7240421 -0.19473615 -0.6616955
 outer loop
  vertex -0.4715997 -0.28826514 0.13718042
  vertex -0.5071085 -0.20217822 0.15069969
  vertex -0.47444642 -0.20217822 0.11496009
 endloop
endfacet
facet normal -0.7240422 -0.19473611 -0.66169536
 outer loop
  vertex -0.4715997 -0.28826514 0.13718042
  vertex -0.47444642 -0.20217822 0.11496009
  vertex -0.4517672 -0.22722724 0.09751587
 endloop
endfacet
facet normal -0.49111947 -0.35682094 -0.7946574
 outer loop
  vertex -0.38108158 -0.28826484 0.081237674
  vertex -0.4715997 -0.28826514 0.13718042
  vertex -0.4517672 -0.22722724 0.09751587
 endloop
endfacet
facet normal -0.4911188 -0.35681963 -0.7946584
 outer loop
  vertex -0.38108158 -0.28826484 0.081237674
  vertex -0.4517672 -0.22722724 0.09751587
  vertex -0.38526762 -0.28250334 0.0812377
 endloop
endfacet
facet normal -0.4089461 -0.6284253 -0.6616983
 outer loop
  vertex -0.4715997 -0.28826514 0.13718042
  vertex -0.38108158 -0.28826484 0.081237674
  vertex -0.40069786 -0.34863862 0.15069896
 endloop
endfacet
facet normal -0.038530543 -0.7487791 -0.6616988
 outer loop
  vertex -0.40069786 -0.34863862 0.15069896
  vertex -0.38108158 -0.28826484 0.081237674
  vertex -0.3078514 -0.3414697 0.13718018
 endloop
endfacet
facet normal 0.18759473 -0.5773452 -0.79465765
 outer loop
  vertex -0.30360729 -0.30468512 0.11145686
  vertex -0.2957329 -0.30417123 0.11294242
  vertex -0.3078514 -0.3414697 0.13718018
 endloop
endfacet
facet normal 0.18759273 -0.5773467 -0.794657
 outer loop
  vertex -0.3078514 -0.3414697 0.13718018
  vertex -0.38108158 -0.28826484 0.081237674
  vertex -0.37834388 -0.2873753 0.081237674
 endloop
endfacet
facet normal 0.18759441 -0.57734513 -0.7946577
 outer loop
  vertex -0.3689692 -0.29132372 0.08631942
  vertex -0.30360729 -0.30468512 0.11145686
  vertex -0.3078514 -0.3414697 0.13718018
 endloop
endfacet
facet normal 0.1875963 -0.5773437 -0.7946584
 outer loop
  vertex -0.3078514 -0.3414697 0.13718018
  vertex -0.37834388 -0.2873753 0.081237674
  vertex -0.3689692 -0.29132372 0.08631942
 endloop
endfacet
facet normal 0.47129956 -0.5831219 -0.661699
 outer loop
  vertex -0.22852384 -0.2926949 0.150699
  vertex -0.3078514 -0.3414697 0.13718018
  vertex -0.2957329 -0.30417123 0.11294242
 endloop
endfacet
facet normal 0.47130048 -0.58311754 -0.6617022
 outer loop
  vertex -0.22852384 -0.2926949 0.150699
  vertex -0.2957329 -0.30417123 0.11294242
  vertex -0.2313179 -0.2906649 0.14692003
 endloop
endfacet
facet normal 0.10238107 -0.3150899 -0.9435234
 outer loop
  vertex -0.061323863 0.5287097 -1.965822
  vertex 0.4676239 0.14441118 -1.7800896
  vertex -0.2633599 -0.09310376 -1.78009
 endloop
endfacet
facet normal 0.700224 -0.26803192 -0.66169876
 outer loop
  vertex 0.8385822 -0.1251026 -1.2783625
  vertex 0.4676239 0.14441118 -1.7800896
  vertex 0.99657476 0.5287097 -1.3760087
 endloop
endfacet
facet normal -0.26803446 -0.19473648 -0.9435228
 outer loop
  vertex -0.061323863 0.5287097 -1.965822
  vertex -0.2633599 -0.09310376 -1.78009
  vertex -0.7151419 0.5287097 -1.7800864
 endloop
endfacet
facet normal -0.26803446 0.19473644 -0.9435228
 outer loop
  vertex -0.061323863 0.5287097 -1.965822
  vertex -0.7151419 0.5287097 -1.7800864
  vertex -0.2633599 1.1505233 -1.78009
 endloop
endfacet
facet normal 0.102381065 0.31508988 -0.9435234
 outer loop
  vertex -0.061323863 0.5287097 -1.965822
  vertex -0.2633599 1.1505233 -1.78009
  vertex 0.4676239 0.91300833 -1.7800896
 endloop
endfacet
facet normal 0.96168095 -0.24939758 -0.113888465
 outer loop
  vertex 0.8385822 -0.1251026 -1.2783625
  vertex 0.99657476 0.5287097 -1.3760087
  vertex 1.0042263 0.182497 -0.5532478
 endloop
endfacet
facet normal 0.05998779 -0.9916806 -0.11389015
 outer loop
  vertex -0.40505072 -0.5291907 -1.278363
  vertex 0.26559004 -0.47740856 -1.3760107
  vertex -0.0613237 -0.5916745 -0.5532486
 endloop
endfacet
facet normal -0.9246087 -0.36349395 -0.11388987
 outer loop
  vertex -1.1736672 0.5287097 -1.2783579
  vertex -0.91718286 -0.09310585 -1.3760089
  vertex -1.1268755 0.18249638 -0.5532499
 endloop
endfacet
facet normal -0.6314197 0.76703227 -0.11388891
 outer loop
  vertex -0.40505072 1.5866102 -1.278363
  vertex -0.91718286 1.1505253 -1.3760089
  vertex -0.71986854 1.435118 -0.55324614
 endloop
endfacet
facet normal 0.534373 0.83754086 -0.11388903
 outer loop
  vertex 0.8385822 1.1825222 -1.2783625
  vertex 0.26559004 1.534828 -1.3760107
  vertex 0.5972212 1.4351183 -0.5532463
 endloop
endfacet
facet normal 0.8073384 -0.58656424 0.06439823
 outer loop
  vertex 0.8385822 -0.1251026 -1.2783625
  vertex 1.0042263 0.182497 -0.5532478
  vertex 0.5972212 -0.37769872 -0.5532463
 endloop
endfacet
facet normal -0.30837768 -0.9490817 0.064397454
 outer loop
  vertex -0.40505072 -0.5291907 -1.278363
  vertex -0.0613237 -0.5916745 -0.5532486
  vertex -0.71986854 -0.37769854 -0.55324614
 endloop
endfacet
facet normal -0.9979243 0 0.06439669
 outer loop
  vertex -1.1736672 0.5287097 -1.2783579
  vertex -1.1268755 0.18249638 -0.5532499
  vertex -1.1268755 0.8749231 -0.5532499
 endloop
endfacet
facet normal -0.3083779 0.9490816 0.06439741
 outer loop
  vertex -0.40505072 1.5866102 -1.278363
  vertex -0.71986854 1.435118 -0.55324614
  vertex -0.0613237 1.6490941 -0.5532486
 endloop
endfacet
facet normal 0.8073384 0.5865642 0.06439822
 outer loop
  vertex 0.8385822 1.1825222 -1.2783625
  vertex 0.5972212 1.4351183 -0.5532463
  vertex 1.0042263 0.87492245 -0.5532478
 endloop
endfacet
facet normal 0.49627414 -0.6983154 0.51581746
 outer loop
  vertex 0.4868151 -0.088323124 0.14423001
  vertex 0.485991 -0.09124317 0.14106971
  vertex 0.6268658 0.028712902 0.16792929
 endloop
endfacet
facet normal 0.49627566 -0.69831675 0.5158142
 outer loop
  vertex 0.21506445 -0.32193935 0.08941411
  vertex 0.30244064 -0.24753784 0.10607349
  vertex 0.2944363 -0.24906558 0.11170635
 endloop
endfacet
facet normal 0.49627638 -0.6983171 0.5158129
 outer loop
  vertex 0.21506445 -0.32193935 0.08941411
  vertex 0.2944363 -0.24906558 0.11170635
  vertex 0.26454136 -0.24666947 0.14371292
 endloop
endfacet
facet normal 0.4962764 -0.69831705 0.5158129
 outer loop
  vertex 0.47695118 -0.06288759 0.18815543
  vertex 0.4868151 -0.088323124 0.14423001
  vertex 0.6268658 0.028712902 0.16792929
 endloop
endfacet
facet normal 0.4962764 -0.69831717 0.5158129
 outer loop
  vertex 0.45641428 -0.048273724 0.22769901
  vertex 0.47695118 -0.06288759 0.18815543
  vertex 0.6268658 0.028712902 0.16792929
 endloop
endfacet
facet normal 0.49627647 -0.6983171 0.5158128
 outer loop
  vertex 0.21506445 -0.32193935 0.08941411
  vertex 0.26454136 -0.24666947 0.14371292
  vertex 0.24123986 -0.22919199 0.18979323
 endloop
endfacet
facet normal 0.4962754 -0.69831747 0.51581335
 outer loop
  vertex 0.21506445 -0.32193935 0.08941411
  vertex 0.24123986 -0.22919199 0.18979323
  vertex 0.23643976 -0.20460412 0.22769901
 endloop
endfacet
facet normal 0.4962764 -0.69831705 0.51581293
 outer loop
  vertex 0.45641428 -0.048273724 0.22769901
  vertex 0.6268658 0.028712902 0.16792929
  vertex 0.10113202 0.028714545 0.673753
 endloop
endfacet
facet normal 0.4962815 -0.6983114 0.5158158
 outer loop
  vertex 0.42399094 -0.042866956 0.26621413
  vertex 0.45641428 -0.048273724 0.22769901
  vertex 0.10113202 0.028714545 0.673753
 endloop
endfacet
facet normal 0.4962764 -0.6983171 0.51581293
 outer loop
  vertex 0.10113202 0.028714545 0.673753
  vertex 0.21506445 -0.32193935 0.08941411
  vertex 0.23643976 -0.20460412 0.22769901
 endloop
endfacet
facet normal 0.49627647 -0.69831705 0.51581293
 outer loop
  vertex 0.10113202 0.028714545 0.673753
  vertex 0.23643976 -0.20460412 0.22769901
  vertex 0.24370609 -0.17133756 0.26574478
 endloop
endfacet
facet normal 0.49627617 -0.69831735 0.5158128
 outer loop
  vertex 0.36119232 -0.05833715 0.30569038
  vertex 0.42399094 -0.042866956 0.26621413
  vertex 0.10113202 0.028714545 0.673753
 endloop
endfacet
facet normal 0.49627692 -0.69831663 0.5158132
 outer loop
  vertex 0.3500212 -0.06288801 0.31027734
  vertex 0.36119232 -0.05833715 0.30569038
  vertex 0.10113202 0.028714545 0.673753
 endloop
endfacet
facet normal 0.49627626 -0.69831717 0.515813
 outer loop
  vertex 0.10113202 0.028714545 0.673753
  vertex 0.24370609 -0.17133756 0.26574478
  vertex 0.27348107 -0.120435864 0.3060092
 endloop
endfacet
facet normal 0.49627686 -0.69831663 0.51581305
 outer loop
  vertex 0.10113202 0.028714545 0.673753
  vertex 0.27348107 -0.120435864 0.3060092
  vertex 0.2789809 -0.11411845 0.3092703
 endloop
endfacet
facet normal 0.49627647 -0.69831693 0.515813
 outer loop
  vertex 0.31274185 -0.08882672 0.31102845
  vertex 0.3500212 -0.06288801 0.31027734
  vertex 0.10113202 0.028714545 0.673753
 endloop
endfacet
facet normal 0.49627653 -0.69831693 0.515813
 outer loop
  vertex 0.10113202 0.028714545 0.673753
  vertex 0.2789809 -0.11411845 0.3092703
  vertex 0.31274185 -0.08882672 0.31102845
 endloop
endfacet
facet normal -0.510786 -0.6877754 0.5158126
 outer loop
  vertex -0.40769565 -0.09158861 0.33686912
  vertex -0.38251075 -0.10080941 0.34951374
  vertex -0.48664615 0.2196984 0.6737526
 endloop
endfacet
facet normal -0.510786 -0.68777597 0.515812
 outer loop
  vertex -0.78493065 0.0029845175 0.08941264
  vertex -0.49047342 -0.17806336 0.1395942
  vertex -0.49413332 -0.17072138 0.14575964
 endloop
endfacet
facet normal -0.5107858 -0.6877754 0.51581275
 outer loop
  vertex -0.78493065 0.0029845175 0.08941264
  vertex -0.49413332 -0.17072138 0.14575964
  vertex -0.49780226 -0.1351285 0.18958537
 endloop
endfacet
facet normal -0.5107859 -0.6877755 0.51581275
 outer loop
  vertex -0.40769565 -0.09158861 0.33686912
  vertex -0.48664615 0.2196984 0.6737526
  vertex -0.78493065 0.0029845175 0.08941264
 endloop
endfacet
facet normal -0.5107863 -0.6877741 0.515814
 outer loop
  vertex -0.43871763 -0.0876945 0.31134182
  vertex -0.40769565 -0.09158861 0.33686912
  vertex -0.78493065 0.0029845175 0.08941264
 endloop
endfacet
facet normal -0.5107859 -0.6877754 0.5158128
 outer loop
  vertex -0.78493065 0.0029845175 0.08941264
  vertex -0.49780226 -0.1351285 0.18958537
  vertex -0.49015728 -0.11222199 0.22769897
 endloop
endfacet
facet normal -0.5107857 -0.6877758 0.51581234
 outer loop
  vertex -0.46864992 -0.09278992 0.27490708
  vertex -0.43871763 -0.0876945 0.31134182
  vertex -0.78493065 0.0029845175 0.08941264
 endloop
endfacet
facet normal -0.5107858 -0.6877753 0.5158129
 outer loop
  vertex -0.78493065 0.0029845175 0.08941264
  vertex -0.49015728 -0.11222199 0.22769897
  vertex -0.46864992 -0.09278992 0.27490708
 endloop
endfacet
facet normal -0.81195843 0.2732416 0.51581246
 outer loop
  vertex -0.78493065 1.054435 0.08941264
  vertex -0.9119712 0.5287097 0.16792637
  vertex -0.48664615 0.8377211 0.6737526
 endloop
endfacet
facet normal 0.008959308 0.85665405 0.5158135
 outer loop
  vertex 0.21506445 1.3793589 0.08941411
  vertex -0.32419232 1.3377211 0.1679319
  vertex 0.10113202 1.0287049 0.673753
 endloop
endfacet
facet normal 0.8175004 0.2561931 0.5158083
 outer loop
  vertex 0.8331026 0.5287097 0.08940609
  vertex 0.6268658 1.0287066 0.16792929
  vertex 0.46440616 0.5287097 0.67375016
 endloop
endfacet
facet normal 0.27183977 0.19750121 0.9418579
 outer loop
  vertex 0.46440616 0.5287097 0.67375016
  vertex 0.10113202 1.0287049 0.673753
  vertex -0.061323512 0.5287097 0.82548666
 endloop
endfacet
facet normal 0.61920375 0.44988206 0.6435781
 outer loop
  vertex 0.46440616 0.5287097 0.67375016
  vertex 0.6268658 1.0287066 0.16792929
  vertex 0.10113202 1.0287049 0.673753
 endloop
endfacet
facet normal 0.49627647 0.69831693 0.51581305
 outer loop
  vertex 0.6268658 1.0287066 0.16792929
  vertex 0.21506445 1.3793589 0.08941411
  vertex 0.10113202 1.0287049 0.673753
 endloop
endfacet
facet normal -0.103834786 0.3195634 0.9418586
 outer loop
  vertex 0.10113202 1.0287049 0.673753
  vertex -0.48664615 0.8377211 0.6737526
  vertex -0.061323512 0.5287097 0.82548666
 endloop
endfacet
facet normal -0.23651917 0.727918 0.64357907
 outer loop
  vertex 0.10113202 1.0287049 0.673753
  vertex -0.32419232 1.3377211 0.1679319
  vertex -0.48664615 0.8377211 0.6737526
 endloop
endfacet
facet normal -0.5107856 0.6877757 0.5158127
 outer loop
  vertex -0.32419232 1.3377211 0.1679319
  vertex -0.78493065 1.054435 0.08941264
  vertex -0.48664615 0.8377211 0.6737526
 endloop
endfacet
facet normal -0.33600864 0 0.94185895
 outer loop
  vertex -0.48664615 0.8377211 0.6737526
  vertex -0.48664615 0.2196984 0.6737526
  vertex -0.061323512 0.5287097 0.82548666
 endloop
endfacet
facet normal -0.76538354 0 0.64357436
 outer loop
  vertex -0.48664615 0.8377211 0.6737526
  vertex -0.9119712 0.5287097 0.16792637
  vertex -0.48664615 0.2196984 0.6737526
 endloop
endfacet
facet normal -0.81195843 -0.27324167 0.51581246
 outer loop
  vertex -0.9119712 0.5287097 0.16792637
  vertex -0.78493065 0.0029845175 0.08941264
  vertex -0.48664615 0.2196984 0.6737526
 endloop
endfacet
facet normal -0.103834845 -0.31956342 0.9418586
 outer loop
  vertex -0.48664615 0.2196984 0.6737526
  vertex 0.10113202 0.028714545 0.673753
  vertex -0.061323512 0.5287097 0.82548666
 endloop
endfacet
facet normal -0.23651928 -0.72791785 0.64357924
 outer loop
  vertex -0.24631073 -0.15206565 0.3415949
  vertex -0.20541519 -0.19400512 0.30918878
  vertex 0.10113202 0.028714545 0.673753
 endloop
endfacet
facet normal -0.23651926 -0.72791797 0.6435792
 outer loop
  vertex 0.10113202 0.028714545 0.673753
  vertex -0.48664615 0.2196984 0.6737526
  vertex -0.38251075 -0.10080941 0.34951374
 endloop
endfacet
facet normal -0.23651926 -0.727918 0.6435792
 outer loop
  vertex 0.10113202 0.028714545 0.673753
  vertex -0.38251075 -0.10080941 0.34951374
  vertex -0.34225363 -0.10365788 0.36108673
 endloop
endfacet
facet normal -0.2365192 -0.7279179 0.6435791
 outer loop
  vertex -0.30398682 -0.11609156 0.36108696
  vertex -0.24631073 -0.15206565 0.3415949
  vertex 0.10113202 0.028714545 0.673753
 endloop
endfacet
facet normal -0.23652035 -0.7279167 0.6435802
 outer loop
  vertex 0.10113202 0.028714545 0.673753
  vertex -0.34225363 -0.10365788 0.36108673
  vertex -0.32231888 -0.10740878 0.36417046
 endloop
endfacet
facet normal -0.23651893 -0.72791827 0.6435789
 outer loop
  vertex 0.10113202 0.028714545 0.673753
  vertex -0.32231888 -0.10740878 0.36417046
  vertex -0.30398682 -0.11609156 0.36108696
 endloop
endfacet
facet normal 0.008959629 -0.856654 0.51581347
 outer loop
  vertex -0.19136207 -0.24922897 0.21722984
  vertex -0.22602518 -0.28788155 0.1536384
  vertex 0.21506445 -0.32193935 0.08941411
 endloop
endfacet
facet normal 0.008959651 -0.85665405 0.51581347
 outer loop
  vertex 0.21506445 -0.32193935 0.08941411
  vertex 0.10113202 0.028714545 0.673753
  vertex -0.20541519 -0.19400512 0.30918878
 endloop
endfacet
facet normal 0.008956114 -0.856657 0.51580846
 outer loop
  vertex 0.21506445 -0.32193935 0.08941411
  vertex -0.20541519 -0.19400512 0.30918878
  vertex -0.20162272 -0.19609399 0.30565372
 endloop
endfacet
facet normal 0.008959809 -0.85665375 0.5158139
 outer loop
  vertex -0.18936259 -0.24290432 0.22769897
  vertex -0.19136207 -0.24922897 0.21722984
  vertex 0.21506445 -0.32193935 0.08941411
 endloop
endfacet
facet normal 0.008961278 -0.8566527 0.5158158
 outer loop
  vertex 0.21506445 -0.32193935 0.08941411
  vertex -0.20162272 -0.19609399 0.30565372
  vertex -0.19857052 -0.19921747 0.3004133
 endloop
endfacet
facet normal 0.008959492 -0.85665417 0.5158133
 outer loop
  vertex 0.21506445 -0.32193935 0.08941411
  vertex -0.19857052 -0.19921747 0.3004133
  vertex -0.18936259 -0.24290432 0.22769897
 endloop
endfacet
facet normal 0.27183977 -0.19750121 0.9418579
 outer loop
  vertex 0.10113202 0.028714545 0.673753
  vertex 0.46440616 0.5287097 0.67375016
  vertex -0.061323512 0.5287097 0.82548666
 endloop
endfacet
facet normal 0.61920375 -0.44988206 0.6435781
 outer loop
  vertex 0.10113202 0.028714545 0.673753
  vertex 0.6268658 0.028712902 0.16792929
  vertex 0.46440616 0.5287097 0.67375016
 endloop
endfacet
facet normal 0.8175004 -0.25619313 0.5158082
 outer loop
  vertex 0.6268658 0.028712902 0.16792929
  vertex 0.8331026 0.5287097 0.08940609
  vertex 0.46440616 0.5287097 0.67375016
 endloop
endfacet
facet normal 0.87050897 0.29749188 0.3920621
 outer loop
  vertex 1.0042263 0.87492245 -0.5532478
  vertex 0.6268658 1.0287066 0.16792929
  vertex 0.8331026 0.5287097 0.08940609
 endloop
endfacet
facet normal 0.7753275 0.5633063 0.28557542
 outer loop
  vertex 1.0042263 0.87492245 -0.5532478
  vertex 0.5972212 1.4351183 -0.5532463
  vertex 0.6268658 1.0287066 0.16792929
 endloop
endfacet
facet normal 0.55193484 0.73597217 0.3920624
 outer loop
  vertex 0.5972212 1.4351183 -0.5532463
  vertex 0.21506445 1.3793589 0.08941411
  vertex 0.6268658 1.0287066 0.16792929
 endloop
endfacet
facet normal -0.013937653 0.9198332 0.392062
 outer loop
  vertex -0.0613237 1.6490941 -0.5532486
  vertex -0.32419232 1.3377211 0.1679319
  vertex 0.21506445 1.3793589 0.08941411
 endloop
endfacet
facet normal -0.29614973 0.91144997 0.28557685
 outer loop
  vertex -0.0613237 1.6490941 -0.5532486
  vertex -0.71986854 1.435118 -0.55324614
  vertex -0.32419232 1.3377211 0.1679319
 endloop
endfacet
facet normal -0.52939767 0.7523468 0.3920617
 outer loop
  vertex -0.71986854 1.435118 -0.55324614
  vertex -0.78493065 1.054435 0.08941264
  vertex -0.32419232 1.3377211 0.1679319
 endloop
endfacet
facet normal -0.87911934 0.27098978 0.3920634
 outer loop
  vertex -1.1268755 0.8749231 -0.5532499
  vertex -0.9119712 0.5287097 0.16792637
  vertex -0.78493065 1.054435 0.08941264
 endloop
endfacet
facet normal -0.9583545 0 0.28558138
 outer loop
  vertex -1.1268755 0.8749231 -0.5532499
  vertex -1.1268755 0.18249638 -0.5532499
  vertex -0.9119712 0.5287097 0.16792637
 endloop
endfacet
facet normal -0.8791193 -0.27098984 0.39206344
 outer loop
  vertex -1.1268755 0.18249638 -0.5532499
  vertex -0.78493065 0.0029845175 0.08941264
  vertex -0.9119712 0.5287097 0.16792637
 endloop
endfacet
facet normal -0.52939796 -0.7523469 0.3920612
 outer loop
  vertex -0.47444642 -0.20217822 0.11496009
  vertex -0.49047342 -0.17806336 0.1395942
  vertex -0.78493065 0.0029845175 0.08941264
 endloop
endfacet
facet normal -0.52939814 -0.75234646 0.3920618
 outer loop
  vertex -0.71986854 -0.37769854 -0.55324614
  vertex -0.3689692 -0.29132372 0.08631942
  vertex -0.37834388 -0.2873753 0.081237674
 endloop
endfacet
facet normal -0.5293945 -0.75234973 0.39206034
 outer loop
  vertex -0.71986854 -0.37769854 -0.55324614
  vertex -0.37834388 -0.2873753 0.081237674
  vertex -0.38042063 -0.28623062 0.080630064
 endloop
endfacet
facet normal -0.5293979 -0.75234663 0.3920617
 outer loop
  vertex -0.47444642 -0.20217822 0.11496009
  vertex -0.78493065 0.0029845175 0.08941264
  vertex -0.71986854 -0.37769854 -0.55324614
 endloop
endfacet
facet normal -0.5293981 -0.7523465 0.39206177
 outer loop
  vertex -0.4517672 -0.22722724 0.09751587
  vertex -0.47444642 -0.20217822 0.11496009
  vertex -0.71986854 -0.37769854 -0.55324614
 endloop
endfacet
facet normal -0.5293971 -0.7523473 0.39206138
 outer loop
  vertex -0.71986854 -0.37769854 -0.55324614
  vertex -0.38042063 -0.28623062 0.080630064
  vertex -0.38526762 -0.28250334 0.0812377
 endloop
endfacet
facet normal -0.5293978 -0.7523467 0.3920617
 outer loop
  vertex -0.71986854 -0.37769854 -0.55324614
  vertex -0.38526762 -0.28250334 0.0812377
  vertex -0.4517672 -0.22722724 0.09751587
 endloop
endfacet
facet normal -0.29614952 -0.9114502 0.28557667
 outer loop
  vertex -0.3689692 -0.29132372 0.08631942
  vertex -0.71986854 -0.37769854 -0.55324614
  vertex -0.0613237 -0.5916745 -0.5532486
 endloop
endfacet
facet normal -0.29614976 -0.91145015 0.28557652
 outer loop
  vertex -0.3689692 -0.29132372 0.08631942
  vertex -0.0613237 -0.5916745 -0.5532486
  vertex -0.30360729 -0.30468512 0.11145686
 endloop
endfacet
facet normal -0.013936916 -0.91983324 0.39206192
 outer loop
  vertex -0.2957329 -0.30417123 0.11294242
  vertex -0.30360729 -0.30468512 0.11145686
  vertex -0.0613237 -0.5916745 -0.5532486
 endloop
endfacet
facet normal -0.0139373215 -0.91983324 0.39206177
 outer loop
  vertex -0.0613237 -0.5916745 -0.5532486
  vertex 0.21506445 -0.32193935 0.08941411
  vertex -0.22602518 -0.28788155 0.1536384
 endloop
endfacet
facet normal -0.013937379 -0.9198333 0.39206174
 outer loop
  vertex -0.0613237 -0.5916745 -0.5532486
  vertex -0.22602518 -0.28788155 0.1536384
  vertex -0.22770914 -0.2893235 0.1501955
 endloop
endfacet
facet normal -0.013937099 -0.91983324 0.39206186
 outer loop
  vertex -0.2313179 -0.2906649 0.14692003
  vertex -0.2957329 -0.30417123 0.11294242
  vertex -0.0613237 -0.5916745 -0.5532486
 endloop
endfacet
facet normal -0.013942631 -0.9198337 0.39206073
 outer loop
  vertex -0.0613237 -0.5916745 -0.5532486
  vertex -0.22770914 -0.2893235 0.1501955
  vertex -0.2313179 -0.2906649 0.14692003
 endloop
endfacet
facet normal 0.5519348 -0.73597246 0.3920619
 outer loop
  vertex 0.33467484 -0.23659433 0.08123799
  vertex 0.30244064 -0.24753784 0.10607349
  vertex 0.21506445 -0.32193935 0.08941411
 endloop
endfacet
facet normal 0.55193484 -0.7359722 0.3920623
 outer loop
  vertex 0.5972212 -0.37769872 -0.5532463
  vertex 0.6268658 0.028712902 0.16792929
  vertex 0.485991 -0.09124317 0.14106971
 endloop
endfacet
facet normal 0.5519343 -0.7359726 0.39206234
 outer loop
  vertex 0.5972212 -0.37769872 -0.5532463
  vertex 0.485991 -0.09124317 0.14106971
  vertex 0.46746987 -0.13066885 0.093134046
 endloop
endfacet
facet normal 0.5519347 -0.7359723 0.39206228
 outer loop
  vertex 0.33467484 -0.23659433 0.08123799
  vertex 0.21506445 -0.32193935 0.08941411
  vertex 0.5972212 -0.37769872 -0.5532463
 endloop
endfacet
facet normal 0.55193484 -0.7359722 0.3920623
 outer loop
  vertex 0.39848733 -0.20217955 0.05600727
  vertex 0.33467484 -0.23659433 0.08123799
  vertex 0.5972212 -0.37769872 -0.5532463
 endloop
endfacet
facet normal 0.5519348 -0.73597217 0.3920623
 outer loop
  vertex 0.5972212 -0.37769872 -0.5532463
  vertex 0.46746987 -0.13066885 0.093134046
  vertex 0.4581322 -0.14400886 0.08123773
 endloop
endfacet
facet normal 0.5519349 -0.73597217 0.39206234
 outer loop
  vertex 0.39988303 -0.20124087 0.055804517
  vertex 0.39848733 -0.20217955 0.05600727
  vertex 0.5972212 -0.37769872 -0.5532463
 endloop
endfacet
facet normal 0.55193496 -0.7359721 0.3920623
 outer loop
  vertex 0.5972212 -0.37769872 -0.5532463
  vertex 0.4581322 -0.14400886 0.08123773
  vertex 0.39988303 -0.20124087 0.055804517
 endloop
endfacet
facet normal 0.7753274 -0.56330633 0.2855753
 outer loop
  vertex 0.5972212 -0.37769872 -0.5532463
  vertex 1.0042263 0.182497 -0.5532478
  vertex 0.6268658 0.028712902 0.16792929
 endloop
endfacet
facet normal 0.870509 -0.2974919 0.39206213
 outer loop
  vertex 1.0042263 0.182497 -0.5532478
  vertex 0.8331026 0.5287097 0.08940609
  vertex 0.6268658 0.028712902 0.16792929
 endloop
endfacet
facet normal 0.2986134 0.91903347 0.25730836
 outer loop
  vertex 0.5972212 1.4351183 -0.5532463
  vertex -0.0613237 1.6490941 -0.5532486
  vertex 0.21506445 1.3793589 0.08941411
 endloop
endfacet
facet normal 0.3090057 0.95101476 -0.009298652
 outer loop
  vertex 0.5972212 1.4351183 -0.5532463
  vertex 0.26559004 1.534828 -1.3760107
  vertex -0.0613237 1.6490941 -0.5532486
 endloop
endfacet
facet normal 0.059987888 0.9916806 -0.11389036
 outer loop
  vertex 0.26559004 1.534828 -1.3760107
  vertex -0.40505072 1.5866102 -1.278363
  vertex -0.0613237 1.6490941 -0.5532486
 endloop
endfacet
facet normal -0.7817765 0.56799436 0.25730878
 outer loop
  vertex -0.71986854 1.435118 -0.55324614
  vertex -1.1268755 0.8749231 -0.5532499
  vertex -0.78493065 1.054435 0.08941264
 endloop
endfacet
facet normal -0.80898094 0.5877614 -0.009296784
 outer loop
  vertex -0.71986854 1.435118 -0.55324614
  vertex -0.91718286 1.1505253 -1.3760089
  vertex -1.1268755 0.8749231 -0.5532499
 endloop
endfacet
facet normal -0.9246087 0.3634939 -0.1138899
 outer loop
  vertex -0.91718286 1.1505253 -1.3760089
  vertex -1.1736672 0.5287097 -1.2783579
  vertex -1.1268755 0.8749231 -0.5532499
 endloop
endfacet
facet normal -0.78177655 -0.56799436 0.25730887
 outer loop
  vertex -1.1268755 0.18249638 -0.5532499
  vertex -0.71986854 -0.37769854 -0.55324614
  vertex -0.78493065 0.0029845175 0.08941264
 endloop
endfacet
facet normal -0.8089809 -0.58776134 -0.009296803
 outer loop
  vertex -1.1268755 0.18249638 -0.5532499
  vertex -0.91718286 -0.09310585 -1.3760089
  vertex -0.71986854 -0.37769854 -0.55324614
 endloop
endfacet
facet normal -0.6314197 -0.7670322 -0.11388896
 outer loop
  vertex -0.91718286 -0.09310585 -1.3760089
  vertex -0.40505072 -0.5291907 -1.278363
  vertex -0.71986854 -0.37769854 -0.55324614
 endloop
endfacet
facet normal 0.2986134 -0.91903347 0.25730827
 outer loop
  vertex 0.21506445 -0.32193935 0.08941411
  vertex -0.0613237 -0.5916745 -0.5532486
  vertex 0.5972212 -0.37769872 -0.5532463
 endloop
endfacet
facet normal 0.3090057 -0.95101476 -0.00929841
 outer loop
  vertex -0.0613237 -0.5916745 -0.5532486
  vertex 0.26559004 -0.47740856 -1.3760107
  vertex 0.5972212 -0.37769872 -0.5532463
 endloop
endfacet
facet normal 0.5343731 -0.8375408 -0.11388895
 outer loop
  vertex 0.26559004 -0.47740856 -1.3760107
  vertex 0.8385822 -0.1251026 -1.2783625
  vertex 0.5972212 -0.37769872 -0.5532463
 endloop
endfacet
facet normal 0.96632874 0 0.2573108
 outer loop
  vertex 1.0042263 0.182497 -0.5532478
  vertex 1.0042263 0.87492245 -0.5532478
  vertex 0.8331026 0.5287097 0.08940609
 endloop
endfacet
facet normal 0.9999568 0 -0.009299466
 outer loop
  vertex 1.0042263 0.182497 -0.5532478
  vertex 0.99657476 0.5287097 -1.3760087
  vertex 1.0042263 0.87492245 -0.5532478
 endloop
endfacet
facet normal 0.961681 0.24939749 -0.11388845
 outer loop
  vertex 0.99657476 0.5287097 -1.3760087
  vertex 0.8385822 1.1825222 -1.2783625
  vertex 1.0042263 0.87492245 -0.5532478
 endloop
endfacet
facet normal 0.47129962 0.5831224 -0.6616985
 outer loop
  vertex 0.4676239 0.91300833 -1.7800896
  vertex 0.26559004 1.534828 -1.3760107
  vertex 0.8385822 1.1825222 -1.2783625
 endloop
endfacet
facet normal 0.18759441 0.57734555 -0.79465747
 outer loop
  vertex 0.4676239 0.91300833 -1.7800896
  vertex -0.2633599 1.1505233 -1.78009
  vertex 0.26559004 1.534828 -1.3760107
 endloop
endfacet
facet normal -0.03853013 0.7487791 -0.6616988
 outer loop
  vertex -0.2633599 1.1505233 -1.78009
  vertex -0.40505072 1.5866102 -1.278363
  vertex 0.26559004 1.534828 -1.3760107
 endloop
endfacet
facet normal -0.40894634 0.6284251 -0.66169834
 outer loop
  vertex -0.2633599 1.1505233 -1.78009
  vertex -0.91718286 1.1505253 -1.3760089
  vertex -0.40505072 1.5866102 -1.278363
 endloop
endfacet
facet normal -0.4911197 0.35682106 -0.79465735
 outer loop
  vertex -0.2633599 1.1505233 -1.78009
  vertex -0.7151419 0.5287097 -1.7800864
  vertex -0.91718286 1.1505253 -1.3760089
 endloop
endfacet
facet normal -0.72404194 0.19473645 -0.66169554
 outer loop
  vertex -0.7151419 0.5287097 -1.7800864
  vertex -1.1736672 0.5287097 -1.2783579
  vertex -0.91718286 1.1505253 -1.3760089
 endloop
endfacet
facet normal -0.72404194 -0.19473648 -0.66169554
 outer loop
  vertex -0.7151419 0.5287097 -1.7800864
  vertex -0.91718286 -0.09310585 -1.3760089
  vertex -1.1736672 0.5287097 -1.2783579
 endloop
endfacet
facet normal -0.49111965 -0.3568211 -0.7946574
 outer loop
  vertex -0.7151419 0.5287097 -1.7800864
  vertex -0.2633599 -0.09310376 -1.78009
  vertex -0.91718286 -0.09310585 -1.3760089
 endloop
endfacet
facet normal -0.4089463 -0.6284251 -0.6616984
 outer loop
  vertex -0.2633599 -0.09310376 -1.78009
  vertex -0.40505072 -0.5291907 -1.278363
  vertex -0.91718286 -0.09310585 -1.3760089
 endloop
endfacet
facet normal 0.700224 0.2680319 -0.66169876
 outer loop
  vertex 0.99657476 0.5287097 -1.3760087
  vertex 0.4676239 0.91300833 -1.7800896
  vertex 0.8385822 1.1825222 -1.2783625
 endloop
endfacet
facet normal 0.60706043 0 -0.7946557
 outer loop
  vertex 0.99657476 0.5287097 -1.3760087
  vertex 0.4676239 0.14441118 -1.7800896
  vertex 0.4676239 0.91300833 -1.7800896
 endloop
endfacet
facet normal 0.33130476 0 -0.94352376
 outer loop
  vertex 0.4676239 0.14441118 -1.7800896
  vertex -0.061323863 0.5287097 -1.965822
  vertex 0.4676239 0.91300833 -1.7800896
 endloop
endfacet
facet normal -0.038530234 -0.74877906 -0.6616988
 outer loop
  vertex -0.2633599 -0.09310376 -1.78009
  vertex 0.26559004 -0.47740856 -1.3760107
  vertex -0.40505072 -0.5291907 -1.278363
 endloop
endfacet
facet normal 0.18759438 -0.57734543 -0.7946575
 outer loop
  vertex -0.2633599 -0.09310376 -1.78009
  vertex 0.4676239 0.14441118 -1.7800896
  vertex 0.26559004 -0.47740856 -1.3760107
 endloop
endfacet
facet normal 0.47129977 -0.5831223 -0.6616985
 outer loop
  vertex 0.4676239 0.14441118 -1.7800896
  vertex 0.8385822 -0.1251026 -1.2783625
  vertex 0.26559004 -0.47740856 -1.3760107
 endloop
endfacet
facet normal 0.10238103 -0.31508997 -0.94352335
 outer loop
  vertex 0.40018803 -0.20217955 0.055524137
  vertex 0.47341788 -0.25538352 0.08123774
  vertex 0.37221727 -0.28826615 0.0812377
 endloop
endfacet
facet normal 0.7002239 -0.26803204 -0.6616987
 outer loop
  vertex 0.52477497 -0.2926962 0.15069905
  vertex 0.47341788 -0.25538352 0.08123774
  vertex 0.5466482 -0.20217955 0.1371805
 endloop
endfacet
facet normal -0.26803493 -0.19473635 -0.9435227
 outer loop
  vertex 0.39848733 -0.20217955 0.05600727
  vertex 0.40018803 -0.20217955 0.055524137
  vertex 0.37221727 -0.28826615 0.0812377
 endloop
endfacet
facet normal -0.2680343 -0.19473659 -0.9435228
 outer loop
  vertex 0.39848733 -0.20217955 0.05600727
  vertex 0.37221727 -0.28826615 0.0812377
  vertex 0.33467484 -0.23659433 0.08123799
 endloop
endfacet
facet normal -0.26803496 0.19473577 -0.94352275
 outer loop
  vertex 0.39988303 -0.20124087 0.055804517
  vertex 0.40018803 -0.20217955 0.055524137
  vertex 0.39848733 -0.20217955 0.05600727
 endloop
endfacet
facet normal 0.10238095 0.31508994 -0.94352347
 outer loop
  vertex 0.4581322 -0.14400886 0.08123773
  vertex 0.47341788 -0.14897555 0.08123774
  vertex 0.40018803 -0.20217955 0.055524137
 endloop
endfacet
facet normal 0.1023798 0.315091 -0.9435232
 outer loop
  vertex 0.4581322 -0.14400886 0.08123773
  vertex 0.40018803 -0.20217955 0.055524137
  vertex 0.39988303 -0.20124087 0.055804517
 endloop
endfacet
facet normal 0.90498877 -0.26803195 -0.33038488
 outer loop
  vertex 0.5639363 -0.25538373 0.22769901
  vertex 0.52477497 -0.2926962 0.15069905
  vertex 0.5466482 -0.20217955 0.1371805
 endloop
endfacet
facet normal 0.024746647 -0.9435214 -0.33038607
 outer loop
  vertex 0.40018803 -0.3743544 0.22769901
  vertex 0.35260093 -0.34863997 0.15069899
  vertex 0.44544744 -0.34147102 0.13718021
 endloop
endfacet
facet normal -0.8896973 -0.31509468 -0.33038482
 outer loop
  vertex 0.26454136 -0.24666947 0.14371292
  vertex 0.28169912 -0.28826645 0.13718045
  vertex 0.23643976 -0.25538373 0.22769901
 endloop
endfacet
facet normal -0.88969755 -0.31509402 -0.3303848
 outer loop
  vertex 0.26454136 -0.24666947 0.14371292
  vertex 0.23643976 -0.25538373 0.22769901
  vertex 0.24123986 -0.22919199 0.18979323
 endloop
endfacet
facet normal 0.5345762 0.7778643 -0.33038688
 outer loop
  vertex 0.52477497 -0.11166287 0.15069905
  vertex 0.4868151 -0.088323124 0.14423001
  vertex 0.47695118 -0.06288759 0.18815543
 endloop
endfacet
facet normal 0.534576 0.77786434 -0.33038712
 outer loop
  vertex 0.52477497 -0.11166287 0.15069905
  vertex 0.47695118 -0.06288759 0.18815543
  vertex 0.50139 -0.06288721 0.22769901
 endloop
endfacet
facet normal 0.80260926 -0.5831261 -0.12562813
 outer loop
  vertex 0.50139 -0.34147188 0.22769901
  vertex 0.52477497 -0.2926962 0.15069905
  vertex 0.5639363 -0.25538373 0.22769901
 endloop
endfacet
facet normal -0.30656895 -0.94352156 -0.1256284
 outer loop
  vertex 0.29898614 -0.34147188 0.22769901
  vertex 0.35260093 -0.34863997 0.15069899
  vertex 0.40018803 -0.3743544 0.22769901
 endloop
endfacet
facet normal -0.9920773 -0 -0.12562902
 outer loop
  vertex 0.23643976 -0.25538373 0.22769901
  vertex 0.23643976 -0.20460412 0.22769901
  vertex 0.24123986 -0.22919199 0.18979323
 endloop
endfacet
facet normal 0.80260915 0.5831261 -0.12562811
 outer loop
  vertex 0.5639363 -0.14897534 0.22769901
  vertex 0.52477497 -0.11166287 0.15069905
  vertex 0.50139 -0.06288721 0.22769901
 endloop
endfacet
facet normal 0.40894613 -0.628425 0.6616986
 outer loop
  vertex 0.4281588 -0.28826615 0.37416032
  vertex 0.44777513 -0.34863997 0.30469903
  vertex 0.518677 -0.28826645 0.31821755
 endloop
endfacet
facet normal -0.4712995 -0.58312213 0.6616988
 outer loop
  vertex 0.32695818 -0.25538352 0.37416026
  vertex 0.27560103 -0.2926962 0.30469897
  vertex 0.3549286 -0.34147102 0.31821778
 endloop
endfacet
facet normal -0.7002243 0.26803082 0.661699
 outer loop
  vertex 0.32695818 -0.14897555 0.37416026
  vertex 0.2789809 -0.11411845 0.3092703
  vertex 0.27348107 -0.120435864 0.3060092
 endloop
endfacet
facet normal -0.7002238 0.26803198 0.661699
 outer loop
  vertex 0.32695818 -0.14897555 0.37416026
  vertex 0.27348107 -0.120435864 0.3060092
  vertex 0.25372782 -0.20217955 0.31821752
 endloop
endfacet
facet normal 0.0385301 0.74877906 0.6616989
 outer loop
  vertex 0.4281588 -0.11609293 0.37416032
  vertex 0.44777513 -0.055719133 0.30469903
  vertex 0.3549286 -0.06288808 0.31821778
 endloop
endfacet
facet normal 0.72404224 0.19473585 0.66169536
 outer loop
  vertex 0.49070546 -0.20217955 0.37415987
  vertex 0.55418575 -0.20217955 0.3046983
  vertex 0.518677 -0.116092645 0.31821755
 endloop
endfacet
facet normal 0.26803407 0.19473661 0.9435229
 outer loop
  vertex 0.4281588 -0.11609293 0.37416032
  vertex 0.40018803 -0.20217955 0.39987388
  vertex 0.49070546 -0.20217955 0.37415987
 endloop
endfacet
facet normal 0.49111935 0.35682112 0.79465747
 outer loop
  vertex 0.4281588 -0.11609293 0.37416032
  vertex 0.49070546 -0.20217955 0.37415987
  vertex 0.518677 -0.116092645 0.31821755
 endloop
endfacet
facet normal 0.40894616 0.62842506 0.6616985
 outer loop
  vertex 0.44777513 -0.055719133 0.30469903
  vertex 0.4281588 -0.11609293 0.37416032
  vertex 0.518677 -0.116092645 0.31821755
 endloop
endfacet
facet normal -0.1023812 0.31508994 0.94352347
 outer loop
  vertex 0.32695818 -0.14897555 0.37416026
  vertex 0.40018803 -0.20217955 0.39987388
  vertex 0.4281588 -0.11609293 0.37416032
 endloop
endfacet
facet normal -0.18759452 0.5773455 0.7946575
 outer loop
  vertex 0.3549286 -0.06288808 0.31821778
  vertex 0.32695818 -0.14897555 0.37416026
  vertex 0.4281588 -0.11609293 0.37416032
 endloop
endfacet
facet normal -0.4712989 0.58312225 0.6616991
 outer loop
  vertex 0.32695818 -0.14897555 0.37416026
  vertex 0.3549286 -0.06288808 0.31821778
  vertex 0.31274185 -0.08882672 0.31102845
 endloop
endfacet
facet normal -0.47129992 0.5831218 0.6616989
 outer loop
  vertex 0.32695818 -0.14897555 0.37416026
  vertex 0.31274185 -0.08882672 0.31102845
  vertex 0.2789809 -0.11411845 0.3092703
 endloop
endfacet
facet normal -0.331305 0 0.94352376
 outer loop
  vertex 0.32695818 -0.14897555 0.37416026
  vertex 0.32695818 -0.25538352 0.37416026
  vertex 0.40018803 -0.20217955 0.39987388
 endloop
endfacet
facet normal -0.60706013 0 0.79465586
 outer loop
  vertex 0.25372782 -0.20217955 0.31821752
  vertex 0.32695818 -0.25538352 0.37416026
  vertex 0.32695818 -0.14897555 0.37416026
 endloop
endfacet
facet normal -0.70022357 -0.2680318 0.6616992
 outer loop
  vertex 0.32695818 -0.25538352 0.37416026
  vertex 0.25372782 -0.20217955 0.31821752
  vertex 0.27560103 -0.2926962 0.30469897
 endloop
endfacet
facet normal -0.10238125 -0.31509 0.94352335
 outer loop
  vertex 0.40018803 -0.20217955 0.39987388
  vertex 0.32695818 -0.25538352 0.37416026
  vertex 0.4281588 -0.28826615 0.37416032
 endloop
endfacet
facet normal -0.18759453 -0.5773453 0.7946575
 outer loop
  vertex 0.32695818 -0.25538352 0.37416026
  vertex 0.3549286 -0.34147102 0.31821778
  vertex 0.4281588 -0.28826615 0.37416032
 endloop
endfacet
facet normal 0.038530096 -0.74877894 0.66169894
 outer loop
  vertex 0.4281588 -0.28826615 0.37416032
  vertex 0.3549286 -0.34147102 0.31821778
  vertex 0.44777513 -0.34863997 0.30469903
 endloop
endfacet
facet normal 0.26803407 -0.19473664 0.94352275
 outer loop
  vertex 0.40018803 -0.20217955 0.39987388
  vertex 0.4281588 -0.28826615 0.37416032
  vertex 0.49070546 -0.20217955 0.37415987
 endloop
endfacet
facet normal 0.49111927 -0.35682115 0.79465747
 outer loop
  vertex 0.49070546 -0.20217955 0.37415987
  vertex 0.4281588 -0.28826615 0.37416032
  vertex 0.518677 -0.28826645 0.31821755
 endloop
endfacet
facet normal 0.72404224 -0.19473587 0.6616954
 outer loop
  vertex 0.518677 -0.28826645 0.31821755
  vertex 0.55418575 -0.20217955 0.3046983
  vertex 0.49070546 -0.20217955 0.37415987
 endloop
endfacet
facet normal 0.8896975 0.3150943 0.33038464
 outer loop
  vertex 0.55418575 -0.20217955 0.3046983
  vertex 0.5639363 -0.14897534 0.22769901
  vertex 0.518677 -0.116092645 0.31821755
 endloop
endfacet
facet normal 0.79465574 0.5773477 0.18759483
 outer loop
  vertex 0.518677 -0.116092645 0.31821755
  vertex 0.5639363 -0.14897534 0.22769901
  vertex 0.50139 -0.06288721 0.22769901
 endloop
endfacet
facet normal 0.57460177 0.7487836 0.33038768
 outer loop
  vertex 0.44777513 -0.055719133 0.30469903
  vertex 0.518677 -0.116092645 0.31821755
  vertex 0.50139 -0.06288721 0.22769901
 endloop
endfacet
facet normal -0.02474668 0.9435213 0.33038628
 outer loop
  vertex 0.3549286 -0.06288808 0.31821778
  vertex 0.44777513 -0.055719133 0.30469903
  vertex 0.42399094 -0.042866956 0.26621413
 endloop
endfacet
facet normal -0.024745587 0.94352096 0.33038762
 outer loop
  vertex 0.3549286 -0.06288808 0.31821778
  vertex 0.42399094 -0.042866956 0.26621413
  vertex 0.36119232 -0.05833715 0.30569038
 endloop
endfacet
facet normal -0.3035313 0.93417114 0.18759812
 outer loop
  vertex 0.36119232 -0.05833715 0.30569038
  vertex 0.3500212 -0.06288801 0.31027734
  vertex 0.3549286 -0.06288808 0.31821778
 endloop
endfacet
facet normal -0.5345755 0.7778641 0.33038813
 outer loop
  vertex 0.31274185 -0.08882672 0.31102845
  vertex 0.3549286 -0.06288808 0.31821778
  vertex 0.3500212 -0.06288801 0.31027734
 endloop
endfacet
facet normal -0.90498894 0.2680318 0.3303847
 outer loop
  vertex 0.25372782 -0.20217955 0.31821752
  vertex 0.27348107 -0.120435864 0.3060092
  vertex 0.24370609 -0.17133756 0.26574478
 endloop
endfacet
facet normal -0.9822458 -5.1198906e-08 0.1875984
 outer loop
  vertex 0.23643976 -0.25538373 0.22769901
  vertex 0.25372782 -0.20217955 0.31821752
  vertex 0.24370609 -0.17133756 0.26574478
 endloop
endfacet
facet normal -0.98224586 0 0.1875983
 outer loop
  vertex 0.23643976 -0.25538373 0.22769901
  vertex 0.24370609 -0.17133756 0.26574478
  vertex 0.23643976 -0.20460412 0.22769901
 endloop
endfacet
facet normal -0.90498906 -0.26803166 0.33038446
 outer loop
  vertex 0.27560103 -0.2926962 0.30469897
  vertex 0.25372782 -0.20217955 0.31821752
  vertex 0.23643976 -0.25538373 0.22769901
 endloop
endfacet
facet normal -0.534576 -0.7778645 0.3303865
 outer loop
  vertex 0.27560103 -0.2926962 0.30469897
  vertex 0.29898614 -0.34147188 0.22769901
  vertex 0.3549286 -0.34147102 0.31821778
 endloop
endfacet
facet normal -0.30353093 -0.9341715 0.1875973
 outer loop
  vertex 0.29898614 -0.34147188 0.22769901
  vertex 0.40018803 -0.3743544 0.22769901
  vertex 0.3549286 -0.34147102 0.31821778
 endloop
endfacet
facet normal -0.024746746 -0.9435213 0.3303861
 outer loop
  vertex 0.40018803 -0.3743544 0.22769901
  vertex 0.44777513 -0.34863997 0.30469903
  vertex 0.3549286 -0.34147102 0.31821778
 endloop
endfacet
facet normal 0.57460177 -0.7487835 0.33038756
 outer loop
  vertex 0.44777513 -0.34863997 0.30469903
  vertex 0.50139 -0.34147188 0.22769901
  vertex 0.518677 -0.28826645 0.31821755
 endloop
endfacet
facet normal 0.79465586 -0.5773477 0.18759476
 outer loop
  vertex 0.518677 -0.28826645 0.31821755
  vertex 0.50139 -0.34147188 0.22769901
  vertex 0.5639363 -0.25538373 0.22769901
 endloop
endfacet
facet normal 0.88969755 -0.31509432 0.33038452
 outer loop
  vertex 0.518677 -0.28826645 0.31821755
  vertex 0.5639363 -0.25538373 0.22769901
  vertex 0.55418575 -0.20217955 0.3046983
 endloop
endfacet
facet normal 0.30656922 0.94352144 0.12562858
 outer loop
  vertex 0.45641428 -0.048273724 0.22769901
  vertex 0.42399094 -0.042866956 0.26621413
  vertex 0.44777513 -0.055719133 0.30469903
 endloop
endfacet
facet normal 0.30656865 0.9435216 0.12562853
 outer loop
  vertex 0.45641428 -0.048273724 0.22769901
  vertex 0.44777513 -0.055719133 0.30469903
  vertex 0.50139 -0.06288721 0.22769901
 endloop
endfacet
facet normal 0.30353057 0.9341715 -0.1875975
 outer loop
  vertex 0.45641428 -0.048273724 0.22769901
  vertex 0.50139 -0.06288721 0.22769901
  vertex 0.47695118 -0.06288759 0.18815543
 endloop
endfacet
facet normal -0.80260897 -0.5831265 0.1256272
 outer loop
  vertex 0.27560103 -0.2926962 0.30469897
  vertex 0.23643976 -0.25538373 0.22769901
  vertex 0.29898614 -0.34147188 0.22769901
 endloop
endfacet
facet normal -0.79465556 -0.577348 -0.18759497
 outer loop
  vertex 0.29898614 -0.34147188 0.22769901
  vertex 0.23643976 -0.25538373 0.22769901
  vertex 0.28169912 -0.28826645 0.13718045
 endloop
endfacet
facet normal -0.5746022 -0.74878347 -0.33038735
 outer loop
  vertex 0.29898614 -0.34147188 0.22769901
  vertex 0.28169912 -0.28826645 0.13718045
  vertex 0.35260093 -0.34863997 0.15069899
 endloop
endfacet
facet normal 0.3065688 -0.9435216 0.12562852
 outer loop
  vertex 0.40018803 -0.3743544 0.22769901
  vertex 0.50139 -0.34147188 0.22769901
  vertex 0.44777513 -0.34863997 0.30469903
 endloop
endfacet
facet normal 0.30353075 -0.93417144 -0.18759735
 outer loop
  vertex 0.40018803 -0.3743544 0.22769901
  vertex 0.44544744 -0.34147102 0.13718021
  vertex 0.50139 -0.34147188 0.22769901
 endloop
endfacet
facet normal 0.53457636 -0.7778641 -0.33038694
 outer loop
  vertex 0.50139 -0.34147188 0.22769901
  vertex 0.44544744 -0.34147102 0.13718021
  vertex 0.52477497 -0.2926962 0.15069905
 endloop
endfacet
facet normal 0.9920774 0 0.1256284
 outer loop
  vertex 0.55418575 -0.20217955 0.3046983
  vertex 0.5639363 -0.25538373 0.22769901
  vertex 0.5639363 -0.14897534 0.22769901
 endloop
endfacet
facet normal 0.98224574 0 -0.18759869
 outer loop
  vertex 0.5639363 -0.25538373 0.22769901
  vertex 0.5466482 -0.20217955 0.1371805
  vertex 0.5639363 -0.14897534 0.22769901
 endloop
endfacet
facet normal 0.9049888 0.26803192 -0.33038494
 outer loop
  vertex 0.5639363 -0.14897534 0.22769901
  vertex 0.5466482 -0.20217955 0.1371805
  vertex 0.52477497 -0.11166287 0.15069905
 endloop
endfacet
facet normal 0.47130132 0.5831258 -0.6616943
 outer loop
  vertex 0.485991 -0.09124317 0.14106971
  vertex 0.4868151 -0.088323124 0.14423001
  vertex 0.52477497 -0.11166287 0.15069905
 endloop
endfacet
facet normal 0.47129923 0.58312285 -0.66169834
 outer loop
  vertex 0.52477497 -0.11166287 0.15069905
  vertex 0.47341788 -0.14897555 0.08123774
  vertex 0.46746987 -0.13066885 0.093134046
 endloop
endfacet
facet normal 0.47130015 0.5831216 -0.6616988
 outer loop
  vertex 0.52477497 -0.11166287 0.15069905
  vertex 0.46746987 -0.13066885 0.093134046
  vertex 0.485991 -0.09124317 0.14106971
 endloop
endfacet
facet normal 0.18759426 0.5773458 -0.7946573
 outer loop
  vertex 0.46746987 -0.13066885 0.093134046
  vertex 0.47341788 -0.14897555 0.08123774
  vertex 0.4581322 -0.14400886 0.08123773
 endloop
endfacet
facet normal -0.72404224 -0.19473617 -0.6616953
 outer loop
  vertex 0.28169912 -0.28826645 0.13718045
  vertex 0.26454136 -0.24666947 0.14371292
  vertex 0.2944363 -0.24906558 0.11170635
 endloop
endfacet
facet normal -0.49111935 -0.35682103 -0.79465747
 outer loop
  vertex 0.33467484 -0.23659433 0.08123799
  vertex 0.37221727 -0.28826615 0.0812377
  vertex 0.28169912 -0.28826645 0.13718045
 endloop
endfacet
facet normal -0.4911172 -0.3568223 -0.7946582
 outer loop
  vertex 0.28169912 -0.28826645 0.13718045
  vertex 0.2944363 -0.24906558 0.11170635
  vertex 0.30244064 -0.24753784 0.10607349
 endloop
endfacet
facet normal -0.4911199 -0.3568204 -0.79465747
 outer loop
  vertex 0.28169912 -0.28826645 0.13718045
  vertex 0.30244064 -0.24753784 0.10607349
  vertex 0.33467484 -0.23659433 0.08123799
 endloop
endfacet
facet normal -0.40894616 -0.628425 -0.6616986
 outer loop
  vertex 0.28169912 -0.28826645 0.13718045
  vertex 0.37221727 -0.28826615 0.0812377
  vertex 0.35260093 -0.34863997 0.15069899
 endloop
endfacet
facet normal 0.700224 0.26803198 -0.66169864
 outer loop
  vertex 0.5466482 -0.20217955 0.1371805
  vertex 0.47341788 -0.14897555 0.08123774
  vertex 0.52477497 -0.11166287 0.15069905
 endloop
endfacet
facet normal 0.60706043 0 -0.7946557
 outer loop
  vertex 0.47341788 -0.14897555 0.08123774
  vertex 0.5466482 -0.20217955 0.1371805
  vertex 0.47341788 -0.25538352 0.08123774
 endloop
endfacet
facet normal 0.3313048 0 -0.9435239
 outer loop
  vertex 0.40018803 -0.20217955 0.055524137
  vertex 0.47341788 -0.14897555 0.08123774
  vertex 0.47341788 -0.25538352 0.08123774
 endloop
endfacet
facet normal -0.03853032 -0.74877894 -0.66169906
 outer loop
  vertex 0.35260093 -0.34863997 0.15069899
  vertex 0.37221727 -0.28826615 0.0812377
  vertex 0.44544744 -0.34147102 0.13718021
 endloop
endfacet
facet normal 0.18759434 -0.57734525 -0.7946577
 outer loop
  vertex 0.37221727 -0.28826615 0.0812377
  vertex 0.47341788 -0.25538352 0.08123774
  vertex 0.44544744 -0.34147102 0.13718021
 endloop
endfacet
facet normal 0.47130004 -0.5831221 -0.6616986
 outer loop
  vertex 0.47341788 -0.25538352 0.08123774
  vertex 0.52477497 -0.2926962 0.15069905
  vertex 0.44544744 -0.34147102 0.13718021
 endloop
endfacet
endsolid 
