solid Exported from Blender-3.6.16
facet normal 0.686412 -0.421207 -0.592810
outer loop
vertex 0.562500 -0.671875 0.242188
vertex 0.437500 -0.765625 0.164062
vertex 0.351562 -0.718750 0.031250
endloop
endfacet
facet normal 0.565559 -0.717825 -0.406042
outer loop
vertex 0.562500 -0.671875 0.242188
vertex 0.351562 -0.718750 0.031250
vertex 0.546875 -0.578125 0.054688
endloop
endfacet
facet normal -0.694006 -0.619162 -0.367415
outer loop
vertex -0.437500 -0.765625 0.164062
vertex -0.562500 -0.671875 0.242188
vertex -0.546875 -0.578125 0.054688
endloop
endfacet
facet normal -0.525775 -0.636122 -0.564721
outer loop
vertex -0.437500 -0.765625 0.164062
vertex -0.546875 -0.578125 0.054688
vertex -0.351562 -0.718750 0.031250
endloop
endfacet
facet normal -0.577350 -0.577350 -0.577350
outer loop
vertex -0.437500 -0.765625 0.164062
vertex -0.351562 -0.718750 0.031250
vertex -0.351562 -0.804688 0.117188
endloop
endfacet
facet normal 0.443607 -0.633724 -0.633724
outer loop
vertex -0.351562 -0.718750 0.031250
vertex -0.273438 -0.796875 0.164062
vertex -0.351562 -0.804688 0.117188
endloop
endfacet
facet normal 0.528977 -0.789129 0.312183
outer loop
vertex 0.476562 -0.773438 0.242188
vertex 0.437500 -0.765625 0.328125
vertex 0.351562 -0.804688 0.375000
endloop
endfacet
facet normal 0.395681 -0.904413 0.159602
outer loop
vertex 0.476562 -0.773438 0.242188
vertex 0.351562 -0.804688 0.375000
vertex 0.351562 -0.828125 0.242188
endloop
endfacet
facet normal 0.538064 -0.768662 -0.345898
outer loop
vertex 0.351562 -0.804688 0.117188
vertex 0.437500 -0.765625 0.164062
vertex 0.476562 -0.773438 0.242188
endloop
endfacet
facet normal 0.395033 -0.902932 -0.169300
outer loop
vertex 0.351562 -0.804688 0.117188
vertex 0.476562 -0.773438 0.242188
vertex 0.351562 -0.828125 0.242188
endloop
endfacet
facet normal 0.359533 -0.928793 -0.089883
outer loop
vertex 0.109375 -0.734375 -0.718750
vertex 0.265625 -0.664062 -0.820312
vertex 0.117188 -0.734375 -0.687500
endloop
endfacet
facet normal -0.570275 -0.627303 -0.530356
outer loop
vertex 0.140625 -0.742188 0.242188
vertex 0.273438 -0.796875 0.164062
vertex 0.226562 -0.820312 0.242188
endloop
endfacet
facet normal -0.584726 -0.643199 0.494359
outer loop
vertex 0.140625 -0.742188 0.242188
vertex 0.226562 -0.820312 0.242188
vertex 0.273438 -0.796875 0.328125
endloop
endfacet
facet normal 0.039018 0.216765 -0.975444
outer loop
vertex -0.546875 -0.578125 0.054688
vertex -0.156250 -0.648438 0.054688
vertex -0.351562 -0.718750 0.031250
endloop
endfacet
facet normal -0.582641 -0.502827 -0.638510
outer loop
vertex 0.351562 -0.718750 0.031250
vertex 0.273438 -0.796875 0.164062
vertex 0.140625 -0.742188 0.242188
endloop
endfacet
facet normal -0.350316 -0.825746 -0.442066
outer loop
vertex 0.351562 -0.718750 0.031250
vertex 0.140625 -0.742188 0.242188
vertex 0.156250 -0.648438 0.054688
endloop
endfacet
facet normal -0.356291 -0.814379 -0.458088
outer loop
vertex 0.226562 -0.820312 0.242188
vertex 0.273438 -0.796875 0.164062
vertex 0.351562 -0.804688 0.117188
endloop
endfacet
facet normal -0.061314 -0.981023 -0.183942
outer loop
vertex 0.226562 -0.820312 0.242188
vertex 0.351562 -0.804688 0.117188
vertex 0.351562 -0.828125 0.242188
endloop
endfacet
facet normal -0.374655 -0.403953 -0.834539
outer loop
vertex -0.125000 -0.812500 -0.101562
vertex -0.398438 -0.671875 -0.046875
vertex -0.203125 -0.562500 -0.187500
endloop
endfacet
facet normal -0.986394 0.164399 0.000000
outer loop
vertex 0.140625 -0.742188 0.242188
vertex 0.156250 -0.648438 0.437500
vertex 0.156250 -0.648438 0.054688
endloop
endfacet
facet normal -0.694731 -0.584142 -0.419675
outer loop
vertex -0.617188 -0.625000 0.054688
vertex -0.726562 -0.601562 0.203125
vertex -0.632812 -0.539062 -0.039062
endloop
endfacet
facet normal 0.986394 0.164399 0.000000
outer loop
vertex 0.546875 -0.578125 0.054688
vertex 0.546875 -0.578125 0.437500
vertex 0.562500 -0.671875 0.242188
endloop
endfacet
facet normal -0.455196 -0.598942 0.658836
outer loop
vertex 0.351562 -0.718750 0.453125
vertex 0.273438 -0.796875 0.328125
vertex 0.351562 -0.804688 0.375000
endloop
endfacet
facet normal 0.578577 -0.548651 0.603516
outer loop
vertex 0.351562 -0.718750 0.453125
vertex 0.351562 -0.804688 0.375000
vertex 0.437500 -0.765625 0.328125
endloop
endfacet
facet normal 0.986394 0.164399 0.000000
outer loop
vertex -0.156250 -0.648438 0.054688
vertex -0.156250 -0.648438 0.437500
vertex -0.140625 -0.742188 0.242188
endloop
endfacet
facet normal -0.608441 -0.443997 0.657774
outer loop
vertex 0.140625 -0.742188 0.242188
vertex 0.273438 -0.796875 0.328125
vertex 0.351562 -0.718750 0.453125
endloop
endfacet
facet normal -0.336129 -0.838297 0.429273
outer loop
vertex 0.140625 -0.742188 0.242188
vertex 0.351562 -0.718750 0.453125
vertex 0.156250 -0.648438 0.437500
endloop
endfacet
facet normal -0.332369 -0.848113 0.412596
outer loop
vertex 0.351562 -0.804688 0.375000
vertex 0.273438 -0.796875 0.328125
vertex 0.226562 -0.820312 0.242188
endloop
endfacet
facet normal -0.061433 -0.982924 0.173457
outer loop
vertex 0.351562 -0.804688 0.375000
vertex 0.226562 -0.820312 0.242188
vertex 0.351562 -0.828125 0.242188
endloop
endfacet
facet normal -0.026370 0.146498 0.988860
outer loop
vertex 0.351562 -0.718750 0.453125
vertex 0.546875 -0.578125 0.437500
vertex 0.156250 -0.648438 0.437500
endloop
endfacet
facet normal 0.242536 -0.970143 0.000000
outer loop
vertex 0.117188 -0.734375 -0.687500
vertex 0.210938 -0.710938 -0.445312
vertex 0.085938 -0.742188 -0.289062
endloop
endfacet
facet normal 0.110085 -0.993863 -0.010853
outer loop
vertex 0.117188 -0.734375 -0.687500
vertex 0.085938 -0.742188 -0.289062
vertex 0.000000 -0.750000 -0.445312
endloop
endfacet
facet normal -0.387400 -0.885485 0.256589
outer loop
vertex -0.437500 -0.765625 0.328125
vertex -0.476562 -0.773438 0.242188
vertex -0.351562 -0.828125 0.242188
endloop
endfacet
facet normal -0.476796 -0.865639 0.152760
outer loop
vertex -0.437500 -0.765625 0.328125
vertex -0.351562 -0.828125 0.242188
vertex -0.351562 -0.804688 0.375000
endloop
endfacet
facet normal 0.000000 -1.000000 0.000000
outer loop
vertex -0.117188 -0.734375 -0.687500
vertex -0.109375 -0.734375 -0.718750
vertex 0.000000 -0.734375 -0.765625
endloop
endfacet
facet normal 0.026370 0.146498 0.988860
outer loop
vertex -0.156250 -0.648438 0.437500
vertex -0.546875 -0.578125 0.437500
vertex -0.351562 -0.718750 0.453125
endloop
endfacet
facet normal 0.697621 -0.365034 0.616502
outer loop
vertex 0.351562 -0.718750 0.453125
vertex 0.437500 -0.765625 0.328125
vertex 0.562500 -0.671875 0.242188
endloop
endfacet
facet normal 0.557372 -0.730228 0.395099
outer loop
vertex 0.351562 -0.718750 0.453125
vertex 0.562500 -0.671875 0.242188
vertex 0.546875 -0.578125 0.437500
endloop
endfacet
facet normal 0.397970 -0.521478 -0.754771
outer loop
vertex 0.085938 -0.742188 -0.289062
vertex 0.132812 -0.796875 -0.226562
vertex 0.078125 -0.804688 -0.250000
endloop
endfacet
facet normal 0.488430 -0.505568 -0.711222
outer loop
vertex 0.085938 -0.742188 -0.289062
vertex 0.078125 -0.804688 -0.250000
vertex 0.000000 -0.781250 -0.320312
endloop
endfacet
facet normal -0.062564 -0.988504 0.137640
outer loop
vertex -0.250000 -0.757812 0.468750
vertex -0.335938 -0.757812 0.429688
vertex -0.281250 -0.765625 0.398438
endloop
endfacet
facet normal -0.156701 -0.971548 0.177595
outer loop
vertex -0.250000 -0.757812 0.468750
vertex -0.281250 -0.765625 0.398438
vertex -0.210938 -0.781250 0.375000
endloop
endfacet
facet normal -0.478814 -0.450648 -0.753428
outer loop
vertex -0.132812 -0.796875 -0.226562
vertex -0.085938 -0.742188 -0.289062
vertex 0.000000 -0.781250 -0.320312
endloop
endfacet
facet normal -0.369430 -0.677288 -0.636241
outer loop
vertex -0.132812 -0.796875 -0.226562
vertex 0.000000 -0.781250 -0.320312
vertex -0.078125 -0.804688 -0.250000
endloop
endfacet
facet normal -0.434968 -0.882018 -0.181237
outer loop
vertex -0.726562 -0.601562 0.203125
vertex -0.617188 -0.625000 0.054688
vertex -0.625000 -0.648438 0.187500
endloop
endfacet
facet normal 0.481543 -0.842701 -0.240772
outer loop
vertex 0.125000 -0.812500 -0.101562
vertex 0.398438 -0.671875 -0.046875
vertex 0.375000 -0.703125 0.015625
endloop
endfacet
facet normal -0.504228 -0.635327 0.584904
outer loop
vertex -0.437500 -0.765625 0.328125
vertex -0.351562 -0.718750 0.453125
vertex -0.546875 -0.578125 0.437500
endloop
endfacet
facet normal -0.704361 -0.616316 0.352180
outer loop
vertex -0.437500 -0.765625 0.328125
vertex -0.546875 -0.578125 0.437500
vertex -0.562500 -0.671875 0.242188
endloop
endfacet
facet normal 0.198707 -0.965146 0.170320
outer loop
vertex -0.273438 -0.796875 0.328125
vertex -0.351562 -0.804688 0.375000
vertex -0.351562 -0.828125 0.242188
endloop
endfacet
facet normal 0.059644 -0.954312 0.292800
outer loop
vertex -0.273438 -0.796875 0.328125
vertex -0.351562 -0.828125 0.242188
vertex -0.226562 -0.820312 0.242188
endloop
endfacet
facet normal 0.556636 -0.730699 0.395266
outer loop
vertex -0.273438 -0.796875 0.328125
vertex -0.140625 -0.742188 0.242188
vertex -0.156250 -0.648438 0.437500
endloop
endfacet
facet normal 0.306183 -0.709449 0.634770
outer loop
vertex -0.273438 -0.796875 0.328125
vertex -0.156250 -0.648438 0.437500
vertex -0.351562 -0.718750 0.453125
endloop
endfacet
facet normal 0.455196 -0.598942 0.658836
outer loop
vertex -0.273438 -0.796875 0.328125
vertex -0.351562 -0.718750 0.453125
vertex -0.351562 -0.804688 0.375000
endloop
endfacet
facet normal -0.578577 -0.548651 0.603516
outer loop
vertex -0.351562 -0.718750 0.453125
vertex -0.437500 -0.765625 0.328125
vertex -0.351562 -0.804688 0.375000
endloop
endfacet
facet normal 0.059115 -0.945835 -0.319219
outer loop
vertex -0.273438 -0.796875 0.164062
vertex -0.226562 -0.820312 0.242188
vertex -0.351562 -0.828125 0.242188
endloop
endfacet
facet normal 0.204449 -0.962111 -0.180396
outer loop
vertex -0.273438 -0.796875 0.164062
vertex -0.351562 -0.828125 0.242188
vertex -0.351562 -0.804688 0.117188
endloop
endfacet
facet normal 0.331299 -0.715099 -0.615528
outer loop
vertex -0.273438 -0.796875 0.164062
vertex -0.351562 -0.718750 0.031250
vertex -0.156250 -0.648438 0.054688
endloop
endfacet
facet normal 0.543288 -0.731930 -0.411239
outer loop
vertex -0.273438 -0.796875 0.164062
vertex -0.156250 -0.648438 0.054688
vertex -0.140625 -0.742188 0.242188
endloop
endfacet
facet normal 0.570275 -0.627303 -0.530356
outer loop
vertex -0.273438 -0.796875 0.164062
vertex -0.140625 -0.742188 0.242188
vertex -0.226562 -0.820312 0.242188
endloop
endfacet
facet normal 0.584726 -0.643199 0.494359
outer loop
vertex -0.140625 -0.742188 0.242188
vertex -0.273438 -0.796875 0.328125
vertex -0.226562 -0.820312 0.242188
endloop
endfacet
facet normal -0.480087 -0.862196 -0.161662
outer loop
vertex -0.437500 -0.765625 0.164062
vertex -0.351562 -0.804688 0.117188
vertex -0.351562 -0.828125 0.242188
endloop
endfacet
facet normal -0.384749 -0.879426 -0.280317
outer loop
vertex -0.437500 -0.765625 0.164062
vertex -0.351562 -0.828125 0.242188
vertex -0.476562 -0.773438 0.242188
endloop
endfacet
facet normal 0.062564 -0.988504 0.137640
outer loop
vertex 0.281250 -0.765625 0.398438
vertex 0.335938 -0.757812 0.429688
vertex 0.250000 -0.757812 0.468750
endloop
endfacet
facet normal 0.156701 -0.971548 0.177595
outer loop
vertex 0.281250 -0.765625 0.398438
vertex 0.250000 -0.757812 0.468750
vertex 0.210938 -0.781250 0.375000
endloop
endfacet
facet normal 0.178331 -0.891657 -0.416107
outer loop
vertex 0.109375 -0.734375 -0.718750
vertex 0.000000 -0.734375 -0.765625
vertex 0.093750 -0.726562 -0.742188
endloop
endfacet
facet normal 0.000000 -1.000000 0.000000
outer loop
vertex 0.000000 -0.734375 -0.765625
vertex 0.109375 -0.734375 -0.718750
vertex 0.117188 -0.734375 -0.687500
endloop
endfacet
facet normal 0.577350 -0.577350 0.577350
outer loop
vertex 0.000000 -0.820312 0.351562
vertex 0.000000 -0.742188 0.429688
vertex -0.101562 -0.843750 0.429688
endloop
endfacet
facet normal -0.055622 -0.927039 -0.370816
outer loop
vertex 0.000000 -0.828125 -0.203125
vertex -0.078125 -0.804688 -0.250000
vertex 0.000000 -0.781250 -0.320312
endloop
endfacet
facet normal 0.055622 -0.927039 -0.370816
outer loop
vertex 0.000000 -0.828125 -0.203125
vertex 0.000000 -0.781250 -0.320312
vertex 0.078125 -0.804688 -0.250000
endloop
endfacet
facet normal 0.467720 -0.857486 -0.214372
outer loop
vertex 0.000000 -0.750000 -0.445312
vertex 0.085938 -0.742188 -0.289062
vertex 0.000000 -0.781250 -0.320312
endloop
endfacet
facet normal -0.467720 -0.857486 -0.214372
outer loop
vertex 0.000000 -0.750000 -0.445312
vertex 0.000000 -0.781250 -0.320312
vertex -0.085938 -0.742188 -0.289062
endloop
endfacet
facet normal -0.722993 -0.683912 0.097702
outer loop
vertex 0.000000 -0.742188 -0.140625
vertex 0.000000 -0.750000 -0.195312
vertex 0.039062 -0.781250 -0.125000
endloop
endfacet
facet normal 0.374655 -0.403953 -0.834539
outer loop
vertex 0.125000 -0.812500 -0.101562
vertex 0.203125 -0.562500 -0.187500
vertex 0.398438 -0.671875 -0.046875
endloop
endfacet
facet normal -0.312808 -0.935166 -0.166179
outer loop
vertex -0.117188 -0.710938 -0.835938
vertex -0.109375 -0.734375 -0.718750
vertex -0.265625 -0.664062 -0.820312
endloop
endfacet
facet normal 0.000000 -0.707107 -0.707107
outer loop
vertex -0.164062 -0.632812 -0.929688
vertex 0.000000 -0.578125 -0.984375
vertex 0.164062 -0.632812 -0.929688
endloop
endfacet
facet normal 0.000000 -0.581238 -0.813733
outer loop
vertex -0.164062 -0.632812 -0.929688
vertex 0.164062 -0.632812 -0.929688
vertex 0.000000 -0.687500 -0.890625
endloop
endfacet
facet normal 0.072377 -0.951238 -0.299847
outer loop
vertex 0.195312 -0.757812 0.296875
vertex 0.210938 -0.781250 0.375000
vertex 0.125000 -0.765625 0.304688
endloop
endfacet
facet normal 0.134128 -0.959528 0.247620
outer loop
vertex 0.195312 -0.757812 0.296875
vertex 0.125000 -0.765625 0.304688
vertex 0.171875 -0.781250 0.218750
endloop
endfacet
facet normal 0.694731 -0.584142 -0.419675
outer loop
vertex 0.617188 -0.625000 0.054688
vertex 0.632812 -0.539062 -0.039062
vertex 0.726562 -0.601562 0.203125
endloop
endfacet
facet normal -0.481543 -0.842701 -0.240772
outer loop
vertex -0.398438 -0.671875 -0.046875
vertex -0.125000 -0.812500 -0.101562
vertex -0.375000 -0.703125 0.015625
endloop
endfacet
facet normal -0.425985 -0.902681 -0.060855
outer loop
vertex -0.726562 -0.601562 0.203125
vertex -0.625000 -0.648438 0.187500
vertex -0.640625 -0.648438 0.296875
endloop
endfacet
facet normal 0.434968 -0.882018 -0.181237
outer loop
vertex 0.617188 -0.625000 0.054688
vertex 0.726562 -0.601562 0.203125
vertex 0.625000 -0.648438 0.187500
endloop
endfacet
facet normal -0.115510 -0.887779 -0.445540
outer loop
vertex -0.250000 -0.757812 0.468750
vertex -0.312500 -0.835938 0.640625
vertex -0.429688 -0.718750 0.437500
endloop
endfacet
facet normal -0.268167 -0.761594 0.589967
outer loop
vertex -0.250000 -0.757812 0.468750
vertex -0.429688 -0.718750 0.437500
vertex -0.335938 -0.757812 0.429688
endloop
endfacet
facet normal 0.292336 -0.076262 -0.953270
outer loop
vertex 0.164062 -0.632812 -0.929688
vertex 0.000000 -0.578125 -0.984375
vertex 0.164062 -0.437500 -0.945312
endloop
endfacet
facet normal -0.041735 -0.079676 -0.995947
outer loop
vertex 0.164062 -0.632812 -0.929688
vertex 0.164062 -0.437500 -0.945312
vertex 0.328125 -0.523438 -0.945312
endloop
endfacet
facet normal -0.172452 -0.388018 -0.905374
outer loop
vertex 0.000000 -0.578125 -0.984375
vertex -0.164062 -0.632812 -0.929688
vertex -0.328125 -0.523438 -0.945312
endloop
endfacet
facet normal -0.088648 0.169238 -0.981580
outer loop
vertex 0.000000 -0.578125 -0.984375
vertex -0.328125 -0.523438 -0.945312
vertex -0.164062 -0.437500 -0.945312
endloop
endfacet
facet normal -0.503424 0.860462 -0.078548
outer loop
vertex 0.000000 -0.281250 -0.484375
vertex -0.125000 -0.359375 -0.539062
vertex -0.234375 -0.406250 -0.351562
endloop
endfacet
facet normal -0.449813 -0.099623 -0.887550
outer loop
vertex 0.000000 -0.281250 -0.484375
vertex -0.234375 -0.406250 -0.351562
vertex -0.210938 -0.164062 -0.390625
endloop
endfacet
facet normal 0.946091 -0.182820 0.267374
outer loop
vertex 0.265625 -0.664062 -0.820312
vertex 0.328125 -0.523438 -0.945312
vertex 0.289062 -0.382812 -0.710938
endloop
endfacet
facet normal 0.736002 0.191216 -0.649413
outer loop
vertex 0.265625 -0.664062 -0.820312
vertex 0.289062 -0.382812 -0.710938
vertex 0.351562 -0.570312 -0.695312
endloop
endfacet
facet normal -0.831526 -0.526633 -0.176699
outer loop
vertex -0.328125 -0.523438 -0.945312
vertex -0.265625 -0.664062 -0.820312
vertex -0.351562 -0.570312 -0.695312
endloop
endfacet
facet normal -0.949003 0.313824 -0.030127
outer loop
vertex -0.328125 -0.523438 -0.945312
vertex -0.351562 -0.570312 -0.695312
vertex -0.289062 -0.382812 -0.710938
endloop
endfacet
facet normal 0.232562 0.912360 -0.336917
outer loop
vertex 0.289062 -0.382812 -0.710938
vertex 0.164062 -0.437500 -0.945312
vertex 0.000000 -0.343750 -0.804688
endloop
endfacet
facet normal 0.135692 0.990735 -0.005576
outer loop
vertex 0.289062 -0.382812 -0.710938
vertex 0.000000 -0.343750 -0.804688
vertex 0.125000 -0.359375 -0.539062
endloop
endfacet
facet normal 0.861274 -0.453398 0.229430
outer loop
vertex 0.257812 -0.554688 -0.312500
vertex 0.210938 -0.710938 -0.445312
vertex 0.351562 -0.570312 -0.695312
endloop
endfacet
facet normal 0.951713 0.209357 0.224527
outer loop
vertex 0.257812 -0.554688 -0.312500
vertex 0.351562 -0.570312 -0.695312
vertex 0.234375 -0.406250 -0.351562
endloop
endfacet
facet normal -0.861274 -0.453398 0.229430
outer loop
vertex -0.351562 -0.570312 -0.695312
vertex -0.210938 -0.710938 -0.445312
vertex -0.257812 -0.554688 -0.312500
endloop
endfacet
facet normal -0.951713 0.209357 0.224527
outer loop
vertex -0.351562 -0.570312 -0.695312
vertex -0.257812 -0.554688 -0.312500
vertex -0.234375 -0.406250 -0.351562
endloop
endfacet
facet normal 0.451466 -0.282166 -0.846499
outer loop
vertex 0.398438 -0.671875 -0.046875
vertex 0.203125 -0.562500 -0.187500
vertex 0.437500 -0.468750 -0.093750
endloop
endfacet
facet normal 0.175222 -0.253250 -0.951400
outer loop
vertex 0.398438 -0.671875 -0.046875
vertex 0.437500 -0.468750 -0.093750
vertex 0.632812 -0.539062 -0.039062
endloop
endfacet
facet normal -0.307685 -0.495181 -0.812481
outer loop
vertex -0.203125 -0.562500 -0.187500
vertex -0.398438 -0.671875 -0.046875
vertex -0.632812 -0.539062 -0.039062
endloop
endfacet
facet normal -0.315704 0.147986 -0.937247
outer loop
vertex -0.203125 -0.562500 -0.187500
vertex -0.632812 -0.539062 -0.039062
vertex -0.437500 -0.468750 -0.093750
endloop
endfacet
facet normal 0.736521 0.280809 -0.615372
outer loop
vertex 0.343750 0.539062 -0.148438
vertex 0.484375 0.546875 0.023438
vertex 0.429688 0.210938 -0.195312
endloop
endfacet
facet normal 0.873288 -0.196642 -0.445758
outer loop
vertex 0.734375 -0.070312 -0.046875
vertex 0.773438 -0.375000 0.164062
vertex 0.632812 -0.539062 -0.039062
endloop
endfacet
facet normal 0.245748 -0.069360 -0.966849
outer loop
vertex 0.734375 -0.070312 -0.046875
vertex 0.632812 -0.539062 -0.039062
vertex 0.437500 -0.468750 -0.093750
endloop
endfacet
facet normal 0.878907 -0.251701 -0.405177
outer loop
vertex 0.726562 -0.601562 0.203125
vertex 0.632812 -0.539062 -0.039062
vertex 0.773438 -0.375000 0.164062
endloop
endfacet
facet normal 0.837679 -0.256452 -0.482210
outer loop
vertex 0.726562 -0.601562 0.203125
vertex 0.773438 -0.375000 0.164062
vertex 0.859375 -0.593750 0.429688
endloop
endfacet
facet normal -0.749552 -0.510152 -0.421801
outer loop
vertex -0.632812 -0.539062 -0.039062
vertex -0.726562 -0.601562 0.203125
vertex -0.859375 -0.593750 0.429688
endloop
endfacet
facet normal -0.873400 -0.197454 -0.445179
outer loop
vertex -0.632812 -0.539062 -0.039062
vertex -0.859375 -0.593750 0.429688
vertex -0.773438 -0.375000 0.164062
endloop
endfacet
facet normal -0.873288 -0.196642 -0.445758
outer loop
vertex -0.632812 -0.539062 -0.039062
vertex -0.773438 -0.375000 0.164062
vertex -0.734375 -0.070312 -0.046875
endloop
endfacet
facet normal -0.245748 -0.069360 -0.966849
outer loop
vertex -0.632812 -0.539062 -0.039062
vertex -0.734375 -0.070312 -0.046875
vertex -0.437500 -0.468750 -0.093750
endloop
endfacet
facet normal 0.242858 0.211181 0.946796
outer loop
vertex 0.726562 -0.335938 0.406250
vertex 0.679688 -0.492188 0.453125
vertex 0.859375 -0.593750 0.429688
endloop
endfacet
facet normal 0.881296 0.462723 0.095941
outer loop
vertex 0.726562 -0.335938 0.406250
vertex 0.859375 -0.593750 0.429688
vertex 0.773438 -0.375000 0.164062
endloop
endfacet
facet normal 0.036408 -0.163109 0.985936
outer loop
vertex 0.687500 -0.726562 0.414062
vertex 0.859375 -0.593750 0.429688
vertex 0.679688 -0.492188 0.453125
endloop
endfacet
facet normal 0.678816 -0.098648 0.727652
outer loop
vertex 0.687500 -0.726562 0.414062
vertex 0.679688 -0.492188 0.453125
vertex 0.492188 -0.687500 0.601562
endloop
endfacet
facet normal -0.451019 -0.654997 0.606269
outer loop
vertex -0.859375 -0.593750 0.429688
vertex -0.687500 -0.726562 0.414062
vertex -0.492188 -0.687500 0.601562
endloop
endfacet
facet normal -0.318254 0.360754 0.876682
outer loop
vertex -0.859375 -0.593750 0.429688
vertex -0.492188 -0.687500 0.601562
vertex -0.679688 -0.492188 0.453125
endloop
endfacet
facet normal -0.242858 0.211181 0.946796
outer loop
vertex -0.859375 -0.593750 0.429688
vertex -0.679688 -0.492188 0.453125
vertex -0.726562 -0.335938 0.406250
endloop
endfacet
facet normal -0.881296 0.462723 0.095941
outer loop
vertex -0.859375 -0.593750 0.429688
vertex -0.726562 -0.335938 0.406250
vertex -0.773438 -0.375000 0.164062
endloop
endfacet
facet normal 0.591352 0.299101 0.748894
outer loop
vertex 0.492188 -0.687500 0.601562
vertex 0.484375 -0.554688 0.554688
vertex 0.335938 -0.593750 0.687500
endloop
endfacet
facet normal 0.370865 -0.210938 0.904414
outer loop
vertex 0.312500 -0.835938 0.640625
vertex 0.492188 -0.687500 0.601562
vertex 0.335938 -0.593750 0.687500
endloop
endfacet
facet normal 0.350931 -0.210559 0.912421
outer loop
vertex 0.312500 -0.835938 0.640625
vertex 0.335938 -0.593750 0.687500
vertex 0.156250 -0.757812 0.718750
endloop
endfacet
facet normal -0.359130 -0.194529 0.912789
outer loop
vertex -0.492188 -0.687500 0.601562
vertex -0.312500 -0.835938 0.640625
vertex -0.156250 -0.757812 0.718750
endloop
endfacet
facet normal -0.362556 -0.224811 0.904441
outer loop
vertex -0.492188 -0.687500 0.601562
vertex -0.156250 -0.757812 0.718750
vertex -0.335938 -0.593750 0.687500
endloop
endfacet
facet normal -0.591352 0.299101 0.748894
outer loop
vertex -0.484375 -0.554688 0.554688
vertex -0.492188 -0.687500 0.601562
vertex -0.335938 -0.593750 0.687500
endloop
endfacet
facet normal 0.538922 0.683915 0.491755
outer loop
vertex -0.335938 -0.593750 0.687500
vertex -0.156250 -0.757812 0.718750
vertex -0.109375 -0.609375 0.460938
endloop
endfacet
facet normal -0.982984 0.008299 0.183503
outer loop
vertex 0.101562 -0.843750 0.429688
vertex 0.156250 -0.757812 0.718750
vertex 0.109375 -0.609375 0.460938
endloop
endfacet
facet normal -0.126936 -0.126936 0.983755
outer loop
vertex 0.101562 -0.843750 0.429688
vertex 0.109375 -0.609375 0.460938
vertex 0.000000 -0.742188 0.429688
endloop
endfacet
facet normal 0.668650 -0.668650 0.325289
outer loop
vertex -0.156250 -0.757812 0.718750
vertex -0.101562 -0.843750 0.429688
vertex 0.000000 -0.742188 0.429688
endloop
endfacet
facet normal 0.744006 0.511577 0.429818
outer loop
vertex -0.156250 -0.757812 0.718750
vertex 0.000000 -0.742188 0.429688
vertex -0.109375 -0.609375 0.460938
endloop
endfacet
facet normal 0.185396 -0.848545 -0.495579
outer loop
vertex 0.101562 -0.843750 0.429688
vertex 0.000000 -0.820312 0.351562
vertex 0.125000 -0.765625 0.304688
endloop
endfacet
facet normal 0.499335 -0.866367 0.008536
outer loop
vertex 0.210938 -0.781250 0.375000
vertex 0.250000 -0.757812 0.468750
vertex 0.101562 -0.843750 0.429688
endloop
endfacet
facet normal 0.240772 -0.842701 -0.481543
outer loop
vertex 0.210938 -0.781250 0.375000
vertex 0.101562 -0.843750 0.429688
vertex 0.125000 -0.765625 0.304688
endloop
endfacet
facet normal -0.499335 -0.866367 0.008536
outer loop
vertex -0.101562 -0.843750 0.429688
vertex -0.250000 -0.757812 0.468750
vertex -0.210938 -0.781250 0.375000
endloop
endfacet
facet normal -0.240772 -0.842701 -0.481543
outer loop
vertex -0.101562 -0.843750 0.429688
vertex -0.210938 -0.781250 0.375000
vertex -0.125000 -0.765625 0.304688
endloop
endfacet
facet normal -0.182034 -0.982983 0.024663
outer loop
vertex -0.210938 -0.710938 -0.445312
vertex -0.117188 -0.734375 -0.687500
vertex 0.000000 -0.750000 -0.445312
endloop
endfacet
facet normal -0.181853 -0.982006 -0.050919
outer loop
vertex -0.210938 -0.710938 -0.445312
vertex 0.000000 -0.750000 -0.445312
vertex -0.085938 -0.742188 -0.289062
endloop
endfacet
facet normal -0.162975 -0.919177 -0.358544
outer loop
vertex 0.312500 -0.835938 0.640625
vertex 0.250000 -0.757812 0.468750
vertex 0.335938 -0.757812 0.429688
endloop
endfacet
facet normal 0.388950 -0.877149 -0.281653
outer loop
vertex 0.312500 -0.835938 0.640625
vertex 0.335938 -0.757812 0.429688
vertex 0.429688 -0.718750 0.437500
endloop
endfacet
facet normal -0.059976 -0.935626 -0.347861
outer loop
vertex 0.687500 -0.726562 0.414062
vertex 0.429688 -0.718750 0.437500
vertex 0.562500 -0.695312 0.351562
endloop
endfacet
facet normal 0.084697 -0.813092 -0.575940
outer loop
vertex 0.687500 -0.726562 0.414062
vertex 0.562500 -0.695312 0.351562
vertex 0.640625 -0.648438 0.296875
endloop
endfacet
facet normal 0.059976 -0.935626 -0.347861
outer loop
vertex -0.429688 -0.718750 0.437500
vertex -0.687500 -0.726562 0.414062
vertex -0.562500 -0.695312 0.351562
endloop
endfacet
facet normal -0.084697 -0.813092 -0.575940
outer loop
vertex -0.687500 -0.726562 0.414062
vertex -0.640625 -0.648438 0.296875
vertex -0.562500 -0.695312 0.351562
endloop
endfacet
facet normal -0.408248 -0.816497 0.408248
outer loop
vertex -0.429688 -0.718750 0.437500
vertex -0.562500 -0.695312 0.351562
vertex -0.414062 -0.750000 0.390625
endloop
endfacet
facet normal -0.310316 -0.835467 0.453539
outer loop
vertex -0.429688 -0.718750 0.437500
vertex -0.414062 -0.750000 0.390625
vertex -0.335938 -0.757812 0.429688
endloop
endfacet
facet normal 0.503815 -0.845110 -0.178773
outer loop
vertex 0.617188 -0.625000 0.054688
vertex 0.625000 -0.648438 0.187500
vertex 0.476562 -0.718750 0.101562
endloop
endfacet
facet normal 0.336146 -0.773136 -0.537834
outer loop
vertex 0.617188 -0.625000 0.054688
vertex 0.476562 -0.718750 0.101562
vertex 0.375000 -0.703125 0.015625
endloop
endfacet
facet normal -0.328416 -0.926666 -0.182848
outer loop
vertex -0.625000 -0.648438 0.187500
vertex -0.617188 -0.625000 0.054688
vertex -0.375000 -0.703125 0.015625
endloop
endfacet
facet normal -0.583365 -0.318199 -0.747285
outer loop
vertex -0.625000 -0.648438 0.187500
vertex -0.375000 -0.703125 0.015625
vertex -0.476562 -0.718750 0.101562
endloop
endfacet
facet normal -0.516784 -0.828805 -0.214514
outer loop
vertex -0.578125 -0.679688 0.195312
vertex -0.625000 -0.648438 0.187500
vertex -0.476562 -0.718750 0.101562
endloop
endfacet
facet normal 0.408248 -0.816497 0.408248
outer loop
vertex 0.414062 -0.750000 0.390625
vertex 0.562500 -0.695312 0.351562
vertex 0.429688 -0.718750 0.437500
endloop
endfacet
facet normal 0.310316 -0.835467 0.453539
outer loop
vertex 0.414062 -0.750000 0.390625
vertex 0.429688 -0.718750 0.437500
vertex 0.335938 -0.757812 0.429688
endloop
endfacet
facet normal 0.428168 -0.900769 -0.072708
outer loop
vertex 0.125000 -0.812500 -0.101562
vertex 0.375000 -0.703125 0.015625
vertex 0.226562 -0.781250 0.109375
endloop
endfacet
facet normal -0.311294 -0.906814 0.284225
outer loop
vertex 0.125000 -0.812500 -0.101562
vertex 0.226562 -0.781250 0.109375
vertex 0.164062 -0.750000 0.140625
endloop
endfacet
facet normal -0.428168 -0.900769 -0.072708
outer loop
vertex -0.375000 -0.703125 0.015625
vertex -0.125000 -0.812500 -0.101562
vertex -0.226562 -0.781250 0.109375
endloop
endfacet
facet normal 0.311294 -0.906814 0.284225
outer loop
vertex -0.125000 -0.812500 -0.101562
vertex -0.164062 -0.750000 0.140625
vertex -0.226562 -0.781250 0.109375
endloop
endfacet
facet normal -0.286982 -0.908778 -0.302926
outer loop
vertex -0.375000 -0.703125 0.015625
vertex -0.226562 -0.781250 0.109375
vertex -0.375000 -0.726562 0.085938
endloop
endfacet
facet normal -0.120736 -0.941743 -0.313914
outer loop
vertex -0.375000 -0.703125 0.015625
vertex -0.375000 -0.726562 0.085938
vertex -0.476562 -0.718750 0.101562
endloop
endfacet
facet normal 0.516784 -0.828805 -0.214514
outer loop
vertex 0.625000 -0.648438 0.187500
vertex 0.578125 -0.679688 0.195312
vertex 0.476562 -0.718750 0.101562
endloop
endfacet
facet normal -0.538922 0.683915 0.491755
outer loop
vertex 0.156250 -0.757812 0.718750
vertex 0.335938 -0.593750 0.687500
vertex 0.109375 -0.609375 0.460938
endloop
endfacet
facet normal -0.652484 -0.723849 -0.224291
outer loop
vertex 0.164062 -0.750000 0.140625
vertex 0.171875 -0.781250 0.218750
vertex 0.125000 -0.765625 0.304688
endloop
endfacet
facet normal 0.060299 -0.994937 -0.080399
outer loop
vertex 0.164062 -0.750000 0.140625
vertex 0.125000 -0.765625 0.304688
vertex 0.000000 -0.765625 0.210938
endloop
endfacet
facet normal 0.067847 -0.928658 -0.364679
outer loop
vertex -0.171875 -0.781250 0.218750
vertex -0.164062 -0.750000 0.140625
vertex 0.000000 -0.765625 0.210938
endloop
endfacet
facet normal 0.095539 -0.987241 0.127386
outer loop
vertex -0.171875 -0.781250 0.218750
vertex 0.000000 -0.765625 0.210938
vertex -0.125000 -0.765625 0.304688
endloop
endfacet
facet normal -0.072377 -0.951238 -0.299847
outer loop
vertex -0.210938 -0.781250 0.375000
vertex -0.195312 -0.757812 0.296875
vertex -0.125000 -0.765625 0.304688
endloop
endfacet
facet normal -0.134128 -0.959528 0.247620
outer loop
vertex -0.195312 -0.757812 0.296875
vertex -0.171875 -0.781250 0.218750
vertex -0.125000 -0.765625 0.304688
endloop
endfacet
facet normal -0.863403 -0.358132 0.355355
outer loop
vertex -0.257812 -0.554688 -0.312500
vertex -0.164062 -0.710938 -0.242188
vertex -0.203125 -0.562500 -0.187500
endloop
endfacet
facet normal -0.910097 0.092470 0.403947
outer loop
vertex -0.257812 -0.554688 -0.312500
vertex -0.203125 -0.562500 -0.187500
vertex -0.210938 -0.468750 -0.226562
endloop
endfacet
facet normal 0.201569 -0.892664 -0.403139
outer loop
vertex 0.046875 -0.687500 -0.867188
vertex 0.000000 -0.687500 -0.890625
vertex 0.164062 -0.632812 -0.929688
endloop
endfacet
facet normal 0.023447 -0.773745 -0.633064
outer loop
vertex 0.046875 -0.687500 -0.867188
vertex 0.164062 -0.632812 -0.929688
vertex 0.117188 -0.710938 -0.835938
endloop
endfacet
facet normal -0.201569 -0.892664 -0.403139
outer loop
vertex -0.164062 -0.632812 -0.929688
vertex 0.000000 -0.687500 -0.890625
vertex -0.046875 -0.687500 -0.867188
endloop
endfacet
facet normal -0.023447 -0.773745 -0.633064
outer loop
vertex -0.164062 -0.632812 -0.929688
vertex -0.046875 -0.687500 -0.867188
vertex -0.117188 -0.710938 -0.835938
endloop
endfacet
facet normal 0.150705 -0.626005 -0.765118
outer loop
vertex -0.093750 -0.726562 -0.742188
vertex -0.093750 -0.640625 -0.812500
vertex 0.000000 -0.656250 -0.781250
endloop
endfacet
facet normal -0.577350 -0.577350 -0.577350
outer loop
vertex 0.125000 -0.812500 -0.101562
vertex 0.101562 -0.742188 -0.148438
vertex 0.164062 -0.710938 -0.242188
endloop
endfacet
facet normal 0.312808 -0.935166 -0.166179
outer loop
vertex 0.109375 -0.734375 -0.718750
vertex 0.117188 -0.710938 -0.835938
vertex 0.265625 -0.664062 -0.820312
endloop
endfacet
facet normal 0.000000 -1.000000 0.000000
outer loop
vertex -0.117188 -0.734375 -0.687500
vertex 0.000000 -0.734375 -0.765625
vertex 0.117188 -0.734375 -0.687500
endloop
endfacet
facet normal 0.000000 -0.997925 -0.064382
outer loop
vertex -0.117188 -0.734375 -0.687500
vertex 0.117188 -0.734375 -0.687500
vertex 0.000000 -0.750000 -0.445312
endloop
endfacet
facet normal 0.144857 -0.814822 0.561322
outer loop
vertex -0.093750 -0.812500 -0.156250
vertex 0.000000 -0.828125 -0.203125
vertex -0.039062 -0.781250 -0.125000
endloop
endfacet
facet normal 0.722993 -0.683912 0.097702
outer loop
vertex 0.000000 -0.742188 -0.140625
vertex -0.039062 -0.781250 -0.125000
vertex 0.000000 -0.750000 -0.195312
endloop
endfacet
facet normal 0.580539 -0.345186 -0.737442
outer loop
vertex 0.132812 -0.796875 -0.226562
vertex 0.085938 -0.742188 -0.289062
vertex 0.164062 -0.710938 -0.242188
endloop
endfacet
facet normal 0.844026 -0.217813 0.490079
outer loop
vertex 0.132812 -0.796875 -0.226562
vertex 0.164062 -0.710938 -0.242188
vertex 0.101562 -0.742188 -0.148438
endloop
endfacet
facet normal -0.580539 -0.345186 -0.737442
outer loop
vertex -0.085938 -0.742188 -0.289062
vertex -0.132812 -0.796875 -0.226562
vertex -0.164062 -0.710938 -0.242188
endloop
endfacet
facet normal -0.844026 -0.217813 0.490079
outer loop
vertex -0.132812 -0.796875 -0.226562
vertex -0.101562 -0.742188 -0.148438
vertex -0.164062 -0.710938 -0.242188
endloop
endfacet
facet normal -0.574696 -0.596799 -0.559960
outer loop
vertex -0.085938 -0.742188 -0.289062
vertex -0.164062 -0.710938 -0.242188
vertex -0.257812 -0.554688 -0.312500
endloop
endfacet
facet normal -0.689800 -0.577782 0.436284
outer loop
vertex -0.085938 -0.742188 -0.289062
vertex -0.257812 -0.554688 -0.312500
vertex -0.210938 -0.710938 -0.445312
endloop
endfacet
facet normal 0.425985 -0.902681 -0.060855
outer loop
vertex 0.625000 -0.648438 0.187500
vertex 0.726562 -0.601562 0.203125
vertex 0.640625 -0.648438 0.296875
endloop
endfacet
facet normal -0.211393 -0.972410 -0.098650
outer loop
vertex 0.000000 -0.828125 -0.203125
vertex -0.093750 -0.812500 -0.156250
vertex -0.132812 -0.796875 -0.226562
endloop
endfacet
facet normal -0.201711 -0.968211 -0.147921
outer loop
vertex 0.000000 -0.828125 -0.203125
vertex -0.132812 -0.796875 -0.226562
vertex -0.078125 -0.804688 -0.250000
endloop
endfacet
facet normal -0.881900 -0.046910 0.469096
outer loop
vertex 0.039062 -0.781250 -0.125000
vertex 0.000000 -0.750000 -0.195312
vertex 0.000000 -0.828125 -0.203125
endloop
endfacet
facet normal 0.881900 -0.046910 0.469096
outer loop
vertex 0.000000 -0.750000 -0.195312
vertex -0.039062 -0.781250 -0.125000
vertex 0.000000 -0.828125 -0.203125
endloop
endfacet
facet normal -0.178331 -0.891657 -0.416107
outer loop
vertex 0.000000 -0.734375 -0.765625
vertex -0.109375 -0.734375 -0.718750
vertex -0.093750 -0.726562 -0.742188
endloop
endfacet
facet normal 0.958645 -0.276745 0.066419
outer loop
vertex 0.203125 -0.562500 -0.187500
vertex 0.125000 -0.812500 -0.101562
vertex 0.164062 -0.710938 -0.242188
endloop
endfacet
facet normal 0.770637 -0.188432 0.608779
outer loop
vertex 0.164062 -0.710938 -0.242188
vertex 0.257812 -0.554688 -0.312500
vertex 0.210938 -0.468750 -0.226562
endloop
endfacet
facet normal 0.960286 -0.171671 -0.219954
outer loop
vertex 0.164062 -0.710938 -0.242188
vertex 0.210938 -0.468750 -0.226562
vertex 0.203125 -0.562500 -0.187500
endloop
endfacet
facet normal 0.187647 -0.975763 -0.112588
outer loop
vertex 0.078125 -0.804688 -0.250000
vertex 0.132812 -0.796875 -0.226562
vertex 0.093750 -0.812500 -0.156250
endloop
endfacet
facet normal 0.220089 -0.968392 -0.117381
outer loop
vertex 0.078125 -0.804688 -0.250000
vertex 0.093750 -0.812500 -0.156250
vertex 0.000000 -0.828125 -0.203125
endloop
endfacet
facet normal -0.293982 -0.835529 0.464183
outer loop
vertex -0.093750 -0.640625 -0.812500
vertex -0.046875 -0.687500 -0.867188
vertex 0.000000 -0.656250 -0.781250
endloop
endfacet
facet normal -0.144857 -0.814822 0.561322
outer loop
vertex 0.000000 -0.828125 -0.203125
vertex 0.093750 -0.812500 -0.156250
vertex 0.039062 -0.781250 -0.125000
endloop
endfacet
facet normal -0.069264 0.429439 0.900436
outer loop
vertex -0.039062 -0.781250 -0.125000
vertex 0.000000 -0.742188 -0.140625
vertex -0.101562 -0.742188 -0.148438
endloop
endfacet
facet normal -0.063119 -0.568075 -0.820553
outer loop
vertex 0.000000 -0.742188 -0.140625
vertex 0.101562 -0.742188 -0.148438
vertex 0.125000 -0.812500 -0.101562
endloop
endfacet
facet normal -0.505913 -0.859605 0.071634
outer loop
vertex 0.000000 -0.742188 -0.140625
vertex 0.125000 -0.812500 -0.101562
vertex 0.000000 -0.726562 0.046875
endloop
endfacet
facet normal 0.063119 -0.568075 -0.820553
outer loop
vertex -0.125000 -0.812500 -0.101562
vertex -0.101562 -0.742188 -0.148438
vertex 0.000000 -0.742188 -0.140625
endloop
endfacet
facet normal 0.505913 -0.859605 0.071634
outer loop
vertex -0.125000 -0.812500 -0.101562
vertex 0.000000 -0.742188 -0.140625
vertex 0.000000 -0.726562 0.046875
endloop
endfacet
facet normal -0.878123 -0.148117 0.454931
outer loop
vertex -0.101562 -0.742188 -0.148438
vertex -0.132812 -0.796875 -0.226562
vertex -0.093750 -0.812500 -0.156250
endloop
endfacet
facet normal -0.426326 -0.146549 0.892619
outer loop
vertex -0.101562 -0.742188 -0.148438
vertex -0.093750 -0.812500 -0.156250
vertex -0.039062 -0.781250 -0.125000
endloop
endfacet
facet normal 0.577350 -0.577350 -0.577350
outer loop
vertex -0.125000 -0.812500 -0.101562
vertex -0.164062 -0.710938 -0.242188
vertex -0.101562 -0.742188 -0.148438
endloop
endfacet
facet normal 0.069264 0.429439 0.900436
outer loop
vertex 0.000000 -0.742188 -0.140625
vertex 0.039062 -0.781250 -0.125000
vertex 0.101562 -0.742188 -0.148438
endloop
endfacet
facet normal 0.011240 -0.921683 0.387781
outer loop
vertex 0.546875 -0.671875 0.210938
vertex 0.375000 -0.726562 0.085938
vertex 0.476562 -0.718750 0.101562
endloop
endfacet
facet normal 0.252982 -0.189737 -0.948683
outer loop
vertex 0.093750 -0.726562 -0.742188
vertex 0.000000 -0.734375 -0.765625
vertex 0.000000 -0.656250 -0.781250
endloop
endfacet
facet normal -0.252982 -0.189737 -0.948683
outer loop
vertex 0.000000 -0.734375 -0.765625
vertex -0.093750 -0.726562 -0.742188
vertex 0.000000 -0.656250 -0.781250
endloop
endfacet
facet normal -0.168134 0.980627 0.100505
outer loop
vertex 0.484375 -0.554688 0.554688
vertex 0.109375 -0.609375 0.460938
vertex 0.335938 -0.593750 0.687500
endloop
endfacet
facet normal -0.481621 -0.417405 0.770594
outer loop
vertex 0.093750 -0.640625 -0.812500
vertex 0.046875 -0.687500 -0.867188
vertex 0.117188 -0.710938 -0.835938
endloop
endfacet
facet normal -0.936631 -0.221834 -0.271130
outer loop
vertex 0.093750 -0.640625 -0.812500
vertex 0.117188 -0.710938 -0.835938
vertex 0.093750 -0.726562 -0.742188
endloop
endfacet
facet normal 0.481621 -0.417405 0.770594
outer loop
vertex -0.046875 -0.687500 -0.867188
vertex -0.093750 -0.640625 -0.812500
vertex -0.117188 -0.710938 -0.835938
endloop
endfacet
facet normal 0.936631 -0.221834 -0.271130
outer loop
vertex -0.093750 -0.640625 -0.812500
vertex -0.093750 -0.726562 -0.742188
vertex -0.117188 -0.710938 -0.835938
endloop
endfacet
facet normal 0.119051 -0.992095 0.039684
outer loop
vertex 0.281250 -0.765625 0.398438
vertex 0.414062 -0.750000 0.390625
vertex 0.335938 -0.757812 0.429688
endloop
endfacet
facet normal 0.330520 -0.940712 0.076274
outer loop
vertex 0.164062 -0.710938 -0.242188
vertex 0.085938 -0.742188 -0.289062
vertex 0.210938 -0.710938 -0.445312
endloop
endfacet
facet normal 0.877253 -0.435252 0.202443
outer loop
vertex 0.164062 -0.710938 -0.242188
vertex 0.210938 -0.710938 -0.445312
vertex 0.257812 -0.554688 -0.312500
endloop
endfacet
facet normal 0.878123 -0.148117 0.454931
outer loop
vertex 0.093750 -0.812500 -0.156250
vertex 0.132812 -0.796875 -0.226562
vertex 0.101562 -0.742188 -0.148438
endloop
endfacet
facet normal 0.426326 -0.146549 0.892619
outer loop
vertex 0.093750 -0.812500 -0.156250
vertex 0.101562 -0.742188 -0.148438
vertex 0.039062 -0.781250 -0.125000
endloop
endfacet
facet normal 0.175113 -0.963119 -0.204298
outer loop
vertex -0.093750 -0.726562 -0.742188
vertex -0.109375 -0.734375 -0.718750
vertex -0.117188 -0.710938 -0.835938
endloop
endfacet
facet normal 0.000000 -0.939793 0.341743
outer loop
vertex -0.046875 -0.687500 -0.867188
vertex 0.046875 -0.687500 -0.867188
vertex 0.000000 -0.656250 -0.781250
endloop
endfacet
facet normal 0.000000 -1.000000 0.000000
outer loop
vertex -0.046875 -0.687500 -0.867188
vertex 0.000000 -0.687500 -0.890625
vertex 0.046875 -0.687500 -0.867188
endloop
endfacet
facet normal -0.359533 -0.928793 -0.089883
outer loop
vertex -0.265625 -0.664062 -0.820312
vertex -0.109375 -0.734375 -0.718750
vertex -0.117188 -0.734375 -0.687500
endloop
endfacet
facet normal 0.179836 -0.979107 -0.094913
outer loop
vertex 0.921875 0.218750 0.359375
vertex 0.820312 0.203125 0.328125
vertex 0.796875 0.210938 0.203125
endloop
endfacet
facet normal 0.581891 -0.689649 -0.431030
outer loop
vertex 0.921875 0.218750 0.359375
vertex 0.796875 0.210938 0.203125
vertex 0.890625 0.265625 0.242188
endloop
endfacet
facet normal -0.150705 -0.626005 -0.765118
outer loop
vertex 0.093750 -0.640625 -0.812500
vertex 0.093750 -0.726562 -0.742188
vertex 0.000000 -0.656250 -0.781250
endloop
endfacet
facet normal 0.006618 -0.972785 -0.231615
outer loop
vertex -0.164062 -0.750000 0.140625
vertex 0.000000 -0.726562 0.046875
vertex 0.000000 -0.765625 0.210938
endloop
endfacet
facet normal 0.746041 -0.091670 -0.659560
outer loop
vertex 0.406250 -0.148438 -0.171875
vertex 0.210938 -0.164062 -0.390625
vertex 0.429688 0.210938 -0.195312
endloop
endfacet
facet normal -0.262316 -0.899368 -0.349754
outer loop
vertex 0.000000 -0.765625 0.210938
vertex 0.000000 -0.820312 0.351562
vertex -0.125000 -0.765625 0.304688
endloop
endfacet
facet normal -0.185396 -0.848545 -0.495579
outer loop
vertex 0.000000 -0.820312 0.351562
vertex -0.101562 -0.843750 0.429688
vertex -0.125000 -0.765625 0.304688
endloop
endfacet
facet normal 0.286982 -0.908778 -0.302926
outer loop
vertex 0.375000 -0.726562 0.085938
vertex 0.226562 -0.781250 0.109375
vertex 0.375000 -0.703125 0.015625
endloop
endfacet
facet normal 0.120736 -0.941743 -0.313914
outer loop
vertex 0.375000 -0.726562 0.085938
vertex 0.375000 -0.703125 0.015625
vertex 0.476562 -0.718750 0.101562
endloop
endfacet
facet normal 0.292159 -0.913575 0.282884
outer loop
vertex 0.000000 -0.726562 0.046875
vertex -0.164062 -0.750000 0.140625
vertex -0.125000 -0.812500 -0.101562
endloop
endfacet
facet normal 0.337090 -0.886548 -0.316865
outer loop
vertex 0.375000 -0.703125 0.015625
vertex 0.398438 -0.671875 -0.046875
vertex 0.617188 -0.625000 0.054688
endloop
endfacet
facet normal -0.024676 -0.913024 0.407159
outer loop
vertex 0.476562 -0.718750 0.101562
vertex 0.578125 -0.679688 0.195312
vertex 0.546875 -0.671875 0.210938
endloop
endfacet
facet normal -0.337090 -0.886548 -0.316865
outer loop
vertex -0.617188 -0.625000 0.054688
vertex -0.398438 -0.671875 -0.046875
vertex -0.375000 -0.703125 0.015625
endloop
endfacet
facet normal 0.230391 -0.972761 0.025599
outer loop
vertex -0.546875 -0.671875 0.210938
vertex -0.554688 -0.671875 0.281250
vertex -0.578125 -0.679688 0.195312
endloop
endfacet
facet normal 0.234405 -0.960304 0.151229
outer loop
vertex 0.554688 -0.671875 0.281250
vertex 0.578125 -0.679688 0.195312
vertex 0.640625 -0.648438 0.296875
endloop
endfacet
facet normal 0.303867 -0.893185 -0.331491
outer loop
vertex 0.554688 -0.671875 0.281250
vertex 0.640625 -0.648438 0.296875
vertex 0.562500 -0.695312 0.351562
endloop
endfacet
facet normal -0.234405 -0.960304 0.151229
outer loop
vertex -0.640625 -0.648438 0.296875
vertex -0.578125 -0.679688 0.195312
vertex -0.554688 -0.671875 0.281250
endloop
endfacet
facet normal -0.303867 -0.893185 -0.331491
outer loop
vertex -0.640625 -0.648438 0.296875
vertex -0.554688 -0.671875 0.281250
vertex -0.562500 -0.695312 0.351562
endloop
endfacet
facet normal -0.303895 -0.873698 -0.379869
outer loop
vertex -0.164062 -0.750000 0.140625
vertex -0.171875 -0.781250 0.218750
vertex -0.203125 -0.750000 0.171875
endloop
endfacet
facet normal 0.276026 -0.897085 0.345033
outer loop
vertex -0.164062 -0.750000 0.140625
vertex -0.203125 -0.750000 0.171875
vertex -0.226562 -0.781250 0.109375
endloop
endfacet
facet normal 0.293982 -0.835529 0.464183
outer loop
vertex 0.093750 -0.640625 -0.812500
vertex 0.000000 -0.656250 -0.781250
vertex 0.046875 -0.687500 -0.867188
endloop
endfacet
facet normal -0.544023 -0.835464 -0.077718
outer loop
vertex -0.640625 -0.648438 0.296875
vertex -0.625000 -0.648438 0.187500
vertex -0.578125 -0.679688 0.195312
endloop
endfacet
facet normal -0.006618 -0.972785 -0.231615
outer loop
vertex 0.000000 -0.726562 0.046875
vertex 0.164062 -0.750000 0.140625
vertex 0.000000 -0.765625 0.210938
endloop
endfacet
facet normal 0.262316 -0.899368 -0.349754
outer loop
vertex 0.125000 -0.765625 0.304688
vertex 0.000000 -0.820312 0.351562
vertex 0.000000 -0.765625 0.210938
endloop
endfacet
facet normal 0.303895 -0.873698 -0.379869
outer loop
vertex 0.203125 -0.750000 0.171875
vertex 0.171875 -0.781250 0.218750
vertex 0.164062 -0.750000 0.140625
endloop
endfacet
facet normal -0.276026 -0.897085 0.345033
outer loop
vertex 0.203125 -0.750000 0.171875
vertex 0.164062 -0.750000 0.140625
vertex 0.226562 -0.781250 0.109375
endloop
endfacet
facet normal -0.292159 -0.913575 0.282884
outer loop
vertex 0.164062 -0.750000 0.140625
vertex 0.000000 -0.726562 0.046875
vertex 0.125000 -0.812500 -0.101562
endloop
endfacet
facet normal -0.248282 -0.910366 -0.331042
outer loop
vertex -0.562500 -0.695312 0.351562
vertex -0.554688 -0.671875 0.281250
vertex -0.414062 -0.750000 0.390625
endloop
endfacet
facet normal 0.544023 -0.835464 -0.077718
outer loop
vertex 0.625000 -0.648438 0.187500
vertex 0.640625 -0.648438 0.296875
vertex 0.578125 -0.679688 0.195312
endloop
endfacet
facet normal -0.230391 -0.972761 0.025599
outer loop
vertex 0.546875 -0.671875 0.210938
vertex 0.578125 -0.679688 0.195312
vertex 0.554688 -0.671875 0.281250
endloop
endfacet
facet normal -0.011240 -0.921683 0.387781
outer loop
vertex -0.476562 -0.718750 0.101562
vertex -0.375000 -0.726562 0.085938
vertex -0.546875 -0.671875 0.210938
endloop
endfacet
facet normal -0.366195 -0.770087 0.522367
outer loop
vertex -0.226562 -0.781250 0.109375
vertex -0.203125 -0.750000 0.171875
vertex -0.375000 -0.726562 0.085938
endloop
endfacet
facet normal 0.024676 -0.913024 0.407159
outer loop
vertex -0.546875 -0.671875 0.210938
vertex -0.578125 -0.679688 0.195312
vertex -0.476562 -0.718750 0.101562
endloop
endfacet
facet normal 0.248282 -0.910366 -0.331042
outer loop
vertex 0.414062 -0.750000 0.390625
vertex 0.554688 -0.671875 0.281250
vertex 0.562500 -0.695312 0.351562
endloop
endfacet
facet normal -0.707107 -0.707107 0.000000
outer loop
vertex -0.195312 -0.757812 0.296875
vertex -0.203125 -0.750000 0.171875
vertex -0.171875 -0.781250 0.218750
endloop
endfacet
facet normal -0.119051 -0.992095 0.039684
outer loop
vertex -0.335938 -0.757812 0.429688
vertex -0.414062 -0.750000 0.390625
vertex -0.281250 -0.765625 0.398438
endloop
endfacet
facet normal -0.308127 -0.892507 -0.329377
outer loop
vertex -0.281250 -0.765625 0.398438
vertex -0.195312 -0.757812 0.296875
vertex -0.210938 -0.781250 0.375000
endloop
endfacet
facet normal 0.308127 -0.892507 -0.329377
outer loop
vertex 0.210938 -0.781250 0.375000
vertex 0.195312 -0.757812 0.296875
vertex 0.281250 -0.765625 0.398438
endloop
endfacet
facet normal 0.366195 -0.770087 0.522367
outer loop
vertex 0.375000 -0.726562 0.085938
vertex 0.203125 -0.750000 0.171875
vertex 0.226562 -0.781250 0.109375
endloop
endfacet
facet normal -0.480437 -0.555368 0.678783
outer loop
vertex 0.000000 -0.570312 0.570312
vertex -0.109375 -0.609375 0.460938
vertex 0.000000 -0.742188 0.429688
endloop
endfacet
facet normal 0.480437 -0.555368 0.678783
outer loop
vertex 0.000000 -0.570312 0.570312
vertex 0.000000 -0.742188 0.429688
vertex 0.109375 -0.609375 0.460938
endloop
endfacet
facet normal 0.140391 -0.481746 0.864992
outer loop
vertex 0.640625 -0.054688 0.703125
vertex 0.460938 -0.429688 0.523438
vertex 0.679688 -0.492188 0.453125
endloop
endfacet
facet normal 0.902731 -0.149838 0.403269
outer loop
vertex 0.640625 -0.054688 0.703125
vertex 0.679688 -0.492188 0.453125
vertex 0.726562 -0.335938 0.406250
endloop
endfacet
facet normal 0.707107 -0.707107 0.000000
outer loop
vertex 0.171875 -0.781250 0.218750
vertex 0.203125 -0.750000 0.171875
vertex 0.195312 -0.757812 0.296875
endloop
endfacet
facet normal 0.514259 -0.835672 -0.192847
outer loop
vertex -0.156250 -0.757812 0.718750
vertex -0.312500 -0.835938 0.640625
vertex -0.250000 -0.757812 0.468750
endloop
endfacet
facet normal -0.459219 -0.871472 0.172207
outer loop
vertex -0.156250 -0.757812 0.718750
vertex -0.250000 -0.757812 0.468750
vertex -0.101562 -0.843750 0.429688
endloop
endfacet
facet normal -0.577350 -0.577350 0.577350
outer loop
vertex 0.000000 -0.742188 0.429688
vertex 0.000000 -0.820312 0.351562
vertex 0.101562 -0.843750 0.429688
endloop
endfacet
facet normal -0.914238 0.172931 -0.366421
outer loop
vertex -0.726562 0.070312 0.000000
vertex -0.734375 -0.070312 -0.046875
vertex -0.859375 0.046875 0.320312
endloop
endfacet
facet normal 0.012319 -0.981391 0.191624
outer loop
vertex -0.492188 -0.687500 0.601562
vertex -0.687500 -0.726562 0.414062
vertex -0.429688 -0.718750 0.437500
endloop
endfacet
facet normal -0.622750 -0.777323 -0.089177
outer loop
vertex -0.492188 -0.687500 0.601562
vertex -0.429688 -0.718750 0.437500
vertex -0.312500 -0.835938 0.640625
endloop
endfacet
facet normal -0.289282 -0.901225 0.322661
outer loop
vertex 0.312500 -0.835938 0.640625
vertex 0.156250 -0.757812 0.718750
vertex 0.101562 -0.843750 0.429688
endloop
endfacet
facet normal 0.528355 -0.683966 -0.503023
outer loop
vertex 0.312500 -0.835938 0.640625
vertex 0.101562 -0.843750 0.429688
vertex 0.250000 -0.757812 0.468750
endloop
endfacet
facet normal -0.350238 0.329993 0.876606
outer loop
vertex -0.484375 -0.554688 0.554688
vertex -0.679688 -0.492188 0.453125
vertex -0.492188 -0.687500 0.601562
endloop
endfacet
facet normal -0.330667 -0.929778 -0.161778
outer loop
vertex -0.859375 -0.593750 0.429688
vertex -0.726562 -0.601562 0.203125
vertex -0.640625 -0.648438 0.296875
endloop
endfacet
facet normal -0.519300 -0.600499 -0.608053
outer loop
vertex -0.859375 -0.593750 0.429688
vertex -0.640625 -0.648438 0.296875
vertex -0.687500 -0.726562 0.414062
endloop
endfacet
facet normal 0.551096 -0.489227 0.675981
outer loop
vertex 0.687500 -0.726562 0.414062
vertex 0.492188 -0.687500 0.601562
vertex 0.312500 -0.835938 0.640625
endloop
endfacet
facet normal -0.073778 -0.844810 -0.529955
outer loop
vertex 0.687500 -0.726562 0.414062
vertex 0.312500 -0.835938 0.640625
vertex 0.429688 -0.718750 0.437500
endloop
endfacet
facet normal 0.350238 0.329993 0.876606
outer loop
vertex 0.484375 -0.554688 0.554688
vertex 0.492188 -0.687500 0.601562
vertex 0.679688 -0.492188 0.453125
endloop
endfacet
facet normal -0.417744 -0.703364 -0.575126
outer loop
vertex -0.617188 -0.625000 0.054688
vertex -0.632812 -0.539062 -0.039062
vertex -0.398438 -0.671875 -0.046875
endloop
endfacet
facet normal 0.596661 -0.733978 -0.324457
outer loop
vertex 0.726562 -0.601562 0.203125
vertex 0.859375 -0.593750 0.429688
vertex 0.687500 -0.726562 0.414062
endloop
endfacet
facet normal -0.107153 -0.846510 -0.521478
outer loop
vertex 0.726562 -0.601562 0.203125
vertex 0.687500 -0.726562 0.414062
vertex 0.640625 -0.648438 0.296875
endloop
endfacet
facet normal 0.468049 0.867346 -0.169238
outer loop
vertex 0.000000 -0.281250 -0.484375
vertex 0.125000 -0.359375 -0.539062
vertex 0.000000 -0.343750 -0.804688
endloop
endfacet
facet normal -0.468049 0.867346 -0.169238
outer loop
vertex 0.000000 -0.281250 -0.484375
vertex 0.000000 -0.343750 -0.804688
vertex -0.125000 -0.359375 -0.539062
endloop
endfacet
facet normal -0.650355 0.168610 0.740682
outer loop
vertex -0.453125 0.070312 0.929688
vertex -0.640625 0.445312 0.679688
vertex -0.796875 0.117188 0.617188
endloop
endfacet
facet normal -0.668752 -0.259614 0.696686
outer loop
vertex -0.453125 0.070312 0.929688
vertex -0.796875 0.117188 0.617188
vertex -0.640625 -0.054688 0.703125
endloop
endfacet
facet normal 0.000000 0.832050 -0.554700
outer loop
vertex -0.164062 -0.437500 -0.945312
vertex 0.000000 -0.343750 -0.804688
vertex 0.164062 -0.437500 -0.945312
endloop
endfacet
facet normal 0.000000 0.267644 -0.963518
outer loop
vertex -0.164062 -0.437500 -0.945312
vertex 0.164062 -0.437500 -0.945312
vertex 0.000000 -0.578125 -0.984375
endloop
endfacet
facet normal 0.063795 0.978851 -0.194375
outer loop
vertex -0.164062 -0.437500 -0.945312
vertex -0.289062 -0.382812 -0.710938
vertex -0.125000 -0.359375 -0.539062
endloop
endfacet
facet normal -0.401380 0.905818 -0.135601
outer loop
vertex -0.164062 -0.437500 -0.945312
vertex -0.125000 -0.359375 -0.539062
vertex 0.000000 -0.343750 -0.804688
endloop
endfacet
facet normal -0.411723 -0.700805 -0.582544
outer loop
vertex -0.265625 -0.664062 -0.820312
vertex -0.328125 -0.523438 -0.945312
vertex -0.164062 -0.632812 -0.929688
endloop
endfacet
facet normal -0.307042 -0.800980 -0.513962
outer loop
vertex -0.265625 -0.664062 -0.820312
vertex -0.164062 -0.632812 -0.929688
vertex -0.117188 -0.710938 -0.835938
endloop
endfacet
facet normal -0.912106 -0.360334 -0.195504
outer loop
vertex -0.726562 -0.335938 0.406250
vertex -0.859375 0.046875 0.320312
vertex -0.734375 -0.070312 -0.046875
endloop
endfacet
facet normal -0.962333 0.226979 0.149649
outer loop
vertex -0.726562 -0.335938 0.406250
vertex -0.734375 -0.070312 -0.046875
vertex -0.773438 -0.375000 0.164062
endloop
endfacet
facet normal 0.417744 -0.703364 -0.575126
outer loop
vertex 0.632812 -0.539062 -0.039062
vertex 0.617188 -0.625000 0.054688
vertex 0.398438 -0.671875 -0.046875
endloop
endfacet
facet normal -0.565405 -0.797740 0.209590
outer loop
vertex -0.351562 -0.570312 -0.695312
vertex -0.265625 -0.664062 -0.820312
vertex -0.117188 -0.734375 -0.687500
endloop
endfacet
facet normal -0.564691 -0.813362 -0.139878
outer loop
vertex -0.351562 -0.570312 -0.695312
vertex -0.117188 -0.734375 -0.687500
vertex -0.210938 -0.710938 -0.445312
endloop
endfacet
facet normal -0.422477 0.806547 -0.413515
outer loop
vertex -0.328125 -0.523438 -0.945312
vertex -0.289062 -0.382812 -0.710938
vertex -0.164062 -0.437500 -0.945312
endloop
endfacet
facet normal -0.242442 0.965016 0.099829
outer loop
vertex -0.234375 -0.406250 -0.351562
vertex -0.125000 -0.359375 -0.539062
vertex -0.289062 -0.382812 -0.710938
endloop
endfacet
facet normal -0.931851 0.324196 0.162947
outer loop
vertex -0.234375 -0.406250 -0.351562
vertex -0.289062 -0.382812 -0.710938
vertex -0.351562 -0.570312 -0.695312
endloop
endfacet
facet normal 0.411723 -0.700805 -0.582544
outer loop
vertex 0.164062 -0.632812 -0.929688
vertex 0.328125 -0.523438 -0.945312
vertex 0.265625 -0.664062 -0.820312
endloop
endfacet
facet normal 0.307042 -0.800980 -0.513962
outer loop
vertex 0.164062 -0.632812 -0.929688
vertex 0.265625 -0.664062 -0.820312
vertex 0.117188 -0.710938 -0.835938
endloop
endfacet
facet normal 0.931845 0.218842 0.289437
outer loop
vertex 0.257812 -0.554688 -0.312500
vertex 0.218750 -0.429688 -0.281250
vertex 0.210938 -0.468750 -0.226562
endloop
endfacet
facet normal 0.610213 0.775479 -0.162088
outer loop
vertex 0.125000 -0.359375 -0.539062
vertex 0.234375 -0.406250 -0.351562
vertex 0.351562 -0.570312 -0.695312
endloop
endfacet
facet normal 0.711633 0.290517 0.639670
outer loop
vertex 0.125000 -0.359375 -0.539062
vertex 0.351562 -0.570312 -0.695312
vertex 0.289062 -0.382812 -0.710938
endloop
endfacet
facet normal -0.958645 -0.276745 0.066419
outer loop
vertex -0.164062 -0.710938 -0.242188
vertex -0.125000 -0.812500 -0.101562
vertex -0.203125 -0.562500 -0.187500
endloop
endfacet
facet normal -0.933713 0.221458 0.281311
outer loop
vertex -0.218750 -0.429688 -0.281250
vertex -0.234375 -0.406250 -0.351562
vertex -0.257812 -0.554688 -0.312500
endloop
endfacet
facet normal 0.565405 -0.797740 0.209590
outer loop
vertex 0.117188 -0.734375 -0.687500
vertex 0.265625 -0.664062 -0.820312
vertex 0.351562 -0.570312 -0.695312
endloop
endfacet
facet normal 0.564691 -0.813362 -0.139878
outer loop
vertex 0.117188 -0.734375 -0.687500
vertex 0.351562 -0.570312 -0.695312
vertex 0.210938 -0.710938 -0.445312
endloop
endfacet
facet normal -0.931845 0.218842 0.289437
outer loop
vertex -0.210938 -0.468750 -0.226562
vertex -0.218750 -0.429688 -0.281250
vertex -0.257812 -0.554688 -0.312500
endloop
endfacet
facet normal -0.175113 -0.963119 -0.204298
outer loop
vertex 0.117188 -0.710938 -0.835938
vertex 0.109375 -0.734375 -0.718750
vertex 0.093750 -0.726562 -0.742188
endloop
endfacet
facet normal 0.352328 0.390764 0.850393
outer loop
vertex 0.000000 0.546875 0.898438
vertex 0.453125 0.070312 0.929688
vertex 0.640625 0.445312 0.679688
endloop
endfacet
facet normal 0.315370 0.757174 0.572039
outer loop
vertex 0.000000 0.546875 0.898438
vertex 0.640625 0.445312 0.679688
vertex 0.460938 0.703125 0.437500
endloop
endfacet
facet normal -0.491836 -0.556526 0.669609
outer loop
vertex -0.460938 -0.429688 0.523438
vertex -0.640625 -0.054688 0.703125
vertex -0.726562 -0.335938 0.406250
endloop
endfacet
facet normal -0.345834 0.172917 0.922225
outer loop
vertex -0.460938 -0.429688 0.523438
vertex -0.726562 -0.335938 0.406250
vertex -0.679688 -0.492188 0.453125
endloop
endfacet
facet normal -0.117445 0.684293 -0.719687
outer loop
vertex 0.000000 0.351562 -0.382812
vertex -0.343750 0.539062 -0.148438
vertex 0.000000 0.828125 0.070312
endloop
endfacet
facet normal 0.117445 0.684293 -0.719687
outer loop
vertex 0.000000 0.351562 -0.382812
vertex 0.000000 0.828125 0.070312
vertex 0.343750 0.539062 -0.148438
endloop
endfacet
facet normal 0.346844 -0.884452 -0.312160
outer loop
vertex 1.023438 0.359375 0.343750
vertex 1.187500 0.390625 0.437500
vertex 1.023438 0.312500 0.476562
endloop
endfacet
facet normal 0.781956 -0.587797 -0.207458
outer loop
vertex 1.023438 0.359375 0.343750
vertex 1.023438 0.312500 0.476562
vertex 0.921875 0.218750 0.359375
endloop
endfacet
facet normal -0.331016 0.149532 -0.931702
outer loop
vertex 0.000000 -0.281250 -0.484375
vertex -0.210938 -0.164062 -0.390625
vertex 0.000000 0.351562 -0.382812
endloop
endfacet
facet normal 0.331016 0.149532 -0.931702
outer loop
vertex 0.000000 -0.281250 -0.484375
vertex 0.000000 0.351562 -0.382812
vertex 0.210938 -0.164062 -0.390625
endloop
endfacet
facet normal 0.914238 0.172931 -0.366421
outer loop
vertex 0.734375 -0.070312 -0.046875
vertex 0.726562 0.070312 0.000000
vertex 0.859375 0.046875 0.320312
endloop
endfacet
facet normal 0.023556 0.598325 -0.800907
outer loop
vertex 0.125000 -0.359375 -0.539062
vertex 0.000000 -0.281250 -0.484375
vertex 0.210938 -0.164062 -0.390625
endloop
endfacet
facet normal 0.864040 0.002420 -0.503418
outer loop
vertex 0.125000 -0.359375 -0.539062
vertex 0.210938 -0.164062 -0.390625
vertex 0.234375 -0.406250 -0.351562
endloop
endfacet
facet normal 0.422477 0.806547 -0.413515
outer loop
vertex 0.164062 -0.437500 -0.945312
vertex 0.289062 -0.382812 -0.710938
vertex 0.328125 -0.523438 -0.945312
endloop
endfacet
facet normal -0.472018 0.206086 -0.857162
outer loop
vertex -0.343750 0.539062 -0.148438
vertex 0.000000 0.351562 -0.382812
vertex -0.210938 -0.164062 -0.390625
endloop
endfacet
facet normal -0.397192 0.230914 -0.888210
outer loop
vertex -0.343750 0.539062 -0.148438
vertex -0.210938 -0.164062 -0.390625
vertex -0.429688 0.210938 -0.195312
endloop
endfacet
facet normal -0.425628 -0.595880 0.681005
outer loop
vertex 0.000000 -0.289062 0.898438
vertex -0.453125 0.070312 0.929688
vertex -0.640625 -0.054688 0.703125
endloop
endfacet
facet normal -0.420883 -0.548038 0.722850
outer loop
vertex 0.000000 -0.289062 0.898438
vertex -0.640625 -0.054688 0.703125
vertex -0.460938 -0.429688 0.523438
endloop
endfacet
facet normal 0.000606 0.946881 0.321582
outer loop
vertex 0.000000 0.546875 0.898438
vertex 0.460938 0.703125 0.437500
vertex 0.000000 0.828125 0.070312
endloop
endfacet
facet normal -0.000606 0.946881 0.321582
outer loop
vertex 0.000000 0.546875 0.898438
vertex 0.000000 0.828125 0.070312
vertex -0.460938 0.703125 0.437500
endloop
endfacet
facet normal 0.068802 0.000000 0.997630
outer loop
vertex 0.000000 0.546875 0.898438
vertex -0.453125 0.070312 0.929688
vertex 0.000000 -0.289062 0.898438
endloop
endfacet
facet normal -0.068802 0.000000 0.997630
outer loop
vertex 0.000000 0.546875 0.898438
vertex 0.000000 -0.289062 0.898438
vertex 0.453125 0.070312 0.929688
endloop
endfacet
facet normal -0.433423 0.811703 -0.391514
outer loop
vertex 0.000000 0.828125 0.070312
vertex -0.343750 0.539062 -0.148438
vertex -0.484375 0.546875 0.023438
endloop
endfacet
facet normal -0.459244 0.839379 -0.290752
outer loop
vertex 0.000000 0.828125 0.070312
vertex -0.484375 0.546875 0.023438
vertex -0.460938 0.703125 0.437500
endloop
endfacet
facet normal 0.453388 0.241319 -0.858024
outer loop
vertex 0.000000 0.351562 -0.382812
vertex 0.343750 0.539062 -0.148438
vertex 0.429688 0.210938 -0.195312
endloop
endfacet
facet normal 0.445252 0.195388 -0.873827
outer loop
vertex 0.000000 0.351562 -0.382812
vertex 0.429688 0.210938 -0.195312
vertex 0.210938 -0.164062 -0.390625
endloop
endfacet
facet normal 0.433423 0.811703 -0.391514
outer loop
vertex 0.484375 0.546875 0.023438
vertex 0.343750 0.539062 -0.148438
vertex 0.000000 0.828125 0.070312
endloop
endfacet
facet normal 0.459244 0.839379 -0.290752
outer loop
vertex 0.484375 0.546875 0.023438
vertex 0.000000 0.828125 0.070312
vertex 0.460938 0.703125 0.437500
endloop
endfacet
facet normal 0.933713 0.221458 0.281311
outer loop
vertex 0.234375 -0.406250 -0.351562
vertex 0.218750 -0.429688 -0.281250
vertex 0.257812 -0.554688 -0.312500
endloop
endfacet
facet normal 0.387671 -0.182554 -0.903540
outer loop
vertex 0.437500 -0.468750 -0.093750
vertex 0.406250 -0.148438 -0.171875
vertex 0.734375 -0.070312 -0.046875
endloop
endfacet
facet normal 0.668752 -0.259614 0.696686
outer loop
vertex 0.453125 0.070312 0.929688
vertex 0.640625 -0.054688 0.703125
vertex 0.796875 0.117188 0.617188
endloop
endfacet
facet normal 0.650355 0.168610 0.740682
outer loop
vertex 0.453125 0.070312 0.929688
vertex 0.796875 0.117188 0.617188
vertex 0.640625 0.445312 0.679688
endloop
endfacet
facet normal -0.961699 0.231485 0.146796
outer loop
vertex -0.820312 0.203125 0.328125
vertex -0.796875 0.117188 0.617188
vertex -0.773438 0.437500 0.265625
endloop
endfacet
facet normal 0.438976 -0.729014 -0.525204
outer loop
vertex 1.023438 0.359375 0.343750
vertex 1.171875 0.437500 0.359375
vertex 1.187500 0.390625 0.437500
endloop
endfacet
facet normal 0.961699 0.231485 0.146796
outer loop
vertex 0.820312 0.203125 0.328125
vertex 0.773438 0.437500 0.265625
vertex 0.796875 0.117188 0.617188
endloop
endfacet
facet normal -0.697832 0.684503 0.210918
outer loop
vertex -0.773438 0.437500 0.265625
vertex -0.640625 0.445312 0.679688
vertex -0.460938 0.703125 0.437500
endloop
endfacet
facet normal -0.531725 0.801881 -0.272499
outer loop
vertex -0.773438 0.437500 0.265625
vertex -0.460938 0.703125 0.437500
vertex -0.484375 0.546875 0.023438
endloop
endfacet
facet normal 0.228953 0.303385 -0.924953
outer loop
vertex -0.640625 0.429688 -0.007812
vertex -0.773438 0.125000 -0.140625
vertex -1.039062 0.492188 -0.085938
endloop
endfacet
facet normal 0.117273 0.976129 0.182809
outer loop
vertex -0.640625 0.429688 -0.007812
vertex -1.039062 0.492188 -0.085938
vertex -0.859375 0.382812 0.382812
endloop
endfacet
facet normal 0.007891 0.402462 -0.915403
outer loop
vertex 0.593750 0.164062 -0.125000
vertex 0.640625 0.429688 -0.007812
vertex 0.773438 0.125000 -0.140625
endloop
endfacet
facet normal -0.872407 -0.202840 0.444704
outer loop
vertex -0.859375 0.046875 0.320312
vertex -0.726562 -0.335938 0.406250
vertex -0.640625 -0.054688 0.703125
endloop
endfacet
facet normal -0.775795 -0.557577 0.295383
outer loop
vertex -0.859375 0.046875 0.320312
vertex -0.640625 -0.054688 0.703125
vertex -0.796875 0.117188 0.617188
endloop
endfacet
facet normal -0.961281 0.232960 0.147200
outer loop
vertex -0.796875 0.117188 0.617188
vertex -0.820312 0.203125 0.328125
vertex -0.859375 0.046875 0.320312
endloop
endfacet
facet normal 0.729570 -0.378405 0.569681
outer loop
vertex 0.796875 0.117188 0.617188
vertex 0.640625 -0.054688 0.703125
vertex 0.726562 -0.335938 0.406250
endloop
endfacet
facet normal 0.929195 -0.264401 0.258241
outer loop
vertex 0.796875 0.117188 0.617188
vertex 0.726562 -0.335938 0.406250
vertex 0.859375 0.046875 0.320312
endloop
endfacet
facet normal 0.366927 0.289789 0.883961
outer loop
vertex 0.484375 -0.554688 0.554688
vertex 0.679688 -0.492188 0.453125
vertex 0.460938 -0.429688 0.523438
endloop
endfacet
facet normal 0.415279 -0.901244 0.123700
outer loop
vertex 1.234375 0.421875 0.507812
vertex 1.187500 0.390625 0.437500
vertex 1.265625 0.406250 0.289062
endloop
endfacet
facet normal -0.366927 0.289789 0.883961
outer loop
vertex -0.679688 -0.492188 0.453125
vertex -0.484375 -0.554688 0.554688
vertex -0.460938 -0.429688 0.523438
endloop
endfacet
facet normal 0.961281 0.232960 0.147200
outer loop
vertex 0.859375 0.046875 0.320312
vertex 0.820312 0.203125 0.328125
vertex 0.796875 0.117188 0.617188
endloop
endfacet
facet normal -0.285430 -0.727671 0.623718
outer loop
vertex -0.460938 -0.429688 0.523438
vertex 0.000000 -0.570312 0.570312
vertex 0.000000 -0.289062 0.898438
endloop
endfacet
facet normal 0.168134 0.980627 0.100505
outer loop
vertex -0.484375 -0.554688 0.554688
vertex -0.335938 -0.593750 0.687500
vertex -0.109375 -0.609375 0.460938
endloop
endfacet
facet normal -0.263846 0.187091 0.946247
outer loop
vertex 0.109375 -0.609375 0.460938
vertex 0.484375 -0.554688 0.554688
vertex 0.460938 -0.429688 0.523438
endloop
endfacet
facet normal 0.292531 -0.769709 0.567427
outer loop
vertex 0.109375 -0.609375 0.460938
vertex 0.460938 -0.429688 0.523438
vertex 0.000000 -0.570312 0.570312
endloop
endfacet
facet normal 0.263846 0.187091 0.946247
outer loop
vertex -0.460938 -0.429688 0.523438
vertex -0.484375 -0.554688 0.554688
vertex -0.109375 -0.609375 0.460938
endloop
endfacet
facet normal -0.292531 -0.769709 0.567427
outer loop
vertex -0.460938 -0.429688 0.523438
vertex -0.109375 -0.609375 0.460938
vertex 0.000000 -0.570312 0.570312
endloop
endfacet
facet normal 0.285430 -0.727671 0.623718
outer loop
vertex 0.000000 -0.570312 0.570312
vertex 0.460938 -0.429688 0.523438
vertex 0.000000 -0.289062 0.898438
endloop
endfacet
facet normal 0.935045 -0.273860 0.225147
outer loop
vertex 0.859375 0.046875 0.320312
vertex 0.726562 -0.335938 0.406250
vertex 0.773438 -0.375000 0.164062
endloop
endfacet
facet normal 0.951174 -0.083727 -0.297082
outer loop
vertex 0.859375 0.046875 0.320312
vertex 0.773438 -0.375000 0.164062
vertex 0.734375 -0.070312 -0.046875
endloop
endfacet
facet normal -0.387671 -0.182554 -0.903540
outer loop
vertex -0.406250 -0.148438 -0.171875
vertex -0.437500 -0.468750 -0.093750
vertex -0.734375 -0.070312 -0.046875
endloop
endfacet
facet normal 0.956962 0.134120 0.257365
outer loop
vertex 0.218750 -0.429688 -0.281250
vertex 0.234375 -0.406250 -0.351562
vertex 0.210938 -0.164062 -0.390625
endloop
endfacet
facet normal -0.506409 -0.447629 -0.737006
outer loop
vertex -1.187500 0.390625 0.437500
vertex -1.023438 0.359375 0.343750
vertex -0.921875 0.218750 0.359375
endloop
endfacet
facet normal -0.465651 -0.842607 0.270521
outer loop
vertex -1.187500 0.390625 0.437500
vertex -0.921875 0.218750 0.359375
vertex -1.023438 0.312500 0.476562
endloop
endfacet
facet normal 0.295822 0.952141 0.076921
outer loop
vertex 0.640625 0.445312 0.679688
vertex 0.773438 0.437500 0.265625
vertex 0.484375 0.546875 0.023438
endloop
endfacet
facet normal 0.867130 0.480234 -0.132138
outer loop
vertex 0.640625 0.445312 0.679688
vertex 0.484375 0.546875 0.023438
vertex 0.460938 0.703125 0.437500
endloop
endfacet
facet normal -0.886850 0.369454 0.277490
outer loop
vertex -0.640625 0.445312 0.679688
vertex -0.773438 0.437500 0.265625
vertex -0.796875 0.117188 0.617188
endloop
endfacet
facet normal 0.538262 0.793445 -0.284111
outer loop
vertex 0.773438 0.437500 0.265625
vertex 0.640625 0.429688 -0.007812
vertex 0.484375 0.546875 0.023438
endloop
endfacet
facet normal -0.746041 -0.091670 -0.659560
outer loop
vertex -0.406250 -0.148438 -0.171875
vertex -0.429688 0.210938 -0.195312
vertex -0.210938 -0.164062 -0.390625
endloop
endfacet
facet normal 0.886850 0.369454 0.277490
outer loop
vertex 0.773438 0.437500 0.265625
vertex 0.640625 0.445312 0.679688
vertex 0.796875 0.117188 0.617188
endloop
endfacet
facet normal 0.372238 -0.084555 -0.924278
outer loop
vertex 0.734375 -0.070312 -0.046875
vertex 0.406250 -0.148438 -0.171875
vertex 0.429688 0.210938 -0.195312
endloop
endfacet
facet normal 0.371878 -0.085001 -0.924382
outer loop
vertex 0.734375 -0.070312 -0.046875
vertex 0.429688 0.210938 -0.195312
vertex 0.593750 0.164062 -0.125000
endloop
endfacet
facet normal -0.372238 -0.084555 -0.924278
outer loop
vertex -0.429688 0.210938 -0.195312
vertex -0.406250 -0.148438 -0.171875
vertex -0.734375 -0.070312 -0.046875
endloop
endfacet
facet normal -0.371878 -0.085001 -0.924382
outer loop
vertex -0.429688 0.210938 -0.195312
vertex -0.734375 -0.070312 -0.046875
vertex -0.593750 0.164062 -0.125000
endloop
endfacet
facet normal -0.505756 0.525733 0.683971
outer loop
vertex -0.453125 0.070312 0.929688
vertex 0.000000 0.546875 0.898438
vertex -0.460938 0.703125 0.437500
endloop
endfacet
facet normal 0.176779 0.605630 0.775862
outer loop
vertex -0.453125 0.070312 0.929688
vertex -0.460938 0.703125 0.437500
vertex -0.640625 0.445312 0.679688
endloop
endfacet
facet normal 0.405076 -0.572719 0.712675
outer loop
vertex 0.453125 0.070312 0.929688
vertex 0.000000 -0.289062 0.898438
vertex 0.460938 -0.429688 0.523438
endloop
endfacet
facet normal 0.465217 -0.553809 0.690557
outer loop
vertex 0.453125 0.070312 0.929688
vertex 0.460938 -0.429688 0.523438
vertex 0.640625 -0.054688 0.703125
endloop
endfacet
facet normal 0.307017 -0.794633 -0.523735
outer loop
vertex 0.437500 -0.468750 -0.093750
vertex 0.210938 -0.468750 -0.226562
vertex 0.218750 -0.429688 -0.281250
endloop
endfacet
facet normal 0.632788 -0.124661 -0.764224
outer loop
vertex 0.437500 -0.468750 -0.093750
vertex 0.218750 -0.429688 -0.281250
vertex 0.406250 -0.148438 -0.171875
endloop
endfacet
facet normal -0.307017 -0.794633 -0.523735
outer loop
vertex -0.218750 -0.429688 -0.281250
vertex -0.210938 -0.468750 -0.226562
vertex -0.437500 -0.468750 -0.093750
endloop
endfacet
facet normal -0.632788 -0.124661 -0.764224
outer loop
vertex -0.218750 -0.429688 -0.281250
vertex -0.437500 -0.468750 -0.093750
vertex -0.406250 -0.148438 -0.171875
endloop
endfacet
facet normal 0.732489 -0.240675 -0.636817
outer loop
vertex 0.218750 -0.429688 -0.281250
vertex 0.210938 -0.164062 -0.390625
vertex 0.406250 -0.148438 -0.171875
endloop
endfacet
facet normal -0.732489 -0.240675 -0.636817
outer loop
vertex -0.406250 -0.148438 -0.171875
vertex -0.210938 -0.164062 -0.390625
vertex -0.218750 -0.429688 -0.281250
endloop
endfacet
facet normal -0.469289 -0.372671 -0.800552
outer loop
vertex -0.203125 -0.562500 -0.187500
vertex -0.437500 -0.468750 -0.093750
vertex -0.210938 -0.468750 -0.226562
endloop
endfacet
facet normal -0.736521 0.280809 -0.615372
outer loop
vertex -0.484375 0.546875 0.023438
vertex -0.343750 0.539062 -0.148438
vertex -0.429688 0.210938 -0.195312
endloop
endfacet
facet normal -0.538262 0.793445 -0.284111
outer loop
vertex -0.484375 0.546875 0.023438
vertex -0.640625 0.429688 -0.007812
vertex -0.773438 0.437500 0.265625
endloop
endfacet
facet normal -0.807309 -0.004098 0.590114
outer loop
vertex 0.773438 0.437500 0.265625
vertex 0.820312 0.203125 0.328125
vertex 0.859375 0.382812 0.382812
endloop
endfacet
facet normal 0.469289 -0.372671 -0.800552
outer loop
vertex 0.210938 -0.468750 -0.226562
vertex 0.437500 -0.468750 -0.093750
vertex 0.203125 -0.562500 -0.187500
endloop
endfacet
facet normal 0.456721 0.432033 -0.777659
outer loop
vertex 0.593750 0.164062 -0.125000
vertex 0.429688 0.210938 -0.195312
vertex 0.484375 0.546875 0.023438
endloop
endfacet
facet normal 0.105938 0.385660 -0.916539
outer loop
vertex 0.593750 0.164062 -0.125000
vertex 0.484375 0.546875 0.023438
vertex 0.640625 0.429688 -0.007812
endloop
endfacet
facet normal -0.456721 0.432033 -0.777659
outer loop
vertex -0.484375 0.546875 0.023438
vertex -0.429688 0.210938 -0.195312
vertex -0.593750 0.164062 -0.125000
endloop
endfacet
facet normal -0.105938 0.385660 -0.916539
outer loop
vertex -0.484375 0.546875 0.023438
vertex -0.593750 0.164062 -0.125000
vertex -0.640625 0.429688 -0.007812
endloop
endfacet
facet normal -0.956962 0.134120 0.257365
outer loop
vertex -0.218750 -0.429688 -0.281250
vertex -0.210938 -0.164062 -0.390625
vertex -0.234375 -0.406250 -0.351562
endloop
endfacet
facet normal -0.570359 -0.325043 0.754346
outer loop
vertex 0.921875 0.218750 0.359375
vertex 1.023438 0.312500 0.476562
vertex 0.859375 0.382812 0.382812
endloop
endfacet
facet normal -0.253538 -0.230785 0.939392
outer loop
vertex 0.921875 0.218750 0.359375
vertex 0.859375 0.382812 0.382812
vertex 0.820312 0.203125 0.328125
endloop
endfacet
facet normal 0.570359 -0.325043 0.754346
outer loop
vertex -0.859375 0.382812 0.382812
vertex -1.023438 0.312500 0.476562
vertex -0.921875 0.218750 0.359375
endloop
endfacet
facet normal 0.253538 -0.230785 0.939392
outer loop
vertex -0.859375 0.382812 0.382812
vertex -0.921875 0.218750 0.359375
vertex -0.820312 0.203125 0.328125
endloop
endfacet
facet normal -0.597886 -0.501304 -0.625481
outer loop
vertex -0.921875 0.218750 0.359375
vertex -1.023438 0.359375 0.343750
vertex -0.953125 0.343750 0.289062
endloop
endfacet
facet normal -0.819169 -0.422797 -0.387564
outer loop
vertex -0.921875 0.218750 0.359375
vertex -0.953125 0.343750 0.289062
vertex -0.890625 0.265625 0.242188
endloop
endfacet
facet normal 0.556733 -0.829563 0.043290
outer loop
vertex 1.281250 0.429688 0.054688
vertex 1.367188 0.500000 0.296875
vertex 1.234375 0.421875 0.507812
endloop
endfacet
facet normal 0.909137 0.404061 0.101015
outer loop
vertex 1.281250 0.429688 0.054688
vertex 1.234375 0.421875 0.507812
vertex 1.265625 0.406250 0.289062
endloop
endfacet
facet normal -0.679178 -0.733437 -0.028065
outer loop
vertex -1.367188 0.500000 0.296875
vertex -1.281250 0.429688 0.054688
vertex -1.265625 0.406250 0.289062
endloop
endfacet
facet normal -0.664743 -0.732411 0.147278
outer loop
vertex -1.367188 0.500000 0.296875
vertex -1.265625 0.406250 0.289062
vertex -1.234375 0.421875 0.507812
endloop
endfacet
facet normal -0.832821 0.067585 0.549401
outer loop
vertex -1.250000 0.546875 0.468750
vertex -1.367188 0.500000 0.296875
vertex -1.234375 0.421875 0.507812
endloop
endfacet
facet normal 0.446708 -0.889355 0.097464
outer loop
vertex 1.234375 0.421875 0.507812
vertex 1.023438 0.312500 0.476562
vertex 1.187500 0.390625 0.437500
endloop
endfacet
facet normal 0.491464 -0.230442 -0.839857
outer loop
vertex 0.773438 0.125000 -0.140625
vertex 1.039062 0.492188 -0.085938
vertex 1.031250 0.304688 -0.039062
endloop
endfacet
facet normal 0.442059 -0.234844 -0.865698
outer loop
vertex 1.039062 0.492188 -0.085938
vertex 1.281250 0.429688 0.054688
vertex 1.031250 0.304688 -0.039062
endloop
endfacet
facet normal -0.491464 -0.230442 -0.839857
outer loop
vertex -1.039062 0.492188 -0.085938
vertex -0.773438 0.125000 -0.140625
vertex -1.031250 0.304688 -0.039062
endloop
endfacet
facet normal -0.442059 -0.234844 -0.865698
outer loop
vertex -1.039062 0.492188 -0.085938
vertex -1.031250 0.304688 -0.039062
vertex -1.281250 0.429688 0.054688
endloop
endfacet
facet normal -0.159791 0.974609 -0.156854
outer loop
vertex -1.367188 0.500000 0.296875
vertex -1.250000 0.546875 0.468750
vertex -1.039062 0.492188 -0.085938
endloop
endfacet
facet normal -0.435835 0.811079 -0.390126
outer loop
vertex -1.367188 0.500000 0.296875
vertex -1.039062 0.492188 -0.085938
vertex -1.281250 0.429688 0.054688
endloop
endfacet
facet normal 0.832821 0.067585 0.549401
outer loop
vertex 1.250000 0.546875 0.468750
vertex 1.234375 0.421875 0.507812
vertex 1.367188 0.500000 0.296875
endloop
endfacet
facet normal 0.178808 -0.939450 0.292337
outer loop
vertex -0.773438 0.125000 -0.140625
vertex -0.593750 0.164062 -0.125000
vertex -0.718750 0.171875 -0.023438
endloop
endfacet
facet normal 0.525673 -0.771733 -0.357905
outer loop
vertex -1.171875 0.437500 0.359375
vertex -1.187500 0.390625 0.437500
vertex -1.265625 0.406250 0.289062
endloop
endfacet
facet normal -0.178808 -0.939450 0.292337
outer loop
vertex 0.593750 0.164062 -0.125000
vertex 0.773438 0.125000 -0.140625
vertex 0.718750 0.171875 -0.023438
endloop
endfacet
facet normal 0.113055 -0.474831 0.872785
outer loop
vertex 0.718750 0.171875 -0.023438
vertex 0.882812 0.210938 -0.023438
vertex 0.843750 0.273438 0.015625
endloop
endfacet
facet normal 0.839988 0.541928 -0.027096
outer loop
vertex 0.882812 0.210938 -0.023438
vertex 0.812500 0.320312 -0.015625
vertex 0.843750 0.273438 0.015625
endloop
endfacet
facet normal -0.306858 -0.337544 0.889889
outer loop
vertex -1.031250 0.304688 -0.039062
vertex -0.882812 0.210938 -0.023438
vertex -1.046875 0.421875 0.000000
endloop
endfacet
facet normal 0.518476 -0.207390 0.829561
outer loop
vertex -1.031250 0.304688 -0.039062
vertex -1.046875 0.421875 0.000000
vertex -1.187500 0.445312 0.093750
endloop
endfacet
facet normal -0.460281 -0.885630 0.061645
outer loop
vertex -1.054688 0.382812 0.187500
vertex -1.257812 0.492188 0.242188
vertex -1.187500 0.445312 0.093750
endloop
endfacet
facet normal -0.293353 -0.933396 -0.206680
outer loop
vertex -1.054688 0.382812 0.187500
vertex -1.187500 0.445312 0.093750
vertex -1.046875 0.421875 0.000000
endloop
endfacet
facet normal -0.438976 -0.729014 -0.525204
outer loop
vertex -1.171875 0.437500 0.359375
vertex -1.023438 0.359375 0.343750
vertex -1.187500 0.390625 0.437500
endloop
endfacet
facet normal -0.911322 0.130189 0.390567
outer loop
vertex 1.257812 0.492188 0.242188
vertex 1.187500 0.445312 0.093750
vertex 1.265625 0.406250 0.289062
endloop
endfacet
facet normal -0.630363 -0.415117 -0.655988
outer loop
vertex 1.257812 0.492188 0.242188
vertex 1.265625 0.406250 0.289062
vertex 1.171875 0.437500 0.359375
endloop
endfacet
facet normal 0.911322 0.130189 0.390567
outer loop
vertex -1.265625 0.406250 0.289062
vertex -1.187500 0.445312 0.093750
vertex -1.257812 0.492188 0.242188
endloop
endfacet
facet normal 0.630363 -0.415117 -0.655988
outer loop
vertex -1.265625 0.406250 0.289062
vertex -1.257812 0.492188 0.242188
vertex -1.171875 0.437500 0.359375
endloop
endfacet
facet normal 0.622061 0.115081 -0.774466
outer loop
vertex 0.734375 -0.070312 -0.046875
vertex 0.593750 0.164062 -0.125000
vertex 0.718750 0.171875 -0.023438
endloop
endfacet
facet normal 0.996972 0.067975 -0.037764
outer loop
vertex 0.734375 -0.070312 -0.046875
vertex 0.718750 0.171875 -0.023438
vertex 0.726562 0.070312 0.000000
endloop
endfacet
facet normal -0.622061 0.115081 -0.774466
outer loop
vertex -0.718750 0.171875 -0.023438
vertex -0.593750 0.164062 -0.125000
vertex -0.734375 -0.070312 -0.046875
endloop
endfacet
facet normal -0.996972 0.067975 -0.037764
outer loop
vertex -0.718750 0.171875 -0.023438
vertex -0.734375 -0.070312 -0.046875
vertex -0.726562 0.070312 0.000000
endloop
endfacet
facet normal 0.777902 -0.628306 0.009973
outer loop
vertex 0.960938 0.351562 0.171875
vertex 0.953125 0.343750 0.289062
vertex 0.890625 0.265625 0.242188
endloop
endfacet
facet normal 0.189311 -0.709917 -0.678365
outer loop
vertex 0.960938 0.351562 0.171875
vertex 0.890625 0.265625 0.242188
vertex 0.843750 0.320312 0.171875
endloop
endfacet
facet normal -0.534947 -0.606273 0.588442
outer loop
vertex -0.757812 0.273438 0.093750
vertex -0.828125 0.320312 0.078125
vertex -0.843750 0.273438 0.015625
endloop
endfacet
facet normal -0.016324 0.961754 -0.273427
outer loop
vertex 1.250000 0.546875 0.468750
vertex 1.367188 0.500000 0.296875
vertex 1.281250 0.429688 0.054688
endloop
endfacet
facet normal 0.365245 0.902588 -0.227884
outer loop
vertex 1.250000 0.546875 0.468750
vertex 1.281250 0.429688 0.054688
vertex 1.039062 0.492188 -0.085938
endloop
endfacet
facet normal -0.014719 -0.061822 0.997979
outer loop
vertex -0.882812 0.210938 -0.023438
vertex -0.718750 0.171875 -0.023438
vertex -0.812500 0.320312 -0.015625
endloop
endfacet
facet normal -0.469039 -0.251679 -0.846558
outer loop
vertex -0.718750 0.171875 -0.023438
vertex -0.843750 0.273438 0.015625
vertex -0.812500 0.320312 -0.015625
endloop
endfacet
facet normal 0.595912 -0.782134 0.182084
outer loop
vertex 1.085938 0.390625 0.273438
vertex 1.187500 0.484375 0.343750
vertex 1.023438 0.359375 0.343750
endloop
endfacet
facet normal 0.315298 -0.939039 -0.137086
outer loop
vertex 1.085938 0.390625 0.273438
vertex 1.023438 0.359375 0.343750
vertex 0.953125 0.343750 0.289062
endloop
endfacet
facet normal -0.611349 -0.791157 -0.017981
outer loop
vertex -1.046875 0.421875 0.000000
vertex -0.937500 0.335938 0.062500
vertex -0.960938 0.351562 0.171875
endloop
endfacet
facet normal -0.340121 -0.917685 -0.205356
outer loop
vertex -1.046875 0.421875 0.000000
vertex -0.960938 0.351562 0.171875
vertex -1.054688 0.382812 0.187500
endloop
endfacet
facet normal -0.531271 -0.613376 0.584398
outer loop
vertex -0.843750 0.273438 0.015625
vertex -0.718750 0.187500 0.039062
vertex -0.757812 0.273438 0.093750
endloop
endfacet
facet normal 0.580247 -0.790123 0.197531
outer loop
vertex 0.843750 0.273438 0.015625
vertex 0.718750 0.187500 0.039062
vertex 0.718750 0.171875 -0.023438
endloop
endfacet
facet normal 0.721718 -0.457675 -0.519285
outer loop
vertex 0.796875 0.210938 0.203125
vertex 0.757812 0.273438 0.093750
vertex 0.843750 0.320312 0.171875
endloop
endfacet
facet normal 0.551607 -0.439034 -0.709210
outer loop
vertex 0.796875 0.210938 0.203125
vertex 0.843750 0.320312 0.171875
vertex 0.890625 0.265625 0.242188
endloop
endfacet
facet normal -0.579781 -0.600787 -0.550372
outer loop
vertex -0.757812 0.273438 0.093750
vertex -0.796875 0.210938 0.203125
vertex -0.890625 0.265625 0.242188
endloop
endfacet
facet normal -0.719933 -0.226431 -0.656068
outer loop
vertex -0.757812 0.273438 0.093750
vertex -0.890625 0.265625 0.242188
vertex -0.843750 0.320312 0.171875
endloop
endfacet
facet normal -0.955108 0.246959 -0.163648
outer loop
vertex -0.796875 0.210938 0.203125
vertex -0.859375 0.046875 0.320312
vertex -0.820312 0.203125 0.328125
endloop
endfacet
facet normal -0.538575 -0.837783 -0.089762
outer loop
vertex -0.843750 0.320312 0.171875
vertex -0.828125 0.320312 0.078125
vertex -0.757812 0.273438 0.093750
endloop
endfacet
facet normal -0.335655 -0.770286 0.542213
outer loop
vertex -1.187500 0.484375 0.343750
vertex -1.085938 0.390625 0.273438
vertex -0.953125 0.343750 0.289062
endloop
endfacet
facet normal -0.530591 -0.696401 -0.483217
outer loop
vertex -1.187500 0.484375 0.343750
vertex -0.953125 0.343750 0.289062
vertex -1.023438 0.359375 0.343750
endloop
endfacet
facet normal 0.900782 -0.150130 -0.407496
outer loop
vertex 0.796875 0.210938 0.203125
vertex 0.718750 0.187500 0.039062
vertex 0.757812 0.273438 0.093750
endloop
endfacet
facet normal 0.912871 0.182574 -0.365148
outer loop
vertex 0.859375 0.046875 0.320312
vertex 0.726562 0.070312 0.000000
vertex 0.718750 0.187500 0.039062
endloop
endfacet
facet normal 0.900500 0.033352 -0.433574
outer loop
vertex 0.859375 0.046875 0.320312
vertex 0.718750 0.187500 0.039062
vertex 0.796875 0.210938 0.203125
endloop
endfacet
facet normal -0.912871 0.182574 -0.365148
outer loop
vertex -0.718750 0.187500 0.039062
vertex -0.726562 0.070312 0.000000
vertex -0.859375 0.046875 0.320312
endloop
endfacet
facet normal -0.900500 0.033352 -0.433574
outer loop
vertex -0.718750 0.187500 0.039062
vertex -0.859375 0.046875 0.320312
vertex -0.796875 0.210938 0.203125
endloop
endfacet
facet normal 0.997202 0.072524 -0.018131
outer loop
vertex 0.726562 0.070312 0.000000
vertex 0.718750 0.171875 -0.023438
vertex 0.718750 0.187500 0.039062
endloop
endfacet
facet normal -0.997202 0.072524 -0.018131
outer loop
vertex -0.718750 0.187500 0.039062
vertex -0.718750 0.171875 -0.023438
vertex -0.726562 0.070312 0.000000
endloop
endfacet
facet normal -0.777902 -0.628306 0.009973
outer loop
vertex -0.890625 0.265625 0.242188
vertex -0.953125 0.343750 0.289062
vertex -0.960938 0.351562 0.171875
endloop
endfacet
facet normal -0.189311 -0.709917 -0.678365
outer loop
vertex -0.890625 0.265625 0.242188
vertex -0.960938 0.351562 0.171875
vertex -0.843750 0.320312 0.171875
endloop
endfacet
facet normal -0.900782 -0.150130 -0.407496
outer loop
vertex -0.718750 0.187500 0.039062
vertex -0.796875 0.210938 0.203125
vertex -0.757812 0.273438 0.093750
endloop
endfacet
facet normal 0.138159 -0.990142 -0.023027
outer loop
vertex 0.937500 0.335938 0.062500
vertex 0.828125 0.320312 0.078125
vertex 0.812500 0.320312 -0.015625
endloop
endfacet
facet normal 0.865025 0.480569 -0.144171
outer loop
vertex 0.828125 0.320312 0.078125
vertex 0.843750 0.273438 0.015625
vertex 0.812500 0.320312 -0.015625
endloop
endfacet
facet normal -0.298426 0.318470 0.899733
outer loop
vertex 1.023438 0.312500 0.476562
vertex 1.234375 0.421875 0.507812
vertex 1.250000 0.546875 0.468750
endloop
endfacet
facet normal 0.534947 -0.606273 0.588442
outer loop
vertex 0.843750 0.273438 0.015625
vertex 0.828125 0.320312 0.078125
vertex 0.757812 0.273438 0.093750
endloop
endfacet
facet normal 0.296806 -0.389557 -0.871867
outer loop
vertex 1.171875 0.437500 0.359375
vertex 1.023438 0.359375 0.343750
vertex 1.187500 0.484375 0.343750
endloop
endfacet
facet normal -0.462983 -0.355625 0.811898
outer loop
vertex 0.937500 0.335938 0.062500
vertex 0.812500 0.320312 -0.015625
vertex 0.882812 0.210938 -0.023438
endloop
endfacet
facet normal 0.696766 -0.587634 0.411344
outer loop
vertex 0.937500 0.335938 0.062500
vertex 0.882812 0.210938 -0.023438
vertex 1.046875 0.421875 0.000000
endloop
endfacet
facet normal -0.537319 -0.189642 -0.821781
outer loop
vertex -0.812500 0.320312 -0.015625
vertex -0.843750 0.273438 0.015625
vertex -0.937500 0.335938 0.062500
endloop
endfacet
facet normal -0.197046 -0.760036 0.619289
outer loop
vertex -0.843750 0.273438 0.015625
vertex -0.828125 0.320312 0.078125
vertex -0.937500 0.335938 0.062500
endloop
endfacet
facet normal -0.256784 -0.962938 0.082538
outer loop
vertex -0.843750 0.320312 0.171875
vertex -0.960938 0.351562 0.171875
vertex -0.937500 0.335938 0.062500
endloop
endfacet
facet normal -0.138159 -0.990142 -0.023027
outer loop
vertex -0.843750 0.320312 0.171875
vertex -0.937500 0.335938 0.062500
vertex -0.828125 0.320312 0.078125
endloop
endfacet
facet normal -0.580247 -0.790123 0.197531
outer loop
vertex -0.718750 0.171875 -0.023438
vertex -0.718750 0.187500 0.039062
vertex -0.843750 0.273438 0.015625
endloop
endfacet
facet normal -0.696766 -0.587634 0.411344
outer loop
vertex -1.046875 0.421875 0.000000
vertex -0.882812 0.210938 -0.023438
vertex -0.937500 0.335938 0.062500
endloop
endfacet
facet normal 0.462983 -0.355625 0.811898
outer loop
vertex -0.882812 0.210938 -0.023438
vertex -0.812500 0.320312 -0.015625
vertex -0.937500 0.335938 0.062500
endloop
endfacet
facet normal 0.822210 0.086548 -0.562565
outer loop
vertex -1.187500 0.484375 0.343750
vertex -1.171875 0.437500 0.359375
vertex -1.257812 0.492188 0.242188
endloop
endfacet
facet normal 0.955108 0.246959 -0.163648
outer loop
vertex 0.859375 0.046875 0.320312
vertex 0.796875 0.210938 0.203125
vertex 0.820312 0.203125 0.328125
endloop
endfacet
facet normal 0.531271 -0.613376 0.584398
outer loop
vertex 0.757812 0.273438 0.093750
vertex 0.718750 0.187500 0.039062
vertex 0.843750 0.273438 0.015625
endloop
endfacet
facet normal -0.822210 0.086548 -0.562565
outer loop
vertex 1.171875 0.437500 0.359375
vertex 1.187500 0.484375 0.343750
vertex 1.257812 0.492188 0.242188
endloop
endfacet
facet normal -0.525673 -0.771733 -0.357905
outer loop
vertex 1.187500 0.390625 0.437500
vertex 1.171875 0.437500 0.359375
vertex 1.265625 0.406250 0.289062
endloop
endfacet
facet normal 0.293353 -0.933396 -0.206680
outer loop
vertex 1.054688 0.382812 0.187500
vertex 1.046875 0.421875 0.000000
vertex 1.187500 0.445312 0.093750
endloop
endfacet
facet normal 0.460281 -0.885630 0.061645
outer loop
vertex 1.054688 0.382812 0.187500
vertex 1.187500 0.445312 0.093750
vertex 1.257812 0.492188 0.242188
endloop
endfacet
facet normal 0.328244 -0.943701 -0.041030
outer loop
vertex 1.085938 0.390625 0.273438
vertex 0.953125 0.343750 0.289062
vertex 0.960938 0.351562 0.171875
endloop
endfacet
facet normal 0.320657 -0.946703 -0.030539
outer loop
vertex 1.085938 0.390625 0.273438
vertex 0.960938 0.351562 0.171875
vertex 1.054688 0.382812 0.187500
endloop
endfacet
facet normal -0.492543 -0.864464 -0.100519
outer loop
vertex -1.085938 0.390625 0.273438
vertex -1.257812 0.492188 0.242188
vertex -1.054688 0.382812 0.187500
endloop
endfacet
facet normal 0.525068 -0.795557 0.302312
outer loop
vertex 1.187500 0.484375 0.343750
vertex 1.085938 0.390625 0.273438
vertex 1.257812 0.492188 0.242188
endloop
endfacet
facet normal 0.257425 -0.965345 -0.042904
outer loop
vertex 0.960938 0.351562 0.171875
vertex 0.843750 0.320312 0.171875
vertex 0.828125 0.320312 0.078125
endloop
endfacet
facet normal 0.155567 -0.982018 0.106952
outer loop
vertex 0.960938 0.351562 0.171875
vertex 0.828125 0.320312 0.078125
vertex 0.937500 0.335938 0.062500
endloop
endfacet
facet normal 0.611349 -0.791157 -0.017981
outer loop
vertex 0.960938 0.351562 0.171875
vertex 0.937500 0.335938 0.062500
vertex 1.046875 0.421875 0.000000
endloop
endfacet
facet normal 0.340121 -0.917685 -0.205356
outer loop
vertex 0.960938 0.351562 0.171875
vertex 1.046875 0.421875 0.000000
vertex 1.054688 0.382812 0.187500
endloop
endfacet
facet normal -0.296806 -0.389557 -0.871867
outer loop
vertex -1.023438 0.359375 0.343750
vertex -1.171875 0.437500 0.359375
vertex -1.187500 0.484375 0.343750
endloop
endfacet
facet normal 0.538575 -0.837783 -0.089762
outer loop
vertex 0.757812 0.273438 0.093750
vertex 0.828125 0.320312 0.078125
vertex 0.843750 0.320312 0.171875
endloop
endfacet
facet normal 0.492543 -0.864464 -0.100519
outer loop
vertex 1.257812 0.492188 0.242188
vertex 1.085938 0.390625 0.273438
vertex 1.054688 0.382812 0.187500
endloop
endfacet
facet normal -0.329083 -0.943693 -0.033876
outer loop
vertex -0.953125 0.343750 0.289062
vertex -1.085938 0.390625 0.273438
vertex -1.054688 0.382812 0.187500
endloop
endfacet
facet normal -0.322183 -0.945764 -0.041572
outer loop
vertex -0.953125 0.343750 0.289062
vertex -1.054688 0.382812 0.187500
vertex -0.960938 0.351562 0.171875
endloop
endfacet
facet normal -0.525068 -0.795557 0.302312
outer loop
vertex -1.085938 0.390625 0.273438
vertex -1.187500 0.484375 0.343750
vertex -1.257812 0.492188 0.242188
endloop
endfacet
facet normal 0.298426 0.318470 0.899733
outer loop
vertex -1.250000 0.546875 0.468750
vertex -1.234375 0.421875 0.507812
vertex -1.023438 0.312500 0.476562
endloop
endfacet
facet normal -0.538994 -0.835175 0.109400
outer loop
vertex -1.031250 0.304688 -0.039062
vertex -0.773438 0.125000 -0.140625
vertex -0.882812 0.210938 -0.023438
endloop
endfacet
facet normal -0.207398 -0.871074 0.445215
outer loop
vertex -0.773438 0.125000 -0.140625
vertex -0.718750 0.171875 -0.023438
vertex -0.882812 0.210938 -0.023438
endloop
endfacet
facet normal -0.208233 -0.971754 -0.111058
outer loop
vertex 1.281250 0.429688 0.054688
vertex 1.265625 0.406250 0.289062
vertex 1.187500 0.445312 0.093750
endloop
endfacet
facet normal 0.139526 -0.757429 0.637835
outer loop
vertex 1.281250 0.429688 0.054688
vertex 1.187500 0.445312 0.093750
vertex 1.031250 0.304688 -0.039062
endloop
endfacet
facet normal 0.306858 -0.337544 0.889889
outer loop
vertex 1.046875 0.421875 0.000000
vertex 0.882812 0.210938 -0.023438
vertex 1.031250 0.304688 -0.039062
endloop
endfacet
facet normal -0.518476 -0.207390 0.829561
outer loop
vertex 1.046875 0.421875 0.000000
vertex 1.031250 0.304688 -0.039062
vertex 1.187500 0.445312 0.093750
endloop
endfacet
facet normal 0.816497 0.408248 -0.408248
outer loop
vertex 0.773438 0.437500 0.265625
vertex 0.859375 0.382812 0.382812
vertex 0.640625 0.429688 -0.007812
endloop
endfacet
facet normal 0.208233 -0.971754 -0.111058
outer loop
vertex -1.265625 0.406250 0.289062
vertex -1.281250 0.429688 0.054688
vertex -1.187500 0.445312 0.093750
endloop
endfacet
facet normal -0.139526 -0.757429 0.637835
outer loop
vertex -1.281250 0.429688 0.054688
vertex -1.031250 0.304688 -0.039062
vertex -1.187500 0.445312 0.093750
endloop
endfacet
facet normal 0.597886 -0.501304 -0.625481
outer loop
vertex 0.953125 0.343750 0.289062
vertex 1.023438 0.359375 0.343750
vertex 0.921875 0.218750 0.359375
endloop
endfacet
facet normal 0.819169 -0.422797 -0.387564
outer loop
vertex 0.953125 0.343750 0.289062
vertex 0.921875 0.218750 0.359375
vertex 0.890625 0.265625 0.242188
endloop
endfacet
facet normal -0.415279 -0.901244 0.123700
outer loop
vertex -1.265625 0.406250 0.289062
vertex -1.187500 0.390625 0.437500
vertex -1.234375 0.421875 0.507812
endloop
endfacet
facet normal -0.446708 -0.889355 0.097464
outer loop
vertex -1.234375 0.421875 0.507812
vertex -1.187500 0.390625 0.437500
vertex -1.023438 0.312500 0.476562
endloop
endfacet
facet normal 0.224378 0.926465 0.302187
outer loop
vertex 1.039062 0.492188 -0.085938
vertex 0.859375 0.382812 0.382812
vertex 1.023438 0.312500 0.476562
endloop
endfacet
facet normal -0.701255 0.684519 0.199187
outer loop
vertex 1.039062 0.492188 -0.085938
vertex 1.023438 0.312500 0.476562
vertex 1.250000 0.546875 0.468750
endloop
endfacet
facet normal 0.397900 0.915394 0.061064
outer loop
vertex -0.859375 0.382812 0.382812
vertex -1.039062 0.492188 -0.085938
vertex -1.250000 0.546875 0.468750
endloop
endfacet
facet normal 0.342013 0.359552 0.868187
outer loop
vertex -0.859375 0.382812 0.382812
vertex -1.250000 0.546875 0.468750
vertex -1.023438 0.312500 0.476562
endloop
endfacet
facet normal -0.262393 -0.869783 -0.417885
outer loop
vertex -0.820312 0.203125 0.328125
vertex -0.921875 0.218750 0.359375
vertex -0.890625 0.265625 0.242188
endloop
endfacet
facet normal -0.544882 -0.824309 -0.153685
outer loop
vertex -0.820312 0.203125 0.328125
vertex -0.890625 0.265625 0.242188
vertex -0.796875 0.210938 0.203125
endloop
endfacet
facet normal -0.228953 0.303385 -0.924953
outer loop
vertex 1.039062 0.492188 -0.085938
vertex 0.773438 0.125000 -0.140625
vertex 0.640625 0.429688 -0.007812
endloop
endfacet
facet normal -0.117273 0.976129 0.182809
outer loop
vertex 1.039062 0.492188 -0.085938
vertex 0.640625 0.429688 -0.007812
vertex 0.859375 0.382812 0.382812
endloop
endfacet
facet normal -0.007891 0.402462 -0.915403
outer loop
vertex -0.640625 0.429688 -0.007812
vertex -0.593750 0.164062 -0.125000
vertex -0.773438 0.125000 -0.140625
endloop
endfacet
facet normal 0.807309 -0.004098 0.590114
outer loop
vertex -0.820312 0.203125 0.328125
vertex -0.773438 0.437500 0.265625
vertex -0.859375 0.382812 0.382812
endloop
endfacet
facet normal 0.207398 -0.871074 0.445215
outer loop
vertex 0.718750 0.171875 -0.023438
vertex 0.773438 0.125000 -0.140625
vertex 0.882812 0.210938 -0.023438
endloop
endfacet
facet normal 0.538994 -0.835175 0.109400
outer loop
vertex 0.773438 0.125000 -0.140625
vertex 1.031250 0.304688 -0.039062
vertex 0.882812 0.210938 -0.023438
endloop
endfacet
facet normal -0.816497 0.408248 -0.408248
outer loop
vertex -0.859375 0.382812 0.382812
vertex -0.773438 0.437500 0.265625
vertex -0.640625 0.429688 -0.007812
endloop
endfacet
facet normal 0.577350 -0.577350 -0.577350
outer loop
vertex 0.351562 -0.718750 0.031250
vertex 0.437500 -0.765625 0.164062
vertex 0.351562 -0.804688 0.117188
endloop
endfacet
facet normal -0.443607 -0.633724 -0.633724
outer loop
vertex 0.351562 -0.718750 0.031250
vertex 0.351562 -0.804688 0.117188
vertex 0.273438 -0.796875 0.164062
endloop
endfacet
facet normal 0.697114 -0.589865 -0.407543
outer loop
vertex 0.476562 -0.773438 0.242188
vertex 0.437500 -0.765625 0.164062
vertex 0.562500 -0.671875 0.242188
endloop
endfacet
facet normal 0.707384 -0.598555 0.375952
outer loop
vertex 0.476562 -0.773438 0.242188
vertex 0.562500 -0.671875 0.242188
vertex 0.437500 -0.765625 0.328125
endloop
endfacet
facet normal -0.986394 0.164399 0.000000
outer loop
vertex -0.562500 -0.671875 0.242188
vertex -0.546875 -0.578125 0.437500
vertex -0.546875 -0.578125 0.054688
endloop
endfacet
facet normal -0.697114 -0.589865 -0.407543
outer loop
vertex -0.562500 -0.671875 0.242188
vertex -0.437500 -0.765625 0.164062
vertex -0.476562 -0.773438 0.242188
endloop
endfacet
facet normal -0.707384 -0.598555 0.375952
outer loop
vertex -0.562500 -0.671875 0.242188
vertex -0.476562 -0.773438 0.242188
vertex -0.437500 -0.765625 0.328125
endloop
endfacet
facet normal -0.039018 0.216765 -0.975444
outer loop
vertex 0.351562 -0.718750 0.031250
vertex 0.156250 -0.648438 0.054688
vertex 0.546875 -0.578125 0.054688
endloop
endfacet
endsolid Exported from Blender-3.6.16
