# Blender 4.2.2 LTS
# www.blender.org
mtllib floor.mtl
o walls.004
v 33.881321 6.739419 -0.110622
v 33.881325 -6.739410 -0.110622
v 41.850677 6.739420 -0.110622
v 41.850681 -6.739409 -0.110622
v 33.881325 -6.739410 0.077314
v 41.850681 -6.739409 0.077314
v 41.850677 6.739420 0.077314
v 33.881321 6.739419 0.077314
vn -0.0000 -0.0000 -1.0000
vn -0.0000 -0.0000 1.0000
vn -1.0000 -0.0000 -0.0000
vn -0.0000 -1.0000 -0.0000
vn 1.0000 -0.0000 -0.0000
vn -0.0000 1.0000 -0.0000
vt 0.000000 0.000000
s 0
usemtl walls
f 2/1/1 3/1/1 4/1/1
f 7/1/2 5/1/2 6/1/2
f 2/1/3 8/1/3 1/1/3
f 4/1/4 5/1/4 2/1/4
f 3/1/5 6/1/5 4/1/5
f 1/1/6 7/1/6 3/1/6
f 2/1/1 1/1/1 3/1/1
f 7/1/2 8/1/2 5/1/2
f 2/1/3 5/1/3 8/1/3
f 4/1/4 6/1/4 5/1/4
f 3/1/5 7/1/5 6/1/5
f 1/1/6 8/1/6 7/1/6
