# Blender 4.2.2 LTS
# www.blender.org
mtllib skirt.mtl
o Cube.003
v -29.275425 59.324883 0.000028
v -29.275425 -59.324883 -0.000027
v 192.150345 59.324883 0.000028
v 192.150345 -59.324883 -0.000027
v -29.275425 -20.199177 -0.000009
v -29.275425 20.199177 0.000010
v -29.275425 59.324883 -2.084810
v -29.275425 -59.324883 -2.084865
v 192.150345 59.324883 -2.084810
v 192.150345 -59.324883 -2.084865
v -29.275425 -20.199177 -2.084847
v -29.275425 20.199177 -2.084828
vn 1.0000 -0.0000 -0.0000
vn -1.0000 -0.0000 -0.0000
vn -0.0000 1.0000 -0.0000
vn -0.0000 -1.0000 -0.0000
vt 0.000000 0.000000
s 0
usemtl outside
f 10/1/1 3/1/1 4/1/1
f 6/1/2 7/1/2 12/1/2
f 9/1/3 1/1/3 3/1/3
f 2/1/4 10/1/4 4/1/4
f 11/1/2 2/1/2 5/1/2
f 10/1/1 9/1/1 3/1/1
f 6/1/2 1/1/2 7/1/2
f 9/1/3 7/1/3 1/1/3
f 2/1/4 8/1/4 10/1/4
f 11/1/2 8/1/2 2/1/2
